<?xml version="1.0" encoding="UTF-8" standalone="no"?>
<!-- Created with Inkscape (http://www.inkscape.org/) -->

<svg
   width="59.827347mm"
   height="59.874893mm"
   viewBox="0 0 59.827347 59.874893"
   version="1.1"
   id="svg5"
   xmlns:inkscape="http://www.inkscape.org/namespaces/inkscape"
   xmlns:sodipodi="http://sodipodi.sourceforge.net/DTD/sodipodi-0.dtd"
   xmlns="http://www.w3.org/2000/svg"
   xmlns:svg="http://www.w3.org/2000/svg">
  <sodipodi:namedview
     id="namedview7"
     pagecolor="#ffffff"
     bordercolor="#000000"
     borderopacity="0.25"
     inkscape:showpageshadow="2"
     inkscape:pageopacity="0.0"
     inkscape:pagecheckerboard="0"
     inkscape:deskcolor="#d1d1d1"
     inkscape:document-units="mm"
     showgrid="false" />
  <defs
     id="defs2" />
  <g
     inkscape:label="Layer 1"
     inkscape:groupmode="layer"
     id="layer1"
     transform="translate(-59.207239,-147.31401)">
    <path
       id="path234"
       style="fill:#b3b3b3;stroke-width:0.264583"
       d="m 89.14443,147.31401 a 29.937126,29.937126 0 0 0 -2.271696,0.0951 2.0007484,2.0007484 0 0 1 -1.877922,1.31362 2.0007484,2.0007484 0 0 1 -1.619539,-0.82889 29.937126,29.937126 0 0 0 -13.465328,6.44146 4.0084376,4.0084376 0 0 1 0.12609,0.99529 4.0084376,4.0084376 0 0 1 -4.008541,4.00854 4.0084376,4.0084376 0 0 1 -0.785481,-0.0801 29.937126,29.937126 0 0 0 -6.034774,17.9927 29.937126,29.937126 0 0 0 0.02325,0.6258 3.039077,3.039077 0 0 1 0.954464,2.21124 3.039077,3.039077 0 0 1 -0.606681,1.81849 29.937126,29.937126 0 0 0 1.096057,4.53409 10.63677,10.63677 0 0 1 0.264583,-0.01 10.63677,10.63677 0 0 1 10.63656,10.63708 10.63677,10.63677 0 0 1 -0.717786,3.83543 29.937126,29.937126 0 0 0 4.604887,2.9502 2.4083085,2.4083085 0 0 1 1.492416,-0.51883 2.4083085,2.4083085 0 0 1 2.397269,2.1823 29.937126,29.937126 0 0 0 9.792168,1.67121 29.937126,29.937126 0 0 0 0.235644,-0.008 5.711369,5.711369 0 0 1 5.198132,-3.35277 5.711369,5.711369 0 0 1 4.133598,1.77043 29.937126,29.937126 0 0 0 10.00198,-5.69371 3.2234282,3.2234282 0 0 1 -0.006,-0.16278 3.2234282,3.2234282 0 0 1 3.22306,-3.22357 3.2234282,3.2234282 0 0 1 0.12402,0.003 29.937126,29.937126 0 0 0 6.97993,-17.93482 4.4461079,4.4461079 0 0 1 -3.06544,-4.22403 4.4461079,4.4461079 0 0 1 2.32492,-3.90416 29.937126,29.937126 0 0 0 -8.69508,-15.06368 3.605428,3.605428 0 0 1 -0.26665,0.0103 3.605428,3.605428 0 0 1 -3.56102,-3.04684 29.937126,29.937126 0 0 0 -16.626894,-5.04311 z" />
    <circle
       style="fill:#999999;stroke-width:0.264583"
       id="path537"
       cx="77.288177"
       cy="170.80464"
       r="4.3720059" />
    <circle
       style="fill:#808080;stroke-width:0.495533"
       id="path537-5"
       cx="92.367882"
       cy="192.55351"
       r="8.1882486" />
    <circle
       style="fill:#999999;stroke-width:0.14126"
       id="path537-5-7"
       cx="100.00037"
       cy="164.02434"
       r="2.3342066" />
  </g>
</svg>
