<svg width="90" height="93" viewBox="0 0 90 93" fill="none" xmlns="http://www.w3.org/2000/svg">
<ellipse cx="45.2983" cy="46.6733" rx="44.3471" ry="45.979" fill="#F5B05D"/>
<path d="M25.957 37.8516C24.7852 40.3906 24.1992 43.3203 24.1992 46.25C24.1992 54.5508 28.9844 61.582 35.918 65L25.957 37.8516ZM58.9648 45.2734C58.9648 47.0312 58.2812 49.082 57.4023 51.9141L55.3516 58.8477L47.832 36.582C49.1016 36.4844 50.1758 36.3867 50.1758 36.3867C51.3477 36.1914 51.1523 34.5312 50.0781 34.6289C50.0781 34.6289 46.6602 34.9219 44.5117 34.9219C42.4609 34.9219 39.043 34.6289 39.043 34.6289C37.9688 34.5312 37.7734 36.2891 38.9453 36.3867C38.9453 36.3867 40.0195 36.4844 41.0938 36.582L44.3164 45.3711L39.8242 59.043L32.207 36.582C33.4766 36.4844 34.6484 36.3867 34.6484 36.3867C35.7227 36.1914 35.625 34.5312 34.4531 34.6289C34.4531 34.6289 31.1328 34.9219 28.8867 34.9219C28.4961 34.9219 28.1055 34.9219 27.6172 34.9219C31.3281 29.2578 37.6758 25.5469 45 25.5469C50.3711 25.5469 55.2539 27.5977 58.9648 31.0156C58.8672 30.918 58.7695 30.918 58.6719 30.918C56.7188 30.918 55.2539 32.7734 55.2539 34.6289C55.2539 36.3867 56.2305 37.8516 57.3047 39.5117C58.0859 40.8789 58.9648 42.6367 58.9648 45.2734ZM45.293 48.1055L51.7383 65.5859C51.7383 65.6836 51.8359 65.7812 51.8359 65.8789C49.6875 66.6602 47.3438 67.0508 45 67.0508C42.9492 67.0508 40.9961 66.7578 39.043 66.2695L45.293 48.1055ZM63.1641 36.2891C64.8242 39.3164 65.7031 42.6367 65.7031 46.25C65.7031 53.9648 61.6016 60.6055 55.3516 64.2188L61.6992 45.8594C62.9688 42.9297 63.3594 40.5859 63.3594 38.4375C63.3594 37.6562 63.2617 36.9727 63.1641 36.2891ZM69.2188 46.25C69.2188 32.9688 58.2812 22.0312 45 22.0312C31.6211 22.0312 20.7812 32.9688 20.7812 46.25C20.7812 59.6289 31.6211 70.4688 45 70.4688C58.2812 70.4688 69.2188 59.6289 69.2188 46.25ZM68.0469 46.25C68.0469 59.043 57.6953 69.3945 45 69.3945C32.207 69.3945 21.8555 59.043 21.8555 46.25C21.8555 33.5547 32.207 23.2031 45 23.2031C57.6953 23.2031 68.0469 33.5547 68.0469 46.25Z" fill="white"/>
</svg>
