<svg width="145" height="150" viewBox="0 0 145 150" fill="none" xmlns="http://www.w3.org/2000/svg">
<ellipse cx="72.5209" cy="74.9473" rx="71.6377" ry="74.2737" fill="#F5B05D"/>
<path d="M37.7344 44.25C37.7344 33.8984 45.9375 25.5 56.2891 25.5H88.5156C98.8672 25.5 107.07 33.8984 107.07 44.25C107.07 50.8906 103.75 56.5547 98.6719 59.875C103.75 63.3906 107.07 69.0547 107.07 75.6953C107.07 85.8516 98.8672 94.25 88.5156 94.25H88.125C83.2422 94.25 78.75 92.4922 75.4297 89.3672V106.75C75.4297 117.102 66.8359 125.5 56.4844 125.5C46.1328 125.5 37.7344 117.297 37.7344 106.945C37.7344 100.305 41.0547 94.6406 46.1328 91.3203C41.0547 87.8047 37.7344 82.1406 37.7344 75.6953C37.7344 69.0547 41.0547 63.3906 46.1328 59.875C41.0547 56.5547 37.7344 50.8906 37.7344 44.25ZM69.375 63H56.2891C49.4531 63 43.7891 68.6641 43.7891 75.6953C43.7891 82.5312 49.2578 88.1953 56.2891 88.1953H69.375V63ZM75.4297 75.6953C75.4297 82.5312 81.0938 88.1953 88.125 88.1953H88.5156C95.3516 88.1953 101.016 82.5312 101.016 75.6953C101.016 68.6641 95.3516 63 88.5156 63H88.125C81.0938 63 75.4297 68.6641 75.4297 75.6953ZM56.2891 94.25C49.2578 94.4453 43.7891 99.9141 43.7891 106.945C43.7891 113.781 49.4531 119.445 56.4844 119.445C63.5156 119.445 69.375 113.781 69.375 106.75V94.25H56.2891ZM56.2891 31.75C49.4531 31.75 43.7891 37.4141 43.7891 44.25C43.7891 51.2812 49.4531 56.9453 56.2891 56.9453H69.375V31.75H56.2891ZM75.4297 56.9453H88.5156C95.3516 56.9453 101.016 51.2812 101.016 44.25C101.016 37.4141 95.3516 31.75 88.5156 31.75H75.4297V56.9453Z" fill="white"/>
</svg>
