<svg width="200" height="207" viewBox="0 0 200 207" fill="none" xmlns="http://www.w3.org/2000/svg">
<ellipse cx="100.219" cy="103.547" rx="99.7811" ry="103.453" fill="#F5B05D"/>
<path d="M110.047 93.3438C110.047 98.7344 105.828 102.016 98.0938 102.016H88.25V85.375H99.9688C106.297 85.375 110.047 88.1875 110.047 93.3438ZM153.172 90.2969C155.281 97.5625 159.031 102.25 165.359 102.719V109.516C159.031 109.984 155.281 114.672 152.938 121.938C150.828 129.203 150.594 138.109 150.828 144.906C151.062 151.938 145.438 158.5 137.938 158.5H60.8281C53.3281 158.5 47.7031 151.938 48.1719 144.906C48.4062 138.109 47.9375 129.203 45.8281 121.938C43.4844 114.672 39.7344 109.984 33.6406 109.516V102.719C39.7344 102.25 43.4844 97.5625 45.8281 90.2969C47.9375 83.0312 48.4062 74.125 48.1719 67.3281C47.7031 60.2969 53.3281 53.5 60.8281 53.5H137.938C145.438 53.5 151.062 60.0625 150.828 67.3281C150.594 74.125 150.828 83.0312 153.172 90.2969ZM102.312 134.125C114.5 134.125 121.766 128.031 121.766 118.188C121.766 110.688 116.609 105.297 108.641 104.594V104.125C114.5 103.422 118.953 98.0312 118.953 92.1719C118.953 83.7344 112.391 78.1094 102.078 78.1094H79.3438V134.125H102.312ZM99.9688 108.578C108.406 108.578 112.625 111.625 112.625 117.719C112.625 123.812 108.406 126.859 100.438 126.859H88.25V108.578H99.9688Z" fill="white"/>
</svg>
