<svg width="144" height="149" viewBox="0 0 144 149" fill="none" xmlns="http://www.w3.org/2000/svg">
<ellipse cx="72.2569" cy="74.5999" rx="71.6377" ry="74.2737" fill="#F5B05D"/>
<path d="M14.8232 93V54.3457H26.5039L33.5176 80.7129L40.4521 54.3457H52.1592V93H44.9082V62.5723L37.2354 93H29.7207L22.0742 62.5723V93H14.8232ZM69.7725 93L55.9561 54.3457H64.4199L74.2021 82.9541L83.668 54.3457H91.9473L78.1045 93H69.7725ZM120.661 78.7881L128.229 81.1875C127.068 85.4062 125.135 88.5439 122.428 90.6006C119.738 92.6396 116.319 93.6592 112.171 93.6592C107.038 93.6592 102.819 91.9102 99.5146 88.4121C96.21 84.8965 94.5576 80.0977 94.5576 74.0156C94.5576 67.582 96.2188 62.5898 99.541 59.0391C102.863 55.4707 107.231 53.6865 112.646 53.6865C117.374 53.6865 121.215 55.084 124.168 57.8789C125.926 59.5312 127.244 61.9043 128.123 64.998L120.397 66.8438C119.94 64.8398 118.982 63.2578 117.523 62.0977C116.082 60.9375 114.324 60.3574 112.25 60.3574C109.385 60.3574 107.056 61.3857 105.263 63.4424C103.487 65.499 102.6 68.8301 102.6 73.4355C102.6 78.3223 103.479 81.8027 105.236 83.877C106.994 85.9512 109.279 86.9883 112.092 86.9883C114.166 86.9883 115.95 86.3291 117.444 85.0107C118.938 83.6924 120.011 81.6182 120.661 78.7881Z" fill="white"/>
</svg>
