<svg width="144" height="150" viewBox="0 0 144 150" fill="none" xmlns="http://www.w3.org/2000/svg">
<ellipse cx="72.0756" cy="75.0525" rx="71.6377" ry="74.2737" fill="#F5B05D"/>
<path d="M38 44.0625H103.625V109.688H38V44.0625ZM73.5957 95.332V74.2383H67.4434V95.1855C67.4434 98.2617 66.125 99.1406 64.2207 99.1406C62.0234 99.1406 61.1445 97.6758 60.2656 95.918L55.1387 98.9941C56.6035 102.07 59.5332 104.561 64.3672 104.561C69.9336 104.561 73.5957 101.631 73.5957 95.332ZM88.2441 104.561C94.1035 104.561 98.498 101.631 98.498 96.0645C98.498 90.9375 95.5684 88.5938 90.2949 86.3965L88.6836 85.6641C86.0469 84.4922 84.875 83.7598 84.875 81.8555C84.875 80.3906 86.0469 79.2188 87.8047 79.2188C89.709 79.2188 90.7344 80.0977 91.9062 81.8555L96.5938 78.7793C94.6895 75.2637 91.7598 73.9453 87.9512 73.9453C82.3848 73.9453 78.8691 77.4609 78.8691 82.002C78.8691 87.1289 81.7988 89.4727 86.1934 91.377L87.8047 91.9629C90.5879 93.2812 92.3457 94.0137 92.3457 96.0645C92.3457 97.8223 90.5879 99.1406 88.0977 99.1406C85.0215 99.1406 83.4102 97.5293 82.0918 95.4785L76.9648 98.2617C78.8691 101.924 82.5312 104.561 88.2441 104.561Z" fill="white"/>
</svg>
