<svg width="144" height="149" viewBox="0 0 144 149" fill="none" xmlns="http://www.w3.org/2000/svg">
<ellipse cx="72.2834" cy="74.5157" rx="71.6377" ry="74.2737" fill="#F5B05D"/>
<g clip-path="url(#clip0_105_40)">
<path d="M99.0417 47.5833V102.417H45.9583V47.5833H99.0417ZM99.0417 39.75H45.9583C43.9471 39.75 42.0183 40.5753 40.5961 42.0443C39.174 43.5134 38.375 45.5058 38.375 47.5833V102.417C38.375 104.494 39.174 106.487 40.5961 107.956C42.0183 109.425 43.9471 110.25 45.9583 110.25H99.0417C101.053 110.25 102.982 109.425 104.404 107.956C105.826 106.487 106.625 104.494 106.625 102.417V47.5833C106.625 45.5058 105.826 43.5134 104.404 42.0443C102.982 40.5753 101.053 39.75 99.0417 39.75Z" fill="white"/>
<path d="M72.9171 69.0074C72.9988 70.4282 72.7684 71.8497 72.2431 73.1655C71.7178 74.4813 70.9112 75.6574 69.8838 76.6057C67.438 78.5116 64.4092 79.4432 61.3525 79.2299H58.6604V90.1574H52.3283V59.3332H61.8454C64.7784 59.1254 67.6893 59.9845 70.0733 61.7616C71.0621 62.6561 71.8343 63.7774 72.3281 65.0357C72.8219 66.2939 73.0237 67.6542 72.9171 69.0074ZM58.6604 73.9032H60.7079C62.2011 73.9801 63.6781 73.5541 64.9167 72.6891C65.417 72.2852 65.8112 71.7579 66.0629 71.1557C66.3147 70.5535 66.416 69.8956 66.3575 69.2424C66.4128 68.617 66.3326 67.9867 66.1228 67.3974C65.9129 66.808 65.5786 66.2742 65.1442 65.8349C64.0455 65.0178 62.7022 64.6293 61.3525 64.7382H58.6604V73.9032Z" fill="white"/>
<path d="M92.6717 83.1857C92.7256 84.2398 92.5333 85.2918 92.111 86.253C91.6886 87.2141 91.0486 88.0562 90.245 88.7082C88.0716 90.1137 85.523 90.7719 82.965 90.5882C81.5419 90.6082 80.1201 90.4902 78.7183 90.2357C77.5849 90.0267 76.4782 89.6851 75.4196 89.2174V83.9299C76.6442 84.5057 77.9123 84.9772 79.2112 85.3399C80.4517 85.6664 81.7233 85.8503 83.0029 85.8882C85.24 85.8882 86.3775 85.2224 86.3775 83.8907C86.3864 83.661 86.3508 83.4318 86.2726 83.2165C86.1945 83.0013 86.0754 82.8044 85.9225 82.6374C85.4755 82.2026 84.9633 81.8455 84.4058 81.5799L81.4483 80.1699C80.1048 79.6291 78.8313 78.9187 77.6567 78.0549C76.9018 77.481 76.2908 76.729 75.8746 75.8615C75.4723 74.8842 75.2784 73.829 75.3058 72.7674C75.2704 71.8189 75.4673 70.8765 75.8782 70.0276C76.2891 69.1786 76.9008 68.4505 77.6567 67.9107C79.6604 66.6504 81.9878 66.0493 84.33 66.1874C87.0993 66.189 89.833 66.8314 92.3304 68.0674L90.4725 72.689C89.4336 72.212 88.3703 71.7936 87.2875 71.4357C86.3047 71.1237 85.2823 70.9653 84.2542 70.9657C82.3962 70.9657 81.4862 71.4749 81.4862 72.4932C81.502 72.801 81.594 73.0994 81.7533 73.36C81.9126 73.6206 82.134 73.8346 82.3962 73.9815C83.5963 74.7372 84.8665 75.367 86.1879 75.8615C87.5238 76.403 88.7958 77.0994 89.9796 77.9374C90.7489 78.5221 91.3727 79.2873 91.7996 80.1699C92.3222 81.0875 92.6214 82.1224 92.6717 83.1857Z" fill="white"/>
</g>
<defs>
<clipPath id="clip0_105_40">
<rect width="91" height="94" fill="white" transform="translate(27 28)"/>
</clipPath>
</defs>
</svg>
