<svg width="90" height="93" viewBox="0 0 90 93" fill="none" xmlns="http://www.w3.org/2000/svg">
<ellipse cx="45.3322" cy="46.5156" rx="44.3471" ry="45.979" fill="#F5B05D"/>
<path d="M71.7324 44.2129C73.1289 45.6094 73.1289 47.8945 71.7324 49.291L46.9766 74.0469C45.5801 75.4434 43.2949 75.4434 41.8984 74.0469L17.0156 49.1641C15.6191 47.7676 15.6191 45.4824 17.0156 44.0859L34.0273 26.9473L40.502 33.4219C39.7402 35.3262 40.248 38.1191 42.9141 39.1348V54.75C39.9941 55.8926 39.2324 59.7012 41.3906 61.8594C43.168 63.6367 45.834 63.6367 47.6113 61.8594C49.2617 60.209 49.6426 56.5273 46.4688 54.877V39.3887L52.3086 45.3555C50.5312 49.6719 56.1172 53.4805 59.418 50.0527C62.7188 46.752 59.291 41.4199 54.9746 42.8164L48.627 36.5957C49.7695 33.168 46.5957 29.8672 43.168 31.0098L36.5664 24.5352L41.7715 19.3301C43.168 17.9336 45.4531 17.9336 46.9766 19.3301L71.7324 44.2129Z" fill="white"/>
</svg>
