<?xml version="1.0" encoding="UTF-8" standalone="no"?>
<svg
   xmlns:dc="http://purl.org/dc/elements/1.1/"
   xmlns:cc="http://creativecommons.org/ns#"
   xmlns:rdf="http://www.w3.org/1999/02/22-rdf-syntax-ns#"
   xmlns:svg="http://www.w3.org/2000/svg"
   xmlns="http://www.w3.org/2000/svg"
   xmlns:sodipodi="http://sodipodi.sourceforge.net/DTD/sodipodi-0.dtd"
   xmlns:inkscape="http://www.inkscape.org/namespaces/inkscape"
   version="1.1"
   id="svg2"
   xml:space="preserve"
   width="298.12"
   height="66.893333"
   viewBox="0 0 298.12 66.893333"
   sodipodi:docname="PKP_HOR2_4C.eps"><metadata
     id="metadata8"><rdf:RDF><cc:Work
         rdf:about=""><dc:format>image/svg+xml</dc:format><dc:type
           rdf:resource="http://purl.org/dc/dcmitype/StillImage" /></cc:Work></rdf:RDF></metadata><defs
     id="defs6" /><sodipodi:namedview
     pagecolor="#ffffff"
     bordercolor="#666666"
     borderopacity="1"
     objecttolerance="10"
     gridtolerance="10"
     guidetolerance="10"
     inkscape:pageopacity="0"
     inkscape:pageshadow="2"
     inkscape:window-width="640"
     inkscape:window-height="480"
     id="namedview4" /><g
     id="g10"
     inkscape:groupmode="layer"
     inkscape:label="ink_ext_XXXXXX"
     transform="matrix(1.3333333,0,0,-1.3333333,0,66.893333)"><g
       id="g12"
       transform="scale(0.1)"><path
         d="m 1268.83,169.512 h 38.58 c 1.05,0 1.26,0.625 1.05,1.25 l -18.87,51.789 c -0.21,0.84 -0.42,1.883 -1.05,1.883 -0.63,0 -1.05,-1.043 -1.25,-1.883 l -19.3,-51.574 c -0.21,-0.84 0,-1.465 0.84,-1.465 z m 42.56,-10.489 h -46.75 c -1.05,0 -1.47,-0.418 -1.89,-1.679 l -11.32,-29.981 c -0.87,-2.187 -1.57,-4.336 -2.07,-6.269 -4.52,2.492 -8.79,5.547 -12.91,8.906 l 51.46,129.027 c 2.52,6.086 3.77,8.387 5.87,8.387 1.88,0 3.15,-1.883 5.24,-6.707 5.03,-11.531 38.58,-97.074 52,-128.937 7.96,-18.879 14.04,-21.809 18.45,-22.864 3.15,-0.625 6.29,-0.828 8.81,-0.828 1.67,0 2.72,-0.207 2.72,-1.68 0,-1.679 -1.89,-2.101 -9.64,-2.101 -7.55,0 -22.85,0 -39.63,0.422 -3.78,0.203 -6.29,0.203 -6.29,1.679 0,1.258 0.84,1.68 2.94,1.883 1.46,0.43 2.93,2.305 1.88,4.824 l -16.77,44.454 c -0.42,1.046 -1.05,1.464 -2.1,1.464"
         style="fill:#FFF;fill-opacity:1;fill-rule:evenodd;stroke:none"
         id="path14" /><path
         d="m 589.23,180.469 c 0,-24.219 0,-45.008 -1.32,-56.055 -1.055,-7.637 -2.367,-13.437 -7.633,-14.492 -2.367,-0.516 -5.523,-1.043 -9.476,-1.043 -3.153,0 -4.207,-0.793 -4.207,-2.102 0,-1.855 1.844,-2.636 5.261,-2.636 10.528,0 27.11,0.781 33.165,0.781 6.839,0 23.429,-0.781 40.796,-0.781 2.895,0 5,0.781 5,2.636 0,1.309 -1.312,2.102 -4.211,2.102 -3.945,0 -9.734,0.527 -13.425,1.043 -7.891,1.055 -9.473,6.855 -10.258,14.219 -1.32,11.32 -1.32,32.109 -1.32,56.328 v 105.285 c 0,2.894 0.785,4.473 2.105,5 2.367,0.789 6.316,1.055 10.262,1.055 6.054,0 16.847,-1.582 26.324,-10.266 14.742,-13.164 15.527,-30.801 15.527,-39.48 0,-26.848 -20.531,-43.43 -35.269,-43.43 -5.528,0 -7.371,-0.789 -7.371,-2.891 0,-1.855 1.843,-2.109 3.164,-2.383 1.316,-0.254 4.207,-0.254 5.527,-0.254 37.371,0 64.746,26.321 64.746,63.692 0,13.957 -7.367,25.797 -13.16,31.324 -4.207,3.949 -16.059,15.004 -48.961,15.004 -12.101,0 -27.367,-0.789 -38.156,-0.789 -7.375,0 -23.957,0.789 -37.902,0.789 -3.95,0 -5.797,-0.527 -5.797,-2.367 0,-1.848 1.582,-2.375 4.48,-2.375 3.68,0 8.156,-0.262 10.262,-0.789 8.683,-1.836 10.793,-6.051 11.32,-15 0.527,-8.422 0.527,-15.793 0.527,-55.797 v -46.328"
         style="fill:#FFF;fill-opacity:1;fill-rule:evenodd;stroke:none"
         id="path16" /><path
         d="m 767.082,196.133 c -0.625,0 -1.258,0.422 -1.258,1.465 v 4.406 c 0,31.863 0,37.742 0.422,44.445 0.414,7.34 2.094,10.906 7.754,11.949 2.516,0.422 4.402,0.629 6.078,0.629 2.52,0 3.774,0.422 3.774,1.891 0,1.469 -1.465,1.887 -4.399,1.887 -8.18,0 -21.387,-0.633 -26.422,-0.633 -5.656,0 -18.863,0.633 -30.187,0.633 -2.938,0 -4.403,-0.418 -4.403,-1.887 0,-1.469 1.258,-1.891 3.567,-1.891 2.93,0 6.496,-0.207 8.172,-0.629 6.922,-1.464 8.601,-4.82 9.019,-11.949 0.414,-6.703 0.414,-12.582 0.414,-44.445 v -36.906 c 0,-19.278 0,-35.848 -1.043,-44.649 -0.84,-6.082 -1.89,-10.703 -6.078,-11.543 -1.89,-0.41 -4.406,-0.828 -7.554,-0.828 -2.516,0 -3.352,-0.637 -3.352,-1.68 0,-1.476 1.465,-2.101 4.195,-2.101 8.387,0 21.594,0.625 26.418,0.625 5.867,0 19.074,-0.625 32.703,-0.625 2.516,0 4.196,0.625 4.196,2.101 0,1.043 -1.051,1.68 -3.356,1.68 -3.144,0 -7.758,0.418 -10.691,0.828 -6.289,0.84 -7.551,5.461 -8.176,11.328 -1.051,9.016 -1.051,25.586 -1.051,44.864 v 18.457 c 0,1.047 0.633,1.25 1.258,1.25 h 80.09 c 0.625,0 1.258,-0.41 1.258,-1.25 v -18.457 c 0,-19.278 0,-35.848 -1.047,-44.649 -0.84,-6.082 -1.883,-10.703 -6.078,-11.543 -1.891,-0.41 -4.407,-0.828 -7.551,-0.828 -2.52,0 -3.352,-0.637 -3.352,-1.68 0,-1.476 1.469,-2.101 4.399,-2.101 8.179,0 21.387,0.625 26.211,0.625 5.867,0 19.078,-0.625 32.703,-0.625 2.515,0 4.195,0.625 4.195,2.101 0,1.043 -1.051,1.68 -3.355,1.68 -3.145,0 -7.758,0.418 -10.692,0.828 -6.289,0.84 -7.55,5.461 -8.175,11.328 -1.047,9.016 -1.047,25.586 -1.047,44.864 v 36.906 c 0,31.863 0,37.742 0.418,44.445 0.414,7.34 2.093,10.906 7.757,11.949 2.512,0.422 4.403,0.629 6.082,0.629 2.512,0 3.77,0.422 3.77,1.891 0,1.469 -1.473,1.887 -4.402,1.887 -8.176,0 -21.387,-0.633 -26.418,-0.633 -5.66,0 -18.868,0.633 -30.192,0.633 -2.933,0 -4.398,-0.418 -4.398,-1.887 0,-1.469 1.254,-1.891 3.562,-1.891 2.934,0 6.5,-0.207 8.176,-0.629 6.922,-1.464 8.598,-4.82 9.016,-11.949 0.418,-6.703 0.418,-12.582 0.418,-44.445 v -4.406 c 0,-1.043 -0.633,-1.465 -1.258,-1.465 h -80.09"
         style="fill:#FFF;fill-opacity:1;fill-rule:evenodd;stroke:none"
         id="path18" /><path
         d="m 930.793,165.098 c 0,-20.332 0,-36.895 -1.051,-45.703 -0.629,-6.075 -1.89,-9.649 -6.078,-10.489 -1.891,-0.41 -4.406,-0.828 -7.551,-0.828 -2.515,0 -3.355,-0.637 -3.355,-1.68 0,-1.476 1.472,-2.101 4.195,-2.101 8.383,0 21.594,0.625 26.418,0.625 5.656,0 18.867,-0.625 32.707,-0.625 2.305,0 3.981,0.625 3.981,2.101 0,1.043 -1.051,1.68 -3.356,1.68 -3.144,0 -7.758,0.418 -10.691,0.828 -6.289,0.84 -7.758,4.621 -8.383,10.274 -0.84,9.023 -0.84,25.586 -0.84,45.918 v 36.906 c 0,31.863 0,37.742 0.418,44.445 0.422,7.34 2.094,10.906 7.754,11.949 2.519,0.422 4.195,0.629 6.293,0.629 2.098,0 3.355,0.422 3.355,2.102 0,1.258 -1.679,1.676 -4.402,1.676 -7.969,0 -20.34,-0.633 -25.582,-0.633 -6.078,0 -19.289,0.633 -27.25,0.633 -3.359,0 -5.035,-0.418 -5.035,-1.676 0,-1.68 1.258,-2.102 3.355,-2.102 2.52,0 5.243,-0.207 7.547,-0.832 4.61,-1.05 6.711,-4.617 7.129,-11.746 0.422,-6.703 0.422,-12.582 0.422,-44.445 v -36.906"
         style="fill:#FFF;fill-opacity:1;fill-rule:evenodd;stroke:none"
         id="path20" /><path
         d="m 1121.11,214.668 h 2.09 c 9.12,9.922 47.56,49.145 55.2,58.102 3.69,4.351 6.99,8.179 9.37,11.48 2.37,3.285 3.91,6.18 3.91,8.613 0,3.055 -1.13,5.196 -4.11,5.789 -2.41,0.539 -3,0.993 -3,2.106 0,1.281 0.72,1.82 3.67,1.82 5.53,0 20.01,-0.789 27.11,-0.789 8.17,0 22.64,0.789 30.8,0.789 2.76,0 3.93,-0.57 3.93,-1.82 0,-1.301 -0.74,-1.828 -3.4,-1.828 -3.75,0 -10.4,-1.067 -15.46,-2.934 -8.25,-3.183 -17.26,-8.766 -28.61,-19.851 -8.17,-7.903 -47.92,-47.395 -56.87,-56.875 9.46,-13.098 61.07,-68.665 71.35,-78.411 5.8,-5.535 11.66,-11.269 17.86,-16.316 6.2,-5.051 12.77,-9.426 19.95,-12.219 7.94,-3.183 13.27,-3.984 16.52,-3.984 1.89,0 2.88,-0.547 2.88,-1.563 0,-1.25 -0.65,-2.089 -5.78,-2.089 h -22.89 c -7.88,0 -12.6,0 -18.11,0.519 -14.03,1.297 -21.03,6.981 -32.33,16.973 -11.54,10.222 -63.37,71.004 -68.88,78.621 l -3.07,4.16 h -2.13 v -24.492 c 0,-24.227 0,-45.039 0.78,-56.367 0.54,-7.403 2.95,-13.594 9.95,-14.707 3.71,-0.528 9.53,-1.055 12.97,-1.055 2.08,0 2.89,-0.762 2.89,-1.563 0,-1.269 -1.47,-2.089 -4.46,-2.089 -14.74,0 -31.33,0.781 -37.9,0.781 -6.06,0 -22.64,-0.781 -33.17,-0.781 -3.51,0 -4.72,0.82 -4.72,2.089 0,0.762 0.48,1.563 3.67,1.563 4,0 7.19,0.527 9.59,1.055 5.71,1.144 7.02,7.441 8.05,14.941 1.32,11.074 1.33,31.894 1.33,56.133 v 46.328 c 0,40.031 0,47.402 -0.53,55.832 -0.54,9.094 -2.73,13.586 -11.74,15.496 -2.18,0.543 -6.7,0.805 -10.39,0.805 -2.99,0 -3.92,0.562 -3.92,1.828 0,0.652 0.28,1.07 1.06,1.367 0.85,0.32 2.21,0.453 4.18,0.453 13.95,0 30.53,-0.789 36.85,-0.789 6.31,0 22.9,0.789 31.84,0.789 1.85,0 3.14,-0.133 3.95,-0.453 0.76,-0.293 1.04,-0.711 1.04,-1.367 0,-1.301 -1,-1.828 -3.14,-1.828 -2.67,0 -4.27,-0.266 -7.46,-0.801 -7.49,-1.387 -9.66,-6.219 -10.19,-15.5 -0.53,-8.43 -0.53,-15.801 -0.53,-55.832 v -12.129"
         style="fill:#FFF;fill-opacity:1;fill-rule:evenodd;stroke:none"
         id="path22" /><path
         d="m 1394.87,165.098 c 0,-19.278 0,-35.848 -1.04,-44.649 -0.84,-6.082 -1.9,-10.703 -6.09,-11.543 -1.88,-0.41 -4.4,-0.828 -7.54,-0.828 -2.52,0 -3.35,-0.637 -3.35,-1.68 0,-1.476 1.46,-2.101 4.19,-2.101 8.38,0 21.6,0.625 26.41,0.625 5.46,0 18.66,-0.625 32.5,-0.625 2.31,0 3.99,0.625 3.99,2.101 0,1.043 -1.05,1.68 -3.35,1.68 -3.15,0 -7.77,0.418 -10.71,0.828 -6.29,0.84 -7.54,5.461 -8.16,11.328 -1.06,9.016 -1.06,25.586 -1.06,44.864 v 83.867 c 0,2.305 0.63,3.566 1.68,3.984 1.89,0.629 5.03,0.84 8.18,0.84 4.81,0 13.42,-1.258 20.96,-8.172 11.74,-10.488 12.37,-24.543 12.37,-31.457 0,-21.387 -16.35,-34.59 -28.09,-34.59 -4.41,0 -5.88,-0.625 -5.88,-2.304 0,-1.465 1.47,-1.68 2.52,-1.895 1.06,-0.203 3.36,-0.203 4.41,-0.203 29.77,0 51.57,20.965 51.57,50.73 0,11.114 -5.87,20.551 -10.48,24.957 -3.35,3.145 -12.79,11.95 -38.99,11.95 -9.65,0 -21.81,-0.633 -30.41,-0.633 -5.86,0 -19.08,0.633 -30.19,0.633 -3.14,0 -4.61,-0.418 -4.61,-1.887 0,-1.469 1.26,-1.891 3.57,-1.891 2.93,0 6.49,-0.207 8.17,-0.629 6.92,-1.464 8.59,-4.82 9.01,-11.949 0.42,-6.703 0.42,-12.582 0.42,-44.445 v -36.906"
         style="fill:#FFF;fill-opacity:1;fill-rule:evenodd;stroke:none"
         id="path24" /><path
         d="m 1521.66,165.098 c 0,-19.278 0,-35.848 -1.04,-44.649 -0.84,-6.082 -1.89,-10.703 -6.09,-11.543 -1.88,-0.41 -4.39,-0.828 -7.54,-0.828 -2.52,0 -3.36,-0.637 -3.36,-1.68 0,-1.476 1.47,-2.101 4.2,-2.101 8.38,0 21.59,0.625 26.41,0.625 5.45,0 18.67,-0.625 32.5,-0.625 2.3,0 3.98,0.625 3.98,2.101 0,1.043 -1.04,1.68 -3.35,1.68 -3.15,0 -7.76,0.418 -10.69,0.828 -6.29,0.84 -7.55,5.461 -8.18,11.328 -1.05,9.016 -1.05,25.586 -1.05,44.864 v 83.867 c 0,2.305 0.64,3.566 1.68,3.984 1.89,0.629 5.03,0.84 8.17,0.84 4.83,0 13.42,-1.258 20.97,-8.172 11.75,-10.488 12.37,-24.543 12.37,-31.457 0,-21.387 -16.35,-34.59 -28.09,-34.59 -4.41,0 -5.87,-0.625 -5.87,-2.304 0,-1.465 1.46,-1.68 2.52,-1.895 1.04,-0.203 3.35,-0.203 4.39,-0.203 29.78,0 51.59,20.965 51.59,50.73 0,11.114 -5.88,20.551 -10.49,24.957 -3.35,3.145 -12.8,11.95 -39.01,11.95 -9.63,0 -21.79,-0.633 -30.39,-0.633 -5.87,0 -19.08,0.633 -30.19,0.633 -3.15,0 -4.61,-0.418 -4.61,-1.887 0,-1.469 1.26,-1.891 3.56,-1.891 2.94,0 6.5,-0.207 8.18,-0.629 6.91,-1.464 8.59,-4.82 9.02,-11.949 0.41,-6.703 0.41,-12.582 0.41,-44.445 v -36.906"
         style="fill:#FFF;fill-opacity:1;fill-rule:evenodd;stroke:none"
         id="path26" /><path
         d="m 1655.66,169.512 c -0.84,0 -1.05,0.625 -0.84,1.465 l 19.29,51.574 c 0.21,0.84 0.64,1.883 1.26,1.883 0.63,0 0.84,-1.043 1.05,-1.883 l 18.87,-51.789 c 0.21,-0.625 0,-1.25 -1.05,-1.25 z m 42.56,-10.489 c 1.06,0 1.68,-0.418 2.09,-1.464 l 16.78,-44.454 c 1.05,-2.519 -0.41,-4.394 -1.88,-4.824 -2.1,-0.203 -2.94,-0.625 -2.94,-1.883 0,-1.476 2.52,-1.476 6.28,-1.679 16.78,-0.422 32.09,-0.422 39.63,-0.422 7.76,0 9.65,0.422 9.65,2.101 0,1.473 -1.05,1.68 -2.73,1.68 -2.51,0 -5.66,0.203 -8.8,0.828 -4.41,1.055 -10.48,3.985 -18.45,22.864 -13.42,31.863 -46.97,117.406 -52,128.937 -2.1,4.824 -3.35,6.707 -5.24,6.707 -2.09,0 -3.35,-2.301 -5.86,-8.387 l -52.64,-131.664 c -4.18,-10.488 -8.17,-17.617 -17.81,-18.867 -1.68,-0.215 -4.61,-0.418 -6.51,-0.418 -1.68,0 -2.52,-0.422 -2.52,-1.68 0,-1.679 1.27,-2.101 3.99,-2.101 10.91,0 22.44,0.625 24.74,0.625 6.51,0 15.51,-0.625 22.23,-0.625 2.31,0 3.56,0.422 3.56,2.101 0,1.258 -0.63,1.68 -3.15,1.68 h -3.14 c -6.5,0 -8.38,2.723 -8.38,6.492 0,2.52 1.04,7.559 3.14,12.793 l 11.32,29.981 c 0.42,1.261 0.84,1.679 1.88,1.679 h 46.76"
         style="fill:#FFF;fill-opacity:1;fill-rule:evenodd;stroke:none"
         id="path28" /><path
         d="m 1845.1,180.469 c 0,-24.219 0,-45.008 -1.31,-56.055 -1.06,-7.637 -2.37,-13.437 -7.64,-14.492 -2.36,-0.516 -5.52,-1.043 -9.47,-1.043 -3.16,0 -4.22,-0.793 -4.22,-2.102 0,-1.855 1.86,-2.636 5.27,-2.636 10.53,0 27.11,0.781 33.17,0.781 6.83,0 23.42,-0.781 40.79,-0.781 2.9,0 5,0.781 5,2.636 0,1.309 -1.32,2.102 -4.21,2.102 -3.94,0 -9.74,0.527 -13.43,1.043 -7.9,1.055 -9.47,6.855 -10.26,14.219 -1.31,11.32 -1.31,32.109 -1.31,56.328 v 105.285 c 0,2.894 0.78,4.473 2.1,5 2.37,0.789 6.32,1.055 10.26,1.055 6.06,0 16.85,-1.582 26.33,-10.266 14.74,-13.164 15.53,-30.801 15.53,-39.48 0,-26.848 -20.54,-43.43 -35.27,-43.43 -5.53,0 -7.38,-0.789 -7.38,-2.891 0,-1.855 1.85,-2.109 3.17,-2.383 1.32,-0.254 4.21,-0.254 5.52,-0.254 37.38,0 64.75,26.321 64.75,63.692 0,13.957 -7.37,25.797 -13.15,31.324 -4.22,3.949 -16.07,15.004 -48.97,15.004 -12.11,0 -27.36,-0.789 -38.16,-0.789 -7.37,0 -23.95,0.789 -37.89,0.789 -3.96,0 -5.8,-0.527 -5.8,-2.367 0,-1.848 1.58,-2.375 4.47,-2.375 3.69,0 8.16,-0.262 10.27,-0.789 8.67,-1.836 10.78,-6.051 11.31,-15 0.53,-8.422 0.53,-15.793 0.53,-55.797 v -46.328"
         style="fill:#FFF;fill-opacity:1;fill-rule:evenodd;stroke:none"
         id="path30" /><path
         d="m 2022.95,196.133 c -0.63,0 -1.25,0.422 -1.25,1.465 v 4.406 c 0,31.863 0,37.742 0.42,44.445 0.42,7.34 2.1,10.906 7.75,11.949 2.51,0.422 4.41,0.629 6.09,0.629 2.52,0 3.77,0.422 3.77,1.891 0,1.469 -1.47,1.887 -4.4,1.887 -8.18,0 -21.38,-0.633 -26.42,-0.633 -5.67,0 -18.87,0.633 -30.2,0.633 -2.93,0 -4.39,-0.418 -4.39,-1.887 0,-1.469 1.25,-1.891 3.56,-1.891 2.93,0 6.5,-0.207 8.17,-0.629 6.92,-1.464 8.6,-4.82 9.02,-11.949 0.42,-6.703 0.42,-12.582 0.42,-44.445 v -36.906 c 0,-19.278 0,-35.848 -1.06,-44.649 -0.83,-6.082 -1.87,-10.703 -6.07,-11.543 -1.89,-0.41 -4.4,-0.828 -7.55,-0.828 -2.51,0 -3.35,-0.637 -3.35,-1.68 0,-1.476 1.47,-2.101 4.2,-2.101 8.38,0 21.58,0.625 26.41,0.625 5.88,0 19.08,-0.625 32.71,-0.625 2.51,0 4.19,0.625 4.19,2.101 0,1.043 -1.04,1.68 -3.35,1.68 -3.14,0 -7.76,0.418 -10.7,0.828 -6.29,0.84 -7.54,5.461 -8.18,11.328 -1.04,9.016 -1.04,25.586 -1.04,44.864 v 18.457 c 0,1.047 0.62,1.25 1.25,1.25 h 80.1 c 0.62,0 1.25,-0.41 1.25,-1.25 v -18.457 c 0,-19.278 0,-35.848 -1.05,-44.649 -0.83,-6.082 -1.88,-10.703 -6.07,-11.543 -1.89,-0.41 -4.41,-0.828 -7.55,-0.828 -2.52,0 -3.36,-0.637 -3.36,-1.68 0,-1.476 1.47,-2.101 4.4,-2.101 8.18,0 21.39,0.625 26.21,0.625 5.87,0 19.08,-0.625 32.71,-0.625 2.52,0 4.2,0.625 4.2,2.101 0,1.043 -1.06,1.68 -3.36,1.68 -3.14,0 -7.75,0.418 -10.69,0.828 -6.29,0.84 -7.55,5.461 -8.18,11.328 -1.05,9.016 -1.05,25.586 -1.05,44.864 v 36.906 c 0,31.863 0,37.742 0.43,44.445 0.41,7.34 2.09,10.906 7.75,11.949 2.51,0.422 4.4,0.629 6.08,0.629 2.52,0 3.77,0.422 3.77,1.891 0,1.469 -1.47,1.887 -4.4,1.887 -8.18,0 -21.39,-0.633 -26.42,-0.633 -5.66,0 -18.87,0.633 -30.19,0.633 -2.94,0 -4.4,-0.418 -4.4,-1.887 0,-1.469 1.25,-1.891 3.56,-1.891 2.94,0 6.5,-0.207 8.17,-0.629 6.93,-1.464 8.61,-4.82 9.03,-11.949 0.41,-6.703 0.41,-12.582 0.41,-44.445 v -4.406 c 0,-1.043 -0.63,-1.465 -1.25,-1.465 h -80.1"
         style="fill:#FFF;fill-opacity:1;fill-rule:evenodd;stroke:none"
         id="path32" /><path
         d="m 2186.66,165.098 c 0,-20.332 0,-36.895 -1.04,-45.703 -0.64,-6.075 -1.89,-9.649 -6.09,-10.489 -1.88,-0.41 -4.39,-0.828 -7.54,-0.828 -2.52,0 -3.36,-0.637 -3.36,-1.68 0,-1.476 1.47,-2.101 4.2,-2.101 8.38,0 21.58,0.625 26.41,0.625 5.66,0 18.87,-0.625 32.71,-0.625 2.31,0 3.99,0.625 3.99,2.101 0,1.043 -1.06,1.68 -3.36,1.68 -3.15,0 -7.76,0.418 -10.7,0.828 -6.28,0.84 -7.75,4.621 -8.38,10.274 -0.84,9.023 -0.84,25.586 -0.84,45.918 v 36.906 c 0,31.863 0,37.742 0.43,44.445 0.41,7.34 2.09,10.906 7.75,11.949 2.52,0.422 4.19,0.629 6.29,0.629 2.09,0 3.36,0.422 3.36,2.102 0,1.258 -1.68,1.676 -4.42,1.676 -7.96,0 -20.33,-0.633 -25.57,-0.633 -6.09,0 -19.29,0.633 -27.26,0.633 -3.36,0 -5.03,-0.418 -5.03,-1.676 0,-1.68 1.26,-2.102 3.35,-2.102 2.52,0 5.26,-0.207 7.56,-0.832 4.61,-1.05 6.7,-4.617 7.13,-11.746 0.41,-6.703 0.41,-12.582 0.41,-44.445 v -36.906"
         style="fill:#FFF;fill-opacity:1;fill-rule:evenodd;stroke:none"
         id="path34" /><path
         d="m 221.391,471.73 c 2.691,0.352 5.324,0.176 7.789,-0.449 l -0.426,7.117 c -0.887,12.368 9.039,23.352 21.66,23.352 12.852,0 22.828,-11.027 21.789,-23.594 l -0.508,-8.445 c 9.086,2.215 18.789,-2.199 23.16,-10.656 11.262,3.793 23.602,-3.16 26.059,-15.129 6.234,0.441 12.441,-2.25 16.414,-7.074 9.59,5.836 21.863,2.781 27.613,-6.5 9.653,4.574 21.012,1.125 26.465,-7.723 l 4.164,4.691 c 20.172,23.305 54.118,-10.933 30.547,-30.894 l -6.328,-5.613 c 7.988,-4.86 11.731,-14.84 8.84,-23.915 10.644,-5.277 14.457,-18.918 7.73,-29.121 4.719,-4.093 7.2,-10.39 6.606,-16.609 10.906,-2.656 17.426,-13.488 14.926,-24.121 10.246,-3.656 15.82,-14.418 13.14,-24.645 l 6.465,0.383 c 12.363,0.887 23.344,-9.039 23.344,-21.656 0,-12.856 -11.02,-22.828 -23.594,-21.793 l -8.441,0.508 c 2.215,-9.082 -2.203,-18.789 -10.657,-23.164 3.79,-11.25 -3.164,-23.594 -15.125,-26.055 0.438,-6.23 -2.257,-12.441 -7.082,-16.414 5.836,-9.59 2.789,-21.867 -6.503,-27.609 4.582,-9.657 1.132,-21.016 -7.715,-26.465 l 4.695,-4.16 C 449.711,85.7813 415.473,51.8555 395.52,75.4219 L 389.902,81.75 C 385.051,73.7617 375.059,70.0195 365.996,72.9102 360.715,62.2656 347.07,58.457 336.871,65.1758 332.773,60.4609 326.48,57.9805 320.258,58.5742 317.598,47.668 306.773,41.1523 296.137,43.6523 292.504,33.4688 281.852,27.8906 271.66,30.4688 l 0.426,-7.129 C 272.969,10.9883 263.047,0 250.426,0 237.57,0 227.594,11.0273 228.637,23.5938 l 0.504,8.4375 c -9.086,-2.2071 -18.789,2.207 -23.153,10.664 -11.265,-3.789 -23.605,3.1563 -26.062,15.1289 -6.238,-0.4414 -12.442,2.2539 -16.418,7.0781 -9.59,-5.8398 -21.856,-2.7929 -27.61,6.4961 -9.652,-4.582 -21.011,-1.125 -26.464,7.7227 L 105.27,74.4336 C 85.082,51.1328 51.1523,85.3633 74.7227,105.324 l 6.3281,5.614 c -7.9922,4.863 -11.7305,14.843 -8.8438,23.906 -10.6445,5.285 -14.4531,18.926 -7.7304,29.121 -4.7188,4.101 -7.1993,10.39 -6.6055,16.621 -10.9063,2.656 -17.4258,13.477 -14.9219,24.121 -10.2422,3.652 -15.8203,14.414 -13.1406,24.641 l -6.4648,-0.383 C 10.9883,228.078 0,238.008 0,250.621 c 0,12.856 11.0195,22.832 23.5898,21.793 l 8.4454,-0.508 c -2.2149,9.086 2.2031,18.789 10.6562,23.157 -3.793,11.261 3.1602,23.601 15.125,26.054 -0.4375,6.242 2.2578,12.449 7.0781,16.422 -5.832,9.59 -2.7851,21.856 6.5039,27.609 -4.5781,9.657 -1.1289,21.008 7.7188,26.465 l -4.6914,4.164 c -23.3008,20.18 10.9375,54.118 30.8902,30.551 L 110.934,420 c 4.859,7.988 14.843,11.723 23.91,8.84 5.285,10.644 18.922,14.453 29.121,7.726 4.098,4.723 10.39,7.204 16.617,6.61 2.656,10.906 13.484,17.422 24.121,14.922 2.496,7.004 8.692,12.578 16.688,13.632"
         style="fill:#0b335e;fill-opacity:1;fill-rule:nonzero;stroke:none"
         id="path36" /><path
         d="m 245.707,370.414 -6.457,108.609 c -0.535,6.43 4.715,12.207 11.164,12.207 6.676,0 11.848,-5.738 11.309,-12.207 l -6.508,-108.679 -9.508,0.07"
         style="fill:#ae9855;fill-opacity:1;fill-rule:evenodd;stroke:none"
         id="path38" /><path
         d="m 259.375,352.441 6.992,97.668 c 0.278,5.801 5.641,10.336 11.399,9.579 5.957,-0.782 9.894,-6.512 8.656,-12.223 l -18.578,-96.211 -8.469,1.187"
         style="fill:#ae9855;fill-opacity:1;fill-rule:evenodd;stroke:none"
         id="path40" /><path
         d="m 272.992,350.543 18.699,91.117 c 0.981,5.43 6.59,9.039 11.918,7.613 5.516,-1.48 8.516,-7.363 6.641,-12.582 l -29.426,-88.316 -7.832,2.168"
         style="fill:#ae9855;fill-opacity:1;fill-rule:evenodd;stroke:none"
         id="path42" /><path
         d="m 284.57,343.605 28.907,83.497 c 1.601,4.988 7.336,7.695 12.171,5.691 5.012,-2.074 7.106,-7.992 4.696,-12.676 l -38.668,-79.527 -7.106,3.015"
         style="fill:#ae9855;fill-opacity:1;fill-rule:evenodd;stroke:none"
         id="path44" /><path
         d="m 310.441,336.172 54.883,81.074 c 3.137,4.879 10.051,6.133 14.656,2.598 4.766,-3.656 5.313,-10.586 1.387,-14.91 l -64.183,-74.02 -6.743,5.258"
         style="fill:#ae9855;fill-opacity:1;fill-rule:evenodd;stroke:none"
         id="path46" /><path
         d="m 297.492,340.648 41.641,83.172 c 2.351,4.989 8.703,7.02 13.48,4.266 4.946,-2.856 6.317,-9.316 3.16,-13.871 l -51.281,-77.68 -7,4.113"
         style="fill:#ae9855;fill-opacity:1;fill-rule:evenodd;stroke:none"
         id="path48" /><path
         d="m 331.203,338.977 72.231,81.367 c 4.168,4.922 11.961,5.297 16.523,0.734 4.723,-4.719 4.32,-12.433 -0.629,-16.629 l -81.461,-72.246 -6.664,6.774"
         style="fill:#ae9855;fill-opacity:1;fill-rule:evenodd;stroke:none"
         id="path50" /><path
         d="m 328.156,316.602 74.008,64.117 c 4.297,3.902 11.293,3.32 14.828,-1.285 3.656,-4.766 2.395,-11.602 -2.519,-14.762 l -81.168,-54.895 -5.149,6.825"
         style="fill:#ae9855;fill-opacity:1;fill-rule:evenodd;stroke:none"
         id="path52" /><path
         d="m 336.441,305.629 77.653,51.211 c 4.531,3.14 11.054,1.73 13.812,-3.047 2.852,-4.945 0.809,-11.223 -4.203,-13.594 l -83.258,-41.64 -4.004,7.07"
         style="fill:#ae9855;fill-opacity:1;fill-rule:evenodd;stroke:none"
         id="path54" /><path
         d="m 339.723,292.535 79.48,38.602 c 4.66,2.398 10.625,0.261 12.633,-4.582 2.074,-5.012 -0.625,-10.672 -5.645,-12.282 l -83.574,-28.89 -2.894,7.152"
         style="fill:#ae9855;fill-opacity:1;fill-rule:evenodd;stroke:none"
         id="path56" /><path
         d="m 352.758,268.988 96.133,18.524 c 5.675,1.23 11.445,-2.774 12.203,-8.528 0.785,-5.957 -3.727,-11.246 -9.559,-11.527 l -97.726,-6.953 -1.051,8.484"
         style="fill:#ae9855;fill-opacity:1;fill-rule:evenodd;stroke:none"
         id="path58" /><path
         d="m 346.77,281.313 88.253,29.367 c 5.192,1.859 11.125,-1.192 12.551,-6.52 1.481,-5.512 -2.121,-11.055 -7.578,-12.039 l -91.187,-18.672 -2.039,7.864"
         style="fill:#ae9855;fill-opacity:1;fill-rule:evenodd;stroke:none"
         id="path60" /><path
         d="m 369.508,255.832 108.613,6.457 c 6.426,0.535 12.207,-4.711 12.207,-11.16 0,-6.676 -5.742,-11.852 -12.207,-11.313 l -108.687,6.512 0.074,9.504"
         style="fill:#ae9855;fill-opacity:1;fill-rule:evenodd;stroke:none"
         id="path62" /><path
         d="m 351.535,242.168 97.664,-6.992 c 5.801,-0.281 10.344,-5.645 9.582,-11.406 -0.781,-5.957 -6.511,-9.883 -12.222,-8.653 l -96.207,18.574 1.183,8.477"
         style="fill:#ae9855;fill-opacity:1;fill-rule:evenodd;stroke:none"
         id="path64" /><path
         d="m 349.633,228.547 91.121,-18.703 c 5.43,-0.977 9.035,-6.582 7.609,-11.914 -1.476,-5.516 -7.363,-8.516 -12.582,-6.641 l -88.308,29.434 2.16,7.824"
         style="fill:#ae9855;fill-opacity:1;fill-rule:evenodd;stroke:none"
         id="path66" /><path
         d="m 342.695,216.973 83.5,-28.907 c 4.989,-1.601 7.692,-7.332 5.692,-12.175 -2.078,-5.012 -7.989,-7.102 -12.676,-4.7 l -79.527,38.672 3.011,7.11"
         style="fill:#ae9855;fill-opacity:1;fill-rule:evenodd;stroke:none"
         id="path68" /><path
         d="m 335.266,191.094 81.074,-54.883 c 4.883,-3.133 6.133,-10.039 2.598,-14.648 -3.661,-4.766 -10.586,-5.313 -14.911,-1.387 l -74.023,64.179 5.262,6.739"
         style="fill:#ae9855;fill-opacity:1;fill-rule:evenodd;stroke:none"
         id="path70" /><path
         d="m 339.746,204.043 83.164,-41.641 c 4.992,-2.343 7.028,-8.699 4.27,-13.476 -2.852,-4.942 -9.313,-6.317 -13.875,-3.153 l -77.68,51.278 4.121,6.992"
         style="fill:#ae9855;fill-opacity:1;fill-rule:evenodd;stroke:none"
         id="path72" /><path
         d="m 338.066,170.332 81.368,-72.2265 c 4.921,-4.168 5.296,-11.961 0.738,-16.5235 -4.723,-4.7265 -12.438,-4.3164 -16.633,0.6368 l -72.246,81.4532 6.773,6.66"
         style="fill:#ae9855;fill-opacity:1;fill-rule:evenodd;stroke:none"
         id="path74" /><path
         d="m 315.695,173.379 64.114,-74.004 c 3.906,-4.2969 3.328,-11.2891 -1.278,-14.8242 -4.769,-3.6602 -11.605,-2.4024 -14.765,2.5195 l -54.899,81.1637 6.828,5.145"
         style="fill:#ae9855;fill-opacity:1;fill-rule:evenodd;stroke:none"
         id="path76" /><path
         d="m 304.723,165.098 51.211,-77.6566 c 3.144,-4.5312 1.726,-11.0547 -3.047,-13.8086 -4.946,-2.8515 -11.227,-0.8086 -13.594,4.211 l -41.637,83.2502 7.067,4.004"
         style="fill:#ae9855;fill-opacity:1;fill-rule:evenodd;stroke:none"
         id="path78" /><path
         d="M 291.625,161.816 330.23,82.3359 c 2.399,-4.6601 0.258,-10.625 -4.585,-12.6289 -5.008,-2.0703 -10.668,0.625 -12.274,5.6446 l -28.898,83.5744 7.152,2.89"
         style="fill:#ae9855;fill-opacity:1;fill-rule:evenodd;stroke:none"
         id="path80" /><path
         d="m 268.082,148.781 18.52,-96.1326 c 1.23,-5.6757 -2.774,-11.4453 -8.524,-12.1992 -5.957,-0.789 -11.246,3.7305 -11.531,9.5508 l -6.953,97.734 8.488,1.047"
         style="fill:#ae9855;fill-opacity:1;fill-rule:evenodd;stroke:none"
         id="path82" /><path
         d="M 280.406,154.766 309.77,66.5156 c 1.863,-5.1875 -1.192,-11.125 -6.516,-12.5508 -5.516,-1.4726 -11.051,2.1211 -12.043,7.5782 l -18.668,91.191 7.863,2.032"
         style="fill:#ae9855;fill-opacity:1;fill-rule:evenodd;stroke:none"
         id="path84" /><path
         d="m 255.129,131.328 6.457,-108.6132 c 0.535,-6.4257 -4.711,-12.207 -11.16,-12.207 -6.68,0 -11.848,5.7422 -11.313,12.2188 l 6.512,108.6794 9.504,-0.078"
         style="fill:#ae9855;fill-opacity:1;fill-rule:evenodd;stroke:none"
         id="path86" /><path
         d="m 241.465,149.309 -6.996,-97.6684 c -0.278,-5.8008 -5.633,-10.3398 -11.391,-9.5781 -5.957,0.7813 -9.898,6.5117 -8.66,12.2148 l 18.574,96.2107 8.473,-1.179"
         style="fill:#ae9855;fill-opacity:1;fill-rule:evenodd;stroke:none"
         id="path88" /><path
         d="M 227.848,151.211 209.145,60.0898 c -0.981,-5.4296 -6.59,-9.0351 -11.918,-7.6093 -5.512,1.4765 -8.512,7.3633 -6.637,12.5781 l 29.426,88.3124 7.832,-2.16"
         style="fill:#ae9855;fill-opacity:1;fill-rule:evenodd;stroke:none"
         id="path90" /><path
         d="M 216.266,158.145 187.359,74.6484 c -1.597,-4.9882 -7.328,-7.6953 -12.171,-5.6914 -5.012,2.0782 -7.106,7.9883 -4.688,12.6758 l 38.66,79.5192 7.106,-3.007"
         style="fill:#ae9855;fill-opacity:1;fill-rule:evenodd;stroke:none"
         id="path92" /><path
         d="M 190.395,165.578 135.512,84.5039 c -3.137,-4.8828 -10.047,-6.1328 -14.653,-2.5976 -4.765,3.6601 -5.312,10.5859 -1.386,14.9101 l 64.183,74.0236 6.739,-5.262"
         style="fill:#ae9855;fill-opacity:1;fill-rule:evenodd;stroke:none"
         id="path94" /><path
         d="M 203.344,161.094 161.703,77.9297 c -2.351,-4.9883 -8.703,-7.0313 -13.48,-4.2656 -4.942,2.8515 -6.317,9.3047 -3.153,13.875 l 51.274,77.6759 7,-4.121"
         style="fill:#ae9855;fill-opacity:1;fill-rule:evenodd;stroke:none"
         id="path96" /><path
         d="M 169.633,162.773 97.4063,81.4063 c -4.168,-4.9219 -11.9649,-5.293 -16.5274,-0.7422 -4.7226,4.7265 -4.3164,12.4414 0.6367,16.6406 l 81.4534,72.2463 6.664,-6.778"
         style="fill:#ae9855;fill-opacity:1;fill-rule:evenodd;stroke:none"
         id="path98" /><path
         d="M 172.688,185.148 98.6758,121.035 c -4.2969,-3.906 -11.2969,-3.328 -14.8281,1.281 -3.6602,4.766 -2.3907,11.602 2.5156,14.754 l 81.1717,54.903 5.153,-6.825"
         style="fill:#ae9855;fill-opacity:1;fill-rule:evenodd;stroke:none"
         id="path100" /><path
         d="M 164.395,196.113 86.7422,144.902 c -4.5313,-3.132 -11.0469,-1.718 -13.8086,3.047 -2.8516,4.953 -0.8125,11.231 4.207,13.594 l 83.2504,41.641 4.004,-7.071"
         style="fill:#ae9855;fill-opacity:1;fill-rule:evenodd;stroke:none"
         id="path102" /><path
         d="M 161.117,209.219 81.6328,170.605 c -4.6601,-2.39 -10.6211,-0.253 -12.6289,4.59 -2.0742,5.012 0.625,10.664 5.6445,12.285 l 83.5746,28.887 2.894,-7.148"
         style="fill:#ae9855;fill-opacity:1;fill-rule:evenodd;stroke:none"
         id="path104" /><path
         d="M 148.082,232.754 51.9453,214.238 c -5.6758,-1.23 -11.4453,2.774 -12.2031,8.528 -0.7813,5.957 3.7305,11.238 9.5664,11.523 l 97.7224,6.961 1.051,-8.496"
         style="fill:#ae9855;fill-opacity:1;fill-rule:evenodd;stroke:none"
         id="path106" /><path
         d="M 154.066,220.43 65.8164,191.074 c -5.1914,-1.863 -11.125,1.192 -12.5547,6.516 -1.4726,5.515 2.1211,11.055 7.5781,12.039 l 91.1872,18.672 2.039,-7.871"
         style="fill:#ae9855;fill-opacity:1;fill-rule:evenodd;stroke:none"
         id="path108" /><path
         d="M 131.328,245.918 22.7188,239.453 c -6.4297,-0.527 -12.2071,4.719 -12.2071,11.168 0,6.68 5.7383,11.844 12.2071,11.313 l 108.6872,-6.512 -0.078,-9.504"
         style="fill:#ae9855;fill-opacity:1;fill-rule:evenodd;stroke:none"
         id="path110" /><path
         d="m 149.301,259.582 -97.6643,6.996 c -5.7969,0.277 -10.3359,5.641 -9.582,11.391 0.7891,5.961 6.5156,9.898 12.2226,8.664 l 96.2107,-18.582 -1.187,-8.469"
         style="fill:#ae9855;fill-opacity:1;fill-rule:evenodd;stroke:none"
         id="path112" /><path
         d="m 151.203,273.199 -91.121,18.696 c -5.4257,0.988 -9.0351,6.597 -7.6054,11.925 1.4726,5.512 7.3593,8.508 12.582,6.641 l 88.3124,-29.43 -2.168,-7.832"
         style="fill:#ae9855;fill-opacity:1;fill-rule:evenodd;stroke:none"
         id="path114" /><path
         d="m 158.145,284.781 -83.5005,28.907 c -4.9922,1.597 -7.6953,7.328 -5.6875,12.171 2.0743,5.012 7.9883,7.106 12.6758,4.692 l 79.5232,-38.664 -3.011,-7.106"
         style="fill:#ae9855;fill-opacity:1;fill-rule:evenodd;stroke:none"
         id="path116" /><path
         d="m 165.57,310.648 -81.0661,54.883 c -4.8828,3.141 -6.1328,10.051 -2.6055,14.657 3.6641,4.765 10.5938,5.312 14.9141,1.386 l 74.0235,-64.179 -5.266,-6.747"
         style="fill:#ae9855;fill-opacity:1;fill-rule:evenodd;stroke:none"
         id="path118" /><path
         d="M 161.094,297.699 77.9258,339.34 c -4.9922,2.355 -7.0235,8.707 -4.2617,13.484 2.8515,4.942 9.3086,6.317 13.8711,3.153 l 77.6758,-51.274 -4.117,-7.004"
         style="fill:#ae9855;fill-opacity:1;fill-rule:evenodd;stroke:none"
         id="path120" /><path
         d="m 162.77,331.41 -81.3637,72.235 c -4.9258,4.168 -5.3008,11.96 -0.7383,16.523 4.7187,4.719 12.4336,4.316 16.6289,-0.637 l 72.2501,-81.453 -6.777,-6.668"
         style="fill:#ae9855;fill-opacity:1;fill-rule:evenodd;stroke:none"
         id="path122" /><path
         d="m 185.141,328.359 -64.11,74.008 c -3.906,4.297 -3.324,11.301 1.278,14.832 4.773,3.66 11.609,2.395 14.765,-2.519 l 54.895,-81.164 -6.828,-5.157"
         style="fill:#ae9855;fill-opacity:1;fill-rule:evenodd;stroke:none"
         id="path124" /><path
         d="m 196.117,336.652 -51.211,77.649 c -3.144,4.531 -1.726,11.051 3.047,13.808 4.942,2.86 11.227,0.817 13.594,-4.203 l 41.637,-83.25 -7.067,-4.004"
         style="fill:#ae9855;fill-opacity:1;fill-rule:evenodd;stroke:none"
         id="path126" /><path
         d="m 209.211,339.926 -38.606,79.488 c -2.398,4.66 -0.253,10.625 4.586,12.629 5.008,2.074 10.672,-0.625 12.282,-5.645 l 28.89,-83.574 -7.152,-2.898"
         style="fill:#ae9855;fill-opacity:1;fill-rule:evenodd;stroke:none"
         id="path128" /><path
         d="m 232.754,352.969 -18.516,96.133 c -1.23,5.675 2.77,11.445 8.528,12.203 5.957,0.785 11.238,-3.731 11.523,-9.567 l 6.957,-97.722 -8.492,-1.047"
         style="fill:#ae9855;fill-opacity:1;fill-rule:evenodd;stroke:none"
         id="path130" /><path
         d="m 220.43,346.977 -29.36,88.257 c -1.867,5.192 1.188,11.118 6.516,12.551 5.516,1.473 11.051,-2.121 12.039,-7.578 l 18.672,-91.187 -7.867,-2.043"
         style="fill:#ae9855;fill-opacity:1;fill-rule:evenodd;stroke:none"
         id="path132" /><path
         d="m 91.9492,250.898 c 0,87.524 70.9458,158.473 158.4728,158.473 87.519,0 158.469,-70.949 158.469,-158.473 0,-87.519 -70.95,-158.4644 -158.469,-158.4644 -87.527,0 -158.4728,70.9454 -158.4728,158.4644"
         style="fill:#0b335e;fill-opacity:1;fill-rule:evenodd;stroke:none"
         id="path134" /><path
         d="m 122.5,324.602 c 25.91,41.136 77.383,72.64 129.59,72.64 52.398,0 100.875,-31.711 126.73,-73.101 z M 377.309,174.406 c -26.106,-40.07 -75.493,-69.894 -126.887,-69.894 -51.836,0 -100.715,30.273 -126.719,70.918 l 253.606,-1.024"
         style="fill:#ffffff;fill-opacity:1;fill-rule:evenodd;stroke:none"
         id="path136" /><path
         d="m 237.063,382.621 c -3.762,-2.844 -12.028,-16.926 -20.348,-31.101 8.699,-0.961 18.633,-1.582 30.035,-1.692 v 32.078 c -3.016,0.196 -6.691,0.313 -9.687,0.715 z m -23.555,-36.613 c -6.906,-11.961 -12.805,-22.754 -14.043,-25.164 l -5.195,2.683 c 0,0 6.789,13.145 12.617,23.383 -9.043,1.371 -16.641,3.125 -23.125,5.024 -1.969,0.582 -3.828,1.171 -5.598,1.769 -7.859,-9.172 -23.676,-30.988 -23.734,-31.074 l -6.68,1.043 c 0,0 7.762,10.469 13.121,17.551 3.738,4.945 7.981,10.437 11.449,14.601 -8.281,3.223 -14.097,6.403 -18.882,8.531 l 2.375,5.344 c 5.085,-2.265 11.355,-5.761 20.628,-9.191 4.364,4.543 22.45,22.246 31.676,29.805 -3.191,1.21 -6.34,2.55 -9.449,4.015 l 2.496,5.281 c 33.41,-15.75 71.957,-16.23 105.848,-1.117 l 2.379,-5.336 c -3.653,-1.633 -7.969,-2.676 -11.715,-3.961 7.754,-6.636 22.289,-20.922 29.375,-28.175 13.156,4.343 20.41,8.41 21.859,8.953 l 2.051,-5.469 c -1.367,-0.52 -7.824,-4.102 -19.445,-8.141 8.343,-9.035 18.953,-24.75 26.156,-34.672 l -8.031,1.731 c 0,0 -4.168,5.738 -9.207,12.398 -5.325,7.035 -10.204,12.856 -15.332,18.45 l -1.543,-0.469 c -8.086,-2.41 -17.918,-4.778 -29.516,-6.59 5.332,-10.57 12.16,-26.098 12.16,-26.098 l -5.351,-2.347 c 0,0 -7.579,17.261 -12.918,27.574 -10.473,-1.379 -22.254,-2.274 -35.34,-2.363 v -25.465 h -5.844 v 25.472 c -12.734,0.121 -23.711,0.864 -33.242,2.024 z m -3.445,6.34 c 0.773,1.269 1.484,2.41 2.121,3.359 2.8,4.207 12.203,20.176 18.746,28.184 -5.485,1.027 -10.914,2.398 -16.262,4.121 -4.695,-2.918 -24.457,-21.907 -32.105,-29.602 0.917,-0.293 1.867,-0.582 2.843,-0.867 6.746,-1.98 14.828,-3.813 24.657,-5.195 z m 61.14,30.234 c 7.61,-8.816 17.813,-26.121 19.817,-29.656 l 0.136,-0.238 c 11.594,1.707 21.418,3.996 29.481,6.339 -3.895,4.059 -8.02,8.141 -12.657,12.645 -7.335,7.117 -14.023,13.328 -16.378,15.023 -6.715,-1.91 -13.536,-3.281 -20.399,-4.113 z m 13.692,-30.742 c -4.305,7.293 -15.801,25.875 -20.711,30.051 -3.719,-0.239 -7.864,-0.309 -11.59,-0.235 V 349.82 c 11.879,0.082 22.644,0.844 32.301,2.02"
         style="fill:#0b335e;fill-opacity:1;fill-rule:nonzero;stroke:none"
         id="path138" /><path
         d="m 284.082,150.762 c -9.062,0.996 -19.461,1.621 -31.469,1.699 v -32.012 c 3.559,-0.195 6.551,-0.457 10.086,-0.937 0,0 12.879,16.816 21.383,31.25 z m 3.219,5.293 c 6.898,11.914 11.137,22.734 12.39,25.168 l 5.196,-2.688 c 0,0 -5.121,-13.144 -10.946,-23.379 9.043,-1.375 16.645,-3.125 23.125,-5.027 1.969,-0.578 3.829,-1.164 5.594,-1.77 7.863,9.172 22.34,29.063 22.403,29.153 l 4.722,-3.438 c 0,0 -4.472,-6.144 -9.828,-13.234 -3.742,-4.942 -7.984,-10.438 -11.449,-14.598 8.281,-3.222 14.094,-6.406 18.879,-8.535 l -2.371,-5.344 c -5.09,2.266 -11.352,5.762 -20.625,9.2 -4.368,-4.551 -21.871,-22.547 -31.094,-30.106 3.183,-1.211 5.75,-2.258 8.863,-3.723 l -2.492,-5.281 c -33.418,15.75 -71.957,16.231 -105.855,1.121 l -2.375,5.332 c 3.652,1.633 7.351,3.086 11.097,4.367 -7.754,6.629 -21.672,20.516 -28.762,27.774 -13.152,-4.348 -20.41,-8.41 -21.859,-8.957 l -2.051,5.469 c 1.367,0.519 7.825,4.101 19.45,8.144 -8.344,9.024 -15.657,19.59 -22.852,29.512 l 4.727,3.43 c 0,0 4.164,-5.735 9.203,-12.403 5.328,-7.043 10.207,-12.863 15.332,-18.449 l 1.543,0.469 c 8.086,2.414 17.922,4.785 29.515,6.582 -5.332,10.586 -12.156,26.105 -12.156,26.105 l 5.352,2.352 c 0,0 7.578,-17.266 12.914,-27.578 10.082,1.328 21.379,2.207 33.882,2.355 v 25.371 h 5.84 v -25.363 c 13.348,-0.078 24.801,-0.828 34.688,-2.031 z m 3.461,-6.133 c -0.77,-1.27 -1.485,-2.402 -2.117,-3.359 -2.864,-4.297 -12.52,-20.567 -19,-28.133 5.57,-1.028 11.648,-2.727 17.078,-4.465 4.699,2.91 23.894,22.207 31.539,29.902 -0.918,0.293 -1.864,0.578 -2.84,0.86 -6.75,1.984 -14.832,3.808 -24.66,5.195 z m -61.133,-30.234 c -7.617,8.82 -17.816,26.125 -19.824,29.66 l -0.137,0.242 c -11.59,-1.719 -21.41,-4.004 -29.477,-6.348 3.891,-4.051 8.016,-8.144 12.657,-12.637 7.332,-7.117 14.023,-13.328 16.375,-15.019 6.715,1.906 13.535,3.273 20.406,4.102 z m -13.695,30.742 c 4.3,-7.285 16.031,-26.133 21.121,-30.059 3.238,0.215 6.48,0.293 9.718,0.266 v 31.804 c -11.304,-0.136 -21.582,-0.878 -30.839,-2.011"
         style="fill:#0b335e;fill-opacity:1;fill-rule:nonzero;stroke:none"
         id="path140" /><path
         d="m 236.73,245.324 c 0.102,-2.16 0.364,-26.504 0.364,-26.504 0,-4.504 -0.149,-6.496 1.355,-8.222 1.465,-1.672 9.285,-1.907 12.309,-1.907 V 201.23 H 204.34 v 7.715 h 3.211 c 4.797,0 7.347,0.899 8.496,1.993 1.117,1.066 2.039,3.359 2.039,7.726 v 61.191 c 0,5.418 -0.992,7.981 -1.969,8.887 -2.179,2.121 -8.574,2.117 -11.57,2.192 v 7.652 h 46.621 v -7.57 c -3.137,-0.078 -10.727,0.16 -12.406,-1.981 -1.59,-2.027 -1.34,-3.887 -1.34,-9.18 v -24.347 c 0.141,0.168 23.851,23.43 23.851,23.43 2.243,2.238 7.579,8.539 7.579,8.539 0.328,0.425 0.886,0.925 0.73,1.597 -0.137,0.617 -0.879,0.942 -1.187,1.106 -2.403,0.937 -6.762,0.703 -8.872,0.816 v 7.59 h 41.899 v -7.637 c -4.68,-0.148 -8.77,-0.422 -13.106,-2.441 -3.011,-1.426 -6.718,-4.215 -11.152,-8.555 l -24.406,-23.898 39.523,-38.992 c 3.223,-3.184 5.84,-5.286 7.891,-6.458 2.047,-1.132 4.023,-1.66 5.973,-1.66 h 2.453 v -7.715 h -48.325 v 7.461 c 0,0 3.219,-0.097 6.973,0.422 2.102,0.274 3.442,0.321 3.586,1.602 0.09,0.848 -1.613,2.293 -3,3.68 l -29.691,29.55 c -0.434,0.461 -1.203,1.364 -1.411,1.379"
         style="fill:#ffffff;fill-opacity:1;fill-rule:nonzero;stroke:none"
         id="path142" /><path
         d="m 334.238,218.105 c -11.625,1.133 -21.101,4.258 -28.238,9.543 -7.676,5.77 -11.633,13.329 -11.633,22.532 0,9.636 3.879,17.414 11.567,23.133 7.086,5.308 16.601,8.226 28.336,8.968 v 1.016 c -0.243,3.305 -1.036,4.961 -1.844,5.66 -2.172,1.953 -9.063,1.906 -12.039,1.953 v 7.676 h 47.093 v -7.672 c -2.957,-0.051 -9.714,0.004 -11.89,-1.945 -0.828,-0.746 -1.613,-2.422 -1.805,-5.684 l -0.004,-1.008 c 11.664,-0.742 21.121,-3.632 28.153,-8.898 7.691,-5.723 11.566,-13.524 11.574,-23.199 0,-9.203 -3.961,-16.762 -11.637,-22.532 -7.101,-5.285 -16.539,-8.418 -28.129,-9.543 v -1.171 c 0.141,-3.399 1,-5.176 2.012,-6.043 2.426,-2.004 8.605,-1.934 11.726,-1.985 v -7.676 h -47.093 v 7.676 c 3.133,0.051 9.457,-0.019 11.863,2.043 0.973,0.867 1.813,2.656 1.984,5.985 z m 0.032,55.786 c -6.25,-1.036 -10.793,-3.325 -13.879,-6.68 -3.504,-3.852 -5.414,-9.453 -5.414,-17.16 0,-7.766 1.914,-13.36 5.406,-17.16 3.078,-3.321 7.621,-5.536 13.887,-6.477 z m 19.472,-0.004 v -47.489 c 6.117,0.868 10.571,3.086 13.606,6.415 3.535,3.847 5.476,9.484 5.48,17.238 0,7.707 -1.918,13.32 -5.422,17.168 -3.008,3.34 -7.48,5.629 -13.664,6.668"
         style="fill:#ffffff;fill-opacity:1;fill-rule:nonzero;stroke:none"
         id="path144" /><path
         d="m 147.207,218.105 c -11.625,1.133 -21.102,4.258 -28.238,9.543 -7.676,5.77 -11.633,13.329 -11.633,22.532 0,9.636 3.879,17.414 11.566,23.133 7.086,5.308 16.598,8.226 28.336,8.968 v 1.016 c -0.242,3.305 -1.035,4.961 -1.843,5.66 -2.176,1.953 -9.059,1.906 -12.04,1.953 v 7.676 h 47.094 v -7.672 c -2.957,-0.051 -9.715,0.004 -11.89,-1.945 -0.829,-0.746 -1.614,-2.422 -1.805,-5.684 l -0.004,-1.008 c 11.664,-0.742 21.121,-3.632 28.152,-8.898 7.692,-5.723 11.567,-13.524 11.567,-23.199 0,-9.203 -3.953,-16.762 -11.629,-22.532 -7.102,-5.285 -16.539,-8.418 -28.129,-9.543 v -1.171 c 0.141,-3.399 1,-5.176 2.004,-6.043 2.43,-2.004 8.613,-1.934 11.734,-1.985 v -7.676 h -47.094 v 7.676 c 3.133,0.051 9.458,-0.019 11.86,2.043 0.98,0.867 1.816,2.656 1.988,5.985 z m 0.031,55.786 c -6.25,-1.036 -10.793,-3.325 -13.883,-6.68 -3.5,-3.852 -5.41,-9.453 -5.41,-17.16 0,-7.766 1.914,-13.36 5.407,-17.16 3.078,-3.321 7.621,-5.536 13.886,-6.477 z m 19.473,-0.004 v -47.489 c 6.117,0.868 10.57,3.086 13.605,6.415 3.536,3.847 5.477,9.484 5.477,17.238 0,7.707 -1.914,13.32 -5.418,17.168 -3.008,3.34 -7.48,5.629 -13.664,6.668"
         style="fill:#ffffff;fill-opacity:1;fill-rule:nonzero;stroke:none"
         id="path146" /><path
         d="m 584.543,367.824 c 0,-7.336 0,-13.633 -0.398,-16.98 -0.239,-2.313 -0.715,-4.067 -2.313,-4.383 -0.719,-0.16 -1.672,-0.316 -2.867,-0.316 -0.957,0 -1.277,-0.243 -1.277,-0.641 0,-0.559 0.558,-0.797 1.593,-0.797 3.192,0 8.211,0.238 10.047,0.238 2.227,0 7.25,-0.238 12.508,-0.238 0.879,0 1.516,0.238 1.516,0.797 0,0.398 -0.399,0.641 -1.278,0.641 -1.195,0 -2.949,0.156 -4.062,0.316 -2.391,0.316 -2.871,2.07 -3.11,4.301 -0.398,3.429 -0.398,9.726 -0.398,17.062 V 400.5 l 10.043,-0.242 c 7.094,-0.16 9.242,-2.391 9.402,-4.461 l 0.078,-0.879 c 0.086,-1.195 0.243,-1.598 0.879,-1.598 0.481,0 0.641,0.485 0.719,1.282 0,2.07 0.238,7.566 0.238,9.242 0,1.195 -0.082,1.676 -0.636,1.676 -0.637,0 -2.551,-0.797 -7.653,-0.797 h -31.558 c -2.633,0 -5.661,0.156 -7.973,0.394 -1.992,0.16 -2.789,0.957 -3.422,0.957 -0.48,0 -0.719,-0.476 -0.957,-1.511 -0.16,-0.637 -1.676,-7.891 -1.676,-9.168 0,-0.879 0.16,-1.274 0.719,-1.274 0.477,0 0.715,0.317 0.871,0.957 0.164,0.637 0.563,1.594 1.36,2.789 1.195,1.754 3.105,2.153 7.73,2.309 l 11.875,0.324 v -32.676"
         style="fill:#FFF;fill-opacity:1;fill-rule:evenodd;stroke:none"
         id="path148" /><path
         d="m 670.207,379.613 c -0.242,0 -0.48,0.164 -0.48,0.559 v 1.676 c 0,12.113 0,14.343 0.16,16.894 0.156,2.793 0.797,4.145 2.949,4.543 0.953,0.156 1.672,0.242 2.312,0.242 0.957,0 1.434,0.157 1.434,0.715 0,0.559 -0.562,0.719 -1.676,0.719 -3.109,0 -8.129,-0.238 -10.043,-0.238 -2.148,0 -7.172,0.238 -11.472,0.238 -1.121,0 -1.676,-0.16 -1.676,-0.719 0,-0.558 0.476,-0.715 1.355,-0.715 1.114,0 2.473,-0.086 3.106,-0.242 2.633,-0.555 3.273,-1.836 3.429,-4.543 0.161,-2.551 0.161,-4.781 0.161,-16.894 v -14.024 c 0,-7.336 0,-13.633 -0.399,-16.98 -0.32,-2.313 -0.719,-4.067 -2.312,-4.383 -0.715,-0.16 -1.672,-0.316 -2.871,-0.316 -0.957,0 -1.274,-0.243 -1.274,-0.641 0,-0.559 0.559,-0.797 1.598,-0.797 3.183,0 8.207,0.238 10.039,0.238 2.23,0 7.25,-0.238 12.43,-0.238 0.957,0 1.597,0.238 1.597,0.797 0,0.398 -0.398,0.641 -1.273,0.641 -1.196,0 -2.949,0.156 -4.067,0.316 -2.394,0.316 -2.867,2.07 -3.105,4.301 -0.402,3.429 -0.402,9.726 -0.402,17.062 v 7.012 c 0,0.398 0.238,0.477 0.48,0.477 h 30.441 c 0.243,0 0.481,-0.161 0.481,-0.477 v -7.012 c 0,-7.336 0,-13.633 -0.402,-16.98 -0.317,-2.313 -0.715,-4.067 -2.309,-4.383 -0.719,-0.16 -1.676,-0.316 -2.867,-0.316 -0.957,0 -1.278,-0.243 -1.278,-0.641 0,-0.559 0.563,-0.797 1.676,-0.797 3.106,0 8.129,0.238 9.961,0.238 2.231,0 7.254,-0.238 12.434,-0.238 0.953,0 1.594,0.238 1.594,0.797 0,0.398 -0.403,0.641 -1.274,0.641 -1.199,0 -2.949,0.156 -4.07,0.316 -2.387,0.316 -2.864,2.07 -3.106,4.301 -0.398,3.429 -0.398,9.726 -0.398,17.062 v 14.024 c 0,12.113 0,14.343 0.16,16.894 0.16,2.793 0.797,4.145 2.949,4.543 0.957,0.156 1.672,0.242 2.309,0.242 0.957,0 1.437,0.157 1.437,0.715 0,0.559 -0.558,0.719 -1.675,0.719 -3.106,0 -8.129,-0.238 -10.043,-0.238 -2.149,0 -7.172,0.238 -11.473,0.238 -1.117,0 -1.672,-0.16 -1.672,-0.719 0,-0.558 0.473,-0.715 1.352,-0.715 1.117,0 2.472,-0.086 3.105,-0.242 2.633,-0.555 3.274,-1.836 3.43,-4.543 0.16,-2.551 0.16,-4.781 0.16,-16.894 v -1.676 c 0,-0.395 -0.238,-0.559 -0.481,-0.559 h -30.441"
         style="fill:#FFF;fill-opacity:1;fill-rule:evenodd;stroke:none"
         id="path150" /><path
         d="m 766.465,367.824 c 0,-7.336 0,-13.633 -0.399,-16.98 -0.32,-2.313 -0.718,-4.067 -2.312,-4.383 -0.715,-0.16 -1.672,-0.316 -2.871,-0.316 -0.957,0 -1.274,-0.243 -1.274,-0.641 0,-0.559 0.559,-0.797 1.598,-0.797 3.184,0 8.207,0.238 10.039,0.238 4.703,0 10.043,-0.476 22.078,-0.476 3.024,0 3.742,0 4.305,2.074 0.394,1.594 1.035,7.012 1.035,8.844 0,0.801 0,1.433 -0.641,1.433 -0.558,0 -0.718,-0.316 -0.875,-1.195 -0.554,-3.266 -1.511,-4.941 -3.589,-5.898 -2.071,-0.957 -5.418,-0.957 -7.489,-0.957 -8.129,0 -9.402,1.195 -9.566,6.699 -0.078,2.308 0,9.64 0,12.355 v 6.293 c 0,0.477 0.082,0.797 0.48,0.797 1.914,0 9.805,-0.078 11.317,-0.242 2.949,-0.317 4.062,-1.512 4.465,-3.106 0.238,-1.039 0.238,-2.074 0.316,-2.871 0,-0.394 0.16,-0.715 0.719,-0.715 0.715,0 0.715,0.879 0.715,1.512 0,0.559 0.164,3.746 0.32,5.344 0.238,4.062 0.637,5.336 0.637,5.812 0,0.481 -0.239,0.641 -0.555,0.641 -0.402,0 -0.719,-0.398 -1.273,-1.035 -0.719,-0.801 -1.915,-1.039 -3.829,-1.195 -1.832,-0.161 -10.996,-0.161 -12.753,-0.161 -0.477,0 -0.559,0.317 -0.559,0.879 v 20.161 c 0,0.562 0.164,0.796 0.559,0.796 1.593,0 9.964,-0.156 11.316,-0.32 3.984,-0.476 4.785,-1.434 5.344,-2.863 0.394,-0.957 0.476,-2.317 0.476,-2.871 0,-0.719 0.16,-1.114 0.719,-1.114 0.555,0 0.719,0.473 0.797,0.872 0.16,0.957 0.316,4.464 0.394,5.261 0.239,3.664 0.641,4.621 0.641,5.18 0,0.398 -0.078,0.719 -0.48,0.719 -0.395,0 -0.879,-0.243 -1.274,-0.321 -0.637,-0.16 -1.914,-0.316 -3.43,-0.476 -1.511,-0.078 -17.371,-0.078 -19.921,-0.078 -2.231,0 -7.254,0.238 -11.477,0.238 -1.191,0 -1.754,-0.16 -1.754,-0.719 0,-0.558 0.477,-0.715 1.356,-0.715 1.113,0 2.472,-0.086 3.105,-0.242 2.633,-0.555 3.27,-1.836 3.43,-4.543 0.16,-2.551 0.16,-4.781 0.16,-16.894 v -14.024"
         style="fill:#FFF;fill-opacity:1;fill-rule:evenodd;stroke:none"
         id="path152" /><path
         d="m 909.719,379.613 c -0.235,0 -0.477,0.164 -0.477,0.559 v 1.676 c 0,12.113 0,14.343 0.156,16.894 0.165,2.793 0.797,4.145 2.95,4.543 0.957,0.156 1.675,0.242 2.312,0.242 0.957,0 1.434,0.157 1.434,0.715 0,0.559 -0.555,0.719 -1.668,0.719 -3.113,0 -8.133,-0.238 -10.047,-0.238 -2.152,0 -7.172,0.238 -11.473,0.238 -1.117,0 -1.676,-0.16 -1.676,-0.719 0,-0.558 0.481,-0.715 1.356,-0.715 1.109,0 2.469,-0.086 3.109,-0.242 2.625,-0.555 3.266,-1.836 3.422,-4.543 0.16,-2.551 0.16,-4.781 0.16,-16.894 v -14.024 c 0,-7.336 0,-13.633 -0.394,-16.98 -0.324,-2.313 -0.719,-4.067 -2.317,-4.383 -0.714,-0.16 -1.671,-0.316 -2.871,-0.316 -0.949,0 -1.273,-0.243 -1.273,-0.641 0,-0.559 0.562,-0.797 1.598,-0.797 3.187,0 8.207,0.238 10.039,0.238 2.234,0 7.254,-0.238 12.437,-0.238 0.949,0 1.59,0.238 1.59,0.797 0,0.398 -0.395,0.641 -1.273,0.641 -1.196,0 -2.95,0.156 -4.063,0.316 -2.395,0.316 -2.871,2.07 -3.109,4.301 -0.399,3.429 -0.399,9.726 -0.399,17.062 v 7.012 c 0,0.398 0.242,0.477 0.477,0.477 h 30.449 c 0.234,0 0.473,-0.161 0.473,-0.477 v -7.012 c 0,-7.336 0,-13.633 -0.395,-16.98 -0.324,-2.313 -0.719,-4.067 -2.316,-4.383 -0.711,-0.16 -1.668,-0.316 -2.867,-0.316 -0.958,0 -1.274,-0.243 -1.274,-0.641 0,-0.559 0.559,-0.797 1.672,-0.797 3.109,0 8.129,0.238 9.965,0.238 2.23,0 7.25,-0.238 12.429,-0.238 0.958,0 1.594,0.238 1.594,0.797 0,0.398 -0.394,0.641 -1.273,0.641 -1.199,0 -2.949,0.156 -4.063,0.316 -2.394,0.316 -2.871,2.07 -3.109,4.301 -0.399,3.429 -0.399,9.726 -0.399,17.062 v 14.024 c 0,12.113 0,14.343 0.157,16.894 0.16,2.793 0.801,4.145 2.949,4.543 0.957,0.156 1.676,0.242 2.316,0.242 0.95,0 1.43,0.157 1.43,0.715 0,0.559 -0.559,0.719 -1.672,0.719 -3.109,0 -8.129,-0.238 -10.043,-0.238 -2.152,0 -7.172,0.238 -11.472,0.238 -1.122,0 -1.676,-0.16 -1.676,-0.719 0,-0.558 0.476,-0.715 1.351,-0.715 1.118,0 2.473,-0.086 3.11,-0.242 2.633,-0.555 3.269,-1.836 3.429,-4.543 0.157,-2.551 0.157,-4.781 0.157,-16.894 v -1.676 c 0,-0.395 -0.239,-0.559 -0.473,-0.559 h -30.449"
         style="fill:#FFF;fill-opacity:1;fill-rule:evenodd;stroke:none"
         id="path154" /><path
         d="m 1031.96,347.578 c -15.3,0 -24.46,13.149 -24.46,29.727 0,19.843 10.44,24.941 19.6,24.941 13.07,0 23.35,-11.074 23.35,-28.926 0,-23.035 -12.91,-25.742 -18.49,-25.742 z m -3.34,-3.988 c 20.24,0 32.99,14.43 32.99,32.68 0,18.246 -12.35,29.804 -32.2,29.804 -23.91,0 -32.914,-17.613 -32.914,-31.238 0,-14.109 9.244,-31.246 32.124,-31.246"
         style="fill:#FFF;fill-opacity:1;fill-rule:evenodd;stroke:none"
         id="path156" /><path
         d="m 1111.51,389.02 h 0.24 c 1.43,-1.516 10.27,-11.477 18.95,-20.082 8.28,-8.211 18.48,-18.653 23.5,-23.434 0.87,-0.875 1.83,-1.754 2.7,-1.754 0.72,0 1.04,0.719 1.04,2.473 l 0.87,50.285 c 0.09,4.469 0.72,6.14 2.95,6.777 0.96,0.242 1.6,0.242 2.4,0.242 0.96,0 1.43,0.239 1.43,0.715 0,0.637 -0.79,0.719 -1.83,0.719 -3.91,0 -6.93,-0.238 -7.81,-0.238 -1.67,0 -5.5,0.238 -9.64,0.238 -1.19,0 -2.07,-0.082 -2.07,-0.719 0,-0.476 0.31,-0.715 1.27,-0.715 1.11,0 3.03,0 4.22,-0.48 1.91,-0.801 2.63,-2.313 2.71,-7.172 l 0.8,-35.785 h -0.41 c -1.35,1.273 -12.09,12.754 -17.51,18.172 -11.63,11.554 -23.73,24.547 -24.69,25.582 -1.37,1.433 -2.09,2.469 -2.97,2.469 -0.8,0 -1.04,-1.114 -1.04,-2.708 l -0.72,-47.183 c -0.08,-6.934 -0.4,-9.242 -2.47,-9.879 -1.12,-0.32 -2.55,-0.398 -3.59,-0.398 -0.79,0 -1.27,-0.165 -1.27,-0.641 0,-0.719 0.72,-0.797 1.75,-0.797 4.15,0 7.9,0.238 8.63,0.238 1.51,0 4.71,-0.238 9.89,-0.238 1.11,0 1.82,0.156 1.82,0.797 -0.02,0.476 -0.5,0.641 -1.37,0.641 -1.28,0 -2.8,0.078 -4.15,0.554 -1.59,0.559 -2.63,2.629 -2.79,8.848 l -0.84,33.473"
         style="fill:#FFF;fill-opacity:1;fill-rule:evenodd;stroke:none"
         id="path158" /><path
         d="m 1238.96,347.578 c -15.3,0 -24.47,13.149 -24.47,29.727 0,19.843 10.45,24.941 19.61,24.941 13.07,0 23.35,-11.074 23.35,-28.926 0,-23.035 -12.91,-25.742 -18.49,-25.742 z m -3.34,-3.988 c 20.24,0 32.99,14.43 32.99,32.68 0,18.246 -12.36,29.804 -32.2,29.804 -23.91,0 -32.91,-17.613 -32.91,-31.238 0,-14.109 9.24,-31.246 32.12,-31.246"
         style="fill:#FFF;fill-opacity:1;fill-rule:evenodd;stroke:none"
         id="path160" /><path
         d="m 1323.89,399.781 c 0,0.633 0.16,0.953 0.72,1.114 0.8,0.238 2.23,0.316 4.22,0.316 4.71,0 12.2,-3.266 12.2,-14.578 0,-6.539 -2.32,-10.207 -4.7,-11.961 -1.44,-1.035 -2.48,-1.352 -5.67,-1.352 -1.99,0 -4.37,0.235 -6.05,0.797 -0.56,0.238 -0.72,0.555 -0.72,1.434 z m -9.4,-31.957 c 0,-7.336 0,-13.633 -0.41,-16.98 -0.31,-2.313 -0.71,-4.067 -2.3,-4.383 -0.73,-0.16 -1.68,-0.316 -2.87,-0.316 -0.96,0 -1.27,-0.243 -1.27,-0.641 0,-0.559 0.55,-0.797 1.59,-0.797 3.19,0 8.21,0.238 9.72,0.238 1.2,0 7.09,-0.238 11.71,-0.238 1.04,0 1.61,0.238 1.61,0.797 0,0.398 -0.33,0.641 -0.96,0.641 -0.96,0 -2.72,0.156 -3.91,0.316 -2.39,0.316 -2.87,2.07 -3.1,4.383 -0.41,3.347 -0.41,9.644 -0.41,17.058 v 1.114 c 0,0.476 0.24,0.636 0.64,0.636 l 6.93,-0.16 c 0.56,0 1.04,-0.078 1.44,-0.554 1.04,-1.2 4.7,-6.618 7.89,-10.997 4.46,-6.14 7.49,-9.882 10.92,-11.718 2.07,-1.114 4.06,-1.516 8.52,-1.516 h 7.58 c 0.96,0 1.51,0.156 1.51,0.797 0,0.398 -0.32,0.641 -0.96,0.641 -0.64,0 -1.35,0.078 -2.23,0.238 -1.19,0.238 -4.46,0.797 -8.92,5.418 -4.71,4.937 -10.2,12.031 -17.3,20.957 8.05,6.539 10.52,11.961 10.52,17.859 0,5.336 -3.18,9.403 -5.41,10.918 -4.32,2.949 -9.65,3.426 -14.67,3.426 -2.48,0 -8.53,-0.238 -11.24,-0.238 -1.67,0 -6.69,0.238 -10.92,0.238 -1.2,0 -1.74,-0.16 -1.74,-0.719 0,-0.558 0.46,-0.715 1.34,-0.715 1.12,0 2.47,-0.086 3.11,-0.242 2.64,-0.555 3.27,-1.836 3.44,-4.543 0.15,-2.551 0.15,-4.781 0.15,-16.894 v -14.024"
         style="fill:#FFF;fill-opacity:1;fill-rule:evenodd;stroke:none"
         id="path162" /><path
         d="m 1464.36,343.59 c 4.22,0 8.69,0.719 12.67,3.269 5.74,3.746 7.5,9.246 7.5,13.868 0,7.574 -3.51,12.91 -13.07,20.324 l -2.24,1.676 c -6.61,5.019 -8.44,7.804 -8.44,11.472 0,4.781 3.58,8.207 9.47,8.207 5.19,0 7.5,-2.386 8.7,-3.906 1.68,-2.07 2.07,-4.539 2.07,-5.258 0,-0.957 0.24,-1.433 0.8,-1.433 0.63,0 0.88,0.636 0.88,2.39 0,6.215 0.31,8.531 0.31,9.567 0,0.554 -0.39,0.797 -1.12,0.957 -2.07,0.554 -5.42,1.351 -10.6,1.351 -11.07,0 -18.4,-6.293 -18.4,-15.062 0,-6.457 3.03,-12.032 11.8,-18.887 l 3.65,-2.871 c 6.62,-5.102 7.81,-8.844 7.81,-12.75 0,-4.223 -3.49,-9.086 -10.67,-9.086 -4.94,0 -9.64,2.152 -11.4,8.051 -0.4,1.351 -0.72,3.027 -0.72,4.062 0,0.633 -0.08,1.352 -0.8,1.352 -0.63,0 -0.87,-0.871 -0.95,-2.07 -0.09,-1.274 -0.4,-6.055 -0.4,-10.438 0,-1.754 0.24,-2.152 1.51,-2.711 3.43,-1.512 7.03,-2.074 11.64,-2.074"
         style="fill:#FFF;fill-opacity:1;fill-rule:evenodd;stroke:none"
         id="path164" /><path
         d="m 1559.49,347.578 c -15.31,0 -24.47,13.149 -24.47,29.727 0,19.843 10.45,24.941 19.61,24.941 13.07,0 23.35,-11.074 23.35,-28.926 0,-23.035 -12.91,-25.742 -18.49,-25.742 z m -3.36,-3.988 c 20.26,0 33.01,14.43 33.01,32.68 0,18.246 -12.36,29.804 -32.21,29.804 -23.9,0 -32.91,-17.613 -32.91,-31.238 0,-14.109 9.24,-31.246 32.11,-31.246"
         style="fill:#FFF;fill-opacity:1;fill-rule:evenodd;stroke:none"
         id="path166" /><path
         d="m 1664.34,343.59 c 5.1,0 11.16,0.562 14.35,1.836 1.35,0.554 1.67,0.957 2.07,2.308 0.8,2.711 1.76,9.645 1.76,10.602 0,0.641 -0.17,1.195 -0.72,1.195 -0.65,0 -0.8,-0.316 -1.04,-1.59 -0.32,-1.437 -1.36,-3.75 -2.71,-5.265 -3.19,-3.668 -7.49,-4.461 -14.58,-4.461 -10.69,0 -25.11,9.402 -25.11,28.371 0,7.73 1.51,15.305 7.33,20.641 3.51,3.187 8.05,4.941 14.98,4.941 7.34,0 13.55,-2.148 16.19,-4.941 1.99,-2.071 3.02,-4.86 3.1,-7.329 0,-1.117 0.16,-1.753 0.8,-1.753 0.71,0 0.88,0.636 0.96,1.832 0.16,1.597 0.08,5.976 0.23,8.609 0.16,2.785 0.4,3.742 0.4,4.379 0,0.476 -0.32,0.879 -1.2,0.961 -2.38,0.234 -4.94,0.953 -7.97,1.351 -3.66,0.481 -6.61,0.797 -11.55,0.797 -11.87,0 -19.44,-3.187 -25.18,-8.445 -7.65,-7.012 -9.33,-16.418 -9.33,-21.84 0,-7.73 2.08,-16.656 9.89,-23.508 7.25,-6.301 16.41,-8.691 27.33,-8.691"
         style="fill:#FFF;fill-opacity:1;fill-rule:evenodd;stroke:none"
         id="path168" /><path
         d="m 1728.79,367.824 c 0,-7.734 0,-14.031 -0.39,-17.379 -0.25,-2.308 -0.72,-3.668 -2.32,-3.984 -0.71,-0.16 -1.67,-0.316 -2.87,-0.316 -0.95,0 -1.28,-0.243 -1.28,-0.641 0,-0.559 0.57,-0.797 1.61,-0.797 3.18,0 8.2,0.238 10.03,0.238 2.15,0 7.17,-0.238 12.45,-0.238 0.86,0 1.5,0.238 1.5,0.797 0,0.398 -0.39,0.641 -1.27,0.641 -1.2,0 -2.95,0.156 -4.06,0.316 -2.4,0.316 -2.95,1.754 -3.2,3.906 -0.32,3.426 -0.32,9.723 -0.32,17.457 v 14.024 c 0,12.113 0,14.343 0.16,16.894 0.16,2.793 0.8,4.145 2.95,4.543 0.95,0.156 1.6,0.242 2.4,0.242 0.79,0 1.27,0.157 1.27,0.793 0,0.481 -0.64,0.641 -1.68,0.641 -3.03,0 -7.73,-0.238 -9.72,-0.238 -2.31,0 -7.33,0.238 -10.36,0.238 -1.27,0 -1.91,-0.16 -1.91,-0.641 0,-0.636 0.48,-0.793 1.27,-0.793 0.95,0 2,-0.086 2.87,-0.324 1.76,-0.394 2.56,-1.754 2.71,-4.461 0.16,-2.551 0.16,-4.781 0.16,-16.894 v -14.024"
         style="fill:#FFF;fill-opacity:1;fill-rule:evenodd;stroke:none"
         id="path170" /><path
         d="m 1794.04,367.824 c 0,-7.336 0,-13.633 -0.39,-16.98 -0.32,-2.313 -0.72,-4.067 -2.3,-4.383 -0.72,-0.16 -1.68,-0.316 -2.87,-0.316 -0.96,0 -1.28,-0.243 -1.28,-0.641 0,-0.559 0.55,-0.797 1.59,-0.797 3.18,0 8.2,0.238 10.04,0.238 4.71,0 10.04,-0.476 22.08,-0.476 3.03,0 3.74,0 4.31,2.074 0.39,1.594 1.03,7.012 1.03,8.844 0,0.801 0,1.433 -0.64,1.433 -0.55,0 -0.72,-0.316 -0.88,-1.195 -0.55,-3.266 -1.51,-4.941 -3.58,-5.898 -2.08,-0.957 -5.43,-0.957 -7.5,-0.957 -8.12,0 -9.39,1.195 -9.56,6.699 -0.08,2.308 0,9.64 0,12.355 v 6.293 c 0,0.477 0.08,0.797 0.48,0.797 1.91,0 9.81,-0.078 11.32,-0.242 2.95,-0.317 4.06,-1.512 4.46,-3.106 0.24,-1.039 0.24,-2.074 0.31,-2.871 0,-0.394 0.17,-0.715 0.73,-0.715 0.72,0 0.72,0.879 0.72,1.512 0,0.559 0.16,3.746 0.31,5.344 0.24,4.062 0.65,5.336 0.65,5.812 0,0.481 -0.25,0.641 -0.57,0.641 -0.39,0 -0.72,-0.398 -1.27,-1.035 -0.72,-0.801 -1.91,-1.039 -3.83,-1.195 -1.83,-0.161 -10.99,-0.161 -12.75,-0.161 -0.48,0 -0.56,0.317 -0.56,0.879 v 20.161 c 0,0.562 0.17,0.796 0.56,0.796 1.6,0 9.96,-0.156 11.32,-0.32 3.98,-0.476 4.77,-1.434 5.34,-2.863 0.39,-0.957 0.47,-2.317 0.47,-2.871 0,-0.719 0.16,-1.114 0.72,-1.114 0.57,0 0.72,0.473 0.8,0.872 0.16,0.957 0.31,4.464 0.39,5.261 0.25,3.664 0.65,4.621 0.65,5.18 0,0.398 -0.08,0.719 -0.48,0.719 -0.4,0 -0.88,-0.243 -1.28,-0.321 -0.64,-0.16 -1.92,-0.316 -3.42,-0.476 -1.52,-0.078 -17.38,-0.078 -19.93,-0.078 -2.24,0 -7.26,0.238 -11.48,0.238 -1.19,0 -1.75,-0.16 -1.75,-0.719 0,-0.558 0.48,-0.715 1.35,-0.715 1.13,0 2.47,-0.086 3.12,-0.242 2.62,-0.555 3.26,-1.836 3.42,-4.543 0.15,-2.551 0.15,-4.781 0.15,-16.894 v -14.024"
         style="fill:#FFF;fill-opacity:1;fill-rule:evenodd;stroke:none"
         id="path172" /><path
         d="m 1884.25,367.824 c 0,-7.336 0,-13.633 -0.4,-16.98 -0.24,-2.313 -0.72,-4.067 -2.32,-4.383 -0.71,-0.16 -1.67,-0.316 -2.86,-0.316 -0.95,0 -1.28,-0.243 -1.28,-0.641 0,-0.559 0.56,-0.797 1.59,-0.797 3.19,0 8.21,0.238 10.04,0.238 2.24,0 7.26,-0.238 12.52,-0.238 0.88,0 1.52,0.238 1.52,0.797 0,0.398 -0.4,0.641 -1.28,0.641 -1.19,0 -2.95,0.156 -4.06,0.316 -2.4,0.316 -2.88,2.07 -3.11,4.301 -0.4,3.429 -0.4,9.726 -0.4,17.062 V 400.5 l 10.04,-0.242 c 7.1,-0.16 9.25,-2.391 9.4,-4.461 l 0.08,-0.879 c 0.08,-1.195 0.24,-1.598 0.88,-1.598 0.48,0 0.64,0.485 0.72,1.282 0,2.07 0.24,7.566 0.24,9.242 0,1.195 -0.08,1.676 -0.64,1.676 -0.63,0 -2.55,-0.797 -7.64,-0.797 h -31.57 c -2.63,0 -5.66,0.156 -7.97,0.394 -1.99,0.16 -2.79,0.957 -3.43,0.957 -0.47,0 -0.72,-0.476 -0.96,-1.511 -0.16,-0.637 -1.67,-7.891 -1.67,-9.168 0,-0.879 0.17,-1.274 0.71,-1.274 0.49,0 0.73,0.317 0.88,0.957 0.16,0.637 0.57,1.594 1.36,2.789 1.2,1.754 3.11,2.153 7.72,2.309 l 11.89,0.324 v -32.676"
         style="fill:#FFF;fill-opacity:1;fill-rule:evenodd;stroke:none"
         id="path174" /><path
         d="m 1968.79,358.813 c 0,-1.274 0,-4.622 -0.24,-7.969 -0.15,-2.313 -0.87,-4.067 -2.47,-4.383 -0.71,-0.16 -1.67,-0.316 -2.79,-0.316 -0.87,0 -1.28,-0.243 -1.28,-0.641 0,-0.641 0.65,-0.797 1.76,-0.797 2.95,0 7.97,0.238 9.96,0.238 2.15,0 7.18,-0.238 12.2,-0.238 1.03,0 1.67,0.238 1.67,0.797 0,0.398 -0.39,0.641 -1.27,0.641 -1.11,0 -2.87,0.156 -3.99,0.316 -2.39,0.316 -3.1,2.07 -3.27,4.383 -0.24,3.347 -0.24,6.695 -0.24,7.969 v 6.539 c 0,2.628 0,5.097 1.2,7.968 1.43,3.43 12.59,22.153 15.22,25.344 1.76,2.152 2.63,3.109 4.3,3.906 1.2,0.633 2.72,0.957 3.52,0.957 0.88,0 1.5,0.239 1.5,0.793 0,0.481 -0.55,0.641 -1.43,0.641 -1.52,0 -6.77,-0.238 -8.53,-0.238 -2.31,0 -4.86,0.238 -7.48,0.238 -0.96,0 -1.37,-0.16 -1.37,-0.719 0,-0.476 0.72,-0.637 1.45,-0.801 1.34,-0.316 1.67,-1.195 1.67,-1.992 0,-1.035 -0.33,-2.386 -1.13,-4.14 -1.11,-2.469 -11.15,-20.004 -11.95,-21.918 -1.27,2.23 -12.43,21.441 -13.54,23.828 -0.56,1.117 -0.96,2.074 -0.96,2.711 0,0.64 0.4,1.273 1.12,1.433 1.19,0.321 1.75,0.403 1.75,0.879 0,0.481 -0.4,0.719 -1.2,0.719 -3.58,0 -6.85,-0.238 -8.53,-0.238 -2.62,0 -8.6,0.238 -10.04,0.238 -0.95,0 -1.51,-0.238 -1.51,-0.719 0,-0.558 0.56,-0.715 1.19,-0.715 0.96,0 2.32,-0.48 3.35,-1.035 1.52,-0.879 3.51,-2.871 5.5,-5.82 2.79,-4.149 13.48,-21.68 14.02,-22.957 1.05,-2.309 1.84,-4.063 1.84,-8.363 v -6.539"
         style="fill:#FFF;fill-opacity:1;fill-rule:evenodd;stroke:none"
         id="path176" /><path
         d="m 2122.5,347.578 c -15.29,0 -24.46,13.149 -24.46,29.727 0,19.843 10.44,24.941 19.6,24.941 13.07,0 23.36,-11.074 23.36,-28.926 0,-23.035 -12.91,-25.742 -18.5,-25.742 z m -3.34,-3.988 c 20.23,0 32.99,14.43 32.99,32.68 0,18.246 -12.35,29.804 -32.2,29.804 -23.91,0 -32.92,-17.613 -32.92,-31.238 0,-14.109 9.26,-31.246 32.13,-31.246"
         style="fill:#FFF;fill-opacity:1;fill-rule:evenodd;stroke:none"
         id="path178" /><path
         d="m 2208.07,374.277 c 0,0.559 0.16,0.715 0.56,0.715 1.35,0 9.81,0 11.8,-0.242 2.46,-0.316 3.66,-1.746 4.06,-2.863 0.31,-0.957 0.47,-1.914 0.47,-2.473 0,-0.555 0.17,-1.113 0.65,-1.113 0.8,0 0.8,0.793 0.8,1.515 0,0.555 0.15,4.219 0.31,5.813 0.23,2.473 0.64,4.465 0.64,4.941 0,0.481 -0.16,0.719 -0.48,0.719 -0.47,0 -0.64,-0.316 -1.04,-0.797 -0.79,-1.039 -1.91,-1.355 -3.42,-1.433 -1.12,-0.079 -2.23,-0.079 -3.59,-0.079 l -10.2,-0.082 c -0.49,0 -0.56,0.239 -0.56,0.715 v 19.926 c 0,0.875 0.24,1.117 0.72,1.117 l 12.26,-0.242 c 3.04,-0.078 4.71,-1.273 5.28,-2.387 0.47,-1.117 0.47,-2.39 0.47,-3.031 0.08,-0.875 0.24,-1.273 0.8,-1.273 0.55,0 0.72,0.476 0.8,1.117 0.15,0.957 0.31,5.66 0.39,6.453 0.24,2.07 0.64,3.027 0.64,3.586 0,0.398 -0.24,0.719 -0.56,0.719 -0.39,0 -0.79,-0.321 -1.27,-0.481 -0.8,-0.238 -1.76,-0.238 -3.26,-0.316 -1.84,-0.078 -18.02,-0.078 -21.05,-0.078 -2.31,0 -7.33,0.238 -11.47,0.238 -1.2,0 -1.84,-0.16 -1.84,-0.801 0,-0.476 0.56,-0.633 1.35,-0.633 1.12,0 2.48,-0.086 3.11,-0.242 2.63,-0.555 3.28,-1.836 3.43,-4.543 0.16,-2.551 0.16,-4.781 0.16,-16.894 v -14.024 c 0,-7.66 0,-13.633 -0.39,-16.98 -0.34,-2.313 -0.73,-4.067 -2.33,-4.383 -0.71,-0.16 -1.67,-0.316 -2.86,-0.316 -0.88,0 -1.2,-0.243 -1.2,-0.641 0,-0.641 0.57,-0.797 1.68,-0.797 3.03,0 8.05,0.238 10.12,0.238 2.07,0 7.09,-0.238 12.12,-0.238 1.19,0 1.74,0.238 1.74,0.797 0,0.398 -0.31,0.641 -1.34,0.641 -1.13,0 -2.87,0.156 -3.99,0.316 -2.4,0.316 -2.87,2.07 -3.11,4.383 -0.4,3.347 -0.4,9.32 -0.4,16.98 v 6.453"
         style="fill:#FFF;fill-opacity:1;fill-rule:evenodd;stroke:none"
         id="path180" /></g></g></svg>
