<?xml version="1.0" encoding="UTF-8" standalone="no"?>
<!-- Created with Inkscape (http://www.inkscape.org/) -->

<svg
   version="1.1"
   id="svg2"
   width="155.2"
   height="113.33333"
   viewBox="0 0 155.2 113.33333"
   sodipodi:docname="SAH_logoRGB.eps"
   xmlns:inkscape="http://www.inkscape.org/namespaces/inkscape"
   xmlns:sodipodi="http://sodipodi.sourceforge.net/DTD/sodipodi-0.dtd"
   xmlns="http://www.w3.org/2000/svg"
   xmlns:svg="http://www.w3.org/2000/svg">
  <defs
     id="defs6" />
  <sodipodi:namedview
     id="namedview4"
     pagecolor="#ffffff"
     bordercolor="#000000"
     borderopacity="0.25"
     inkscape:showpageshadow="2"
     inkscape:pageopacity="0.0"
     inkscape:pagecheckerboard="0"
     inkscape:deskcolor="#d1d1d1" />
  <g
     id="g8"
     inkscape:groupmode="layer"
     inkscape:label="ink_ext_XXXXXX"
     transform="matrix(1.3333333,0,0,-1.3333333,0,113.33333)">
    <g
       id="g10"
       transform="scale(0.1)">
      <path
         d="M 1163.96,0 H 0 V 850 H 1163.96 V 0"
         style="fill:transparent;fill-opacity:1;fill-rule:nonzero;stroke:none"
         id="path12" />
      <path
         d="m 190.344,489.617 c -8.403,3.719 -15.239,5.637 -20.508,5.637 -7.082,0 -11.633,-2.875 -11.633,-7.316 0,-3.36 1.914,-5.395 7.551,-8.391 12.117,-6.481 20.027,-11.516 23.75,-15.234 3.355,-3.356 5.398,-8.633 5.398,-14.153 0,-14.152 -10.324,-22.426 -27.832,-22.426 -2.39,0 -4.797,0.239 -7.07,0.481 -5.637,0.84 -8.281,1.68 -16.555,5.515 -1.082,0.481 -2.879,1.321 -5.156,2.399 l 6.359,13.91 c 5.75,-3.113 8.157,-4.316 11.27,-5.519 3.965,-1.434 8.281,-2.274 11.395,-2.274 6.957,0 11.515,3.113 11.515,7.914 0,3.36 -1.797,5.637 -6.953,8.516 l -12.234,6.953 c -14.036,8.039 -18.352,13.316 -18.352,21.949 0,3.961 1.199,8.035 3.113,11.035 1.321,2.039 3.364,4.078 5.879,5.879 5.766,3.953 10.676,5.274 19.914,5.274 5.274,0 9.95,-0.594 14.871,-2.036 3.84,-1.203 5.997,-2.042 11.274,-4.554 l -5.996,-13.559"
         style="fill:#ffffff;fill-opacity:1;fill-rule:nonzero;stroke:none"
         id="path14" />
      <path
         d="m 245.664,496.816 c -14.988,0 -26.023,-11.996 -26.023,-27.945 0,-16.074 11.035,-27.941 26.023,-27.941 14.871,0 25.906,11.867 25.906,27.941 0,15.949 -11.035,27.945 -25.906,27.945 z m 0,-69.082 c -24.695,0 -41.973,17.032 -42.09,41.137 0,24.465 17.031,41.016 42.09,41.016 24.949,0 41.981,-16.551 41.981,-41.016 0,-24.105 -17.391,-41.137 -41.981,-41.137"
         style="fill:#ffffff;fill-opacity:1;fill-rule:nonzero;stroke:none"
         id="path16" />
      <path
         d="m 355.461,490.336 c -5.156,3.723 -11.273,5.519 -18.234,5.519 -15.223,0 -26.141,-10.792 -26.141,-25.789 0,-17.031 11.277,-28.179 28.543,-28.179 5.637,0 10.312,0.961 17.391,3.718 l 2.753,-12.714 c -5.039,-2.282 -7.07,-2.996 -10.671,-3.836 -3.836,-0.84 -8.039,-1.321 -12.715,-1.321 -12.356,0 -21.223,3.118 -28.66,9.832 -8.391,7.555 -13.313,19.309 -13.313,31.664 0,11.512 4.316,21.946 12.109,29.622 7.918,7.796 16.797,11.035 29.864,11.035 10.078,0 18,-2.399 24.836,-7.551 l -5.762,-12"
         style="fill:#ffffff;fill-opacity:1;fill-rule:nonzero;stroke:none"
         id="path18" />
      <path
         d="m 374.441,429.293 v 79.152 h 15.122 v -79.152 h -15.122"
         style="fill:#ffffff;fill-opacity:1;fill-rule:nonzero;stroke:none"
         id="path20" />
      <path
         d="m 410.801,429.293 v 79.152 h 48.215 v -12.832 h -33.098 v -19.55 H 453.02 V 463.23 h -27.102 v -21.105 h 34.656 v -12.832 h -49.773"
         style="fill:#ffffff;fill-opacity:1;fill-rule:nonzero;stroke:none"
         id="path22" />
      <path
         d="m 504.504,495.613 v -66.32 h -15.109 v 66.32 h -23.75 v 12.832 h 62.609 v -12.832 h -23.75"
         style="fill:#ffffff;fill-opacity:1;fill-rule:nonzero;stroke:none"
         id="path24" />
      <path
         d="m 568.828,463.23 v -33.937 h -15.117 v 33.937 l -24.102,45.215 h 16.543 l 15.828,-30.941 16.68,30.941 h 16.543 L 568.828,463.23"
         style="fill:#ffffff;fill-opacity:1;fill-rule:nonzero;stroke:none"
         id="path26" />
      <path
         d="m 671.172,496.816 c -14.988,0 -26.027,-11.996 -26.027,-27.945 0,-16.074 11.039,-27.941 26.027,-27.941 14.875,0 25.906,11.867 25.906,27.941 0,15.949 -11.031,27.945 -25.906,27.945 z m 0,-69.082 c -24.695,0 -41.973,17.032 -42.09,41.137 0,24.465 17.031,41.016 42.09,41.016 24.949,0 41.98,-16.551 41.98,-41.016 0,-24.105 -17.39,-41.137 -41.98,-41.137"
         style="fill:#ffffff;fill-opacity:1;fill-rule:nonzero;stroke:none"
         id="path28" />
      <path
         d="m 742.832,495.613 v -20.386 h 27.82 v -12.711 h -27.82 v -33.223 h -15.117 v 79.152 h 49.055 v -12.832 h -33.938"
         style="fill:#ffffff;fill-opacity:1;fill-rule:nonzero;stroke:none"
         id="path30" />
      <path
         d="m 171.516,350.336 -9.121,-28.66 h 18.347 z m 19.547,-61.043 -6.239,19.551 H 158.32 l -6.472,-19.551 h -15.832 l 28.664,79.152 h 13.55 l 28.665,-79.152 h -15.832"
         style="fill:#ffffff;fill-opacity:1;fill-rule:nonzero;stroke:none"
         id="path32" />
      <path
         d="m 242.91,355.613 h -9.836 v -21.824 h 9.836 c 9.59,0 13.789,3.356 13.789,11.274 0,7.554 -3.957,10.55 -13.789,10.55 z m 15.828,-66.32 -18.113,31.664 h -7.551 v -31.664 h -15.113 v 79.152 h 26.387 c 11.511,0 16.797,-1.433 21.472,-5.871 4.317,-3.961 6.477,-9.719 6.477,-17.152 0,-6.113 -1.445,-11.035 -4.317,-14.875 -3,-3.836 -5.761,-5.512 -12.355,-7.317 l 19.668,-33.937 h -16.555"
         style="fill:#ffffff;fill-opacity:1;fill-rule:nonzero;stroke:none"
         id="path34" />
      <path
         d="m 341.289,350.336 c -5.156,3.723 -11.269,5.519 -18.23,5.519 -15.227,0 -26.145,-10.792 -26.145,-25.789 0,-17.031 11.277,-28.179 28.547,-28.179 5.633,0 10.309,0.961 17.391,3.718 l 2.753,-12.714 c -5.031,-2.282 -7.07,-2.996 -10.671,-3.836 -3.84,-0.84 -8.039,-1.321 -12.715,-1.321 -12.348,0 -21.223,3.118 -28.664,9.832 -8.391,7.555 -13.313,19.309 -13.313,31.664 0,11.512 4.321,21.946 12.113,29.622 7.918,7.796 16.793,11.035 29.864,11.035 10.078,0 17.996,-2.399 24.832,-7.551 l -5.762,-12"
         style="fill:#ffffff;fill-opacity:1;fill-rule:nonzero;stroke:none"
         id="path36" />
      <path
         d="m 416.406,289.293 v 33.937 h -40.652 v -33.937 h -15.117 v 79.152 h 15.117 v -31.66 h 40.652 v 31.66 h 15.117 v -79.152 h -15.117"
         style="fill:#ffffff;fill-opacity:1;fill-rule:nonzero;stroke:none"
         id="path38" />
      <path
         d="m 452.793,289.293 v 79.152 h 15.117 v -79.152 h -15.117"
         style="fill:#ffffff;fill-opacity:1;fill-rule:nonzero;stroke:none"
         id="path40" />
      <path
         d="m 518.176,355.613 v -66.32 h -15.11 v 66.32 h -23.75 v 12.832 h 62.61 v -12.832 h -23.75"
         style="fill:#ffffff;fill-opacity:1;fill-rule:nonzero;stroke:none"
         id="path42" />
      <path
         d="m 553.828,289.293 v 79.152 h 48.215 v -12.832 h -33.098 v -19.55 h 27.102 V 323.23 h -27.102 v -21.105 h 34.66 v -12.832 h -49.777"
         style="fill:#ffffff;fill-opacity:1;fill-rule:nonzero;stroke:none"
         id="path44" />
      <path
         d="m 671.758,350.336 c -5.156,3.723 -11.27,5.519 -18.235,5.519 -15.222,0 -26.14,-10.792 -26.14,-25.789 0,-17.031 11.277,-28.179 28.547,-28.179 5.633,0 10.308,0.961 17.39,3.718 l 2.754,-12.714 c -5.027,-2.282 -7.07,-2.996 -10.676,-3.836 -3.835,-0.84 -8.035,-1.321 -12.71,-1.321 -12.344,0 -21.223,3.118 -28.665,9.832 -8.386,7.555 -13.308,19.309 -13.308,31.664 0,11.512 4.312,21.946 12.105,29.622 7.922,7.796 16.797,11.035 29.868,11.035 10.078,0 17.996,-2.399 24.832,-7.551 l -5.762,-12"
         style="fill:#ffffff;fill-opacity:1;fill-rule:nonzero;stroke:none"
         id="path46" />
      <path
         d="m 720.129,355.613 v -66.32 H 705.02 v 66.32 h -23.75 v 12.832 h 62.609 v -12.832 h -23.75"
         style="fill:#ffffff;fill-opacity:1;fill-rule:nonzero;stroke:none"
         id="path48" />
      <path
         d="m 809.277,293.492 c -5.761,-3.961 -12.468,-5.758 -22.312,-5.758 -9.953,0 -16.43,1.68 -22.422,5.758 -8.156,5.633 -10.793,12.231 -10.793,26.742 v 48.211 h 14.988 v -49.05 c 0,-11.754 6.117,-17.625 18.711,-17.625 11.516,0 17.629,6.234 17.629,17.625 v 49.05 h 15.11 v -48.211 c 0,-14.511 -2.637,-20.988 -10.911,-26.742"
         style="fill:#ffffff;fill-opacity:1;fill-rule:nonzero;stroke:none"
         id="path50" />
      <path
         d="m 864.734,355.613 h -9.832 v -21.824 h 9.832 c 9.59,0 13.789,3.356 13.789,11.274 0,7.554 -3.953,10.55 -13.789,10.55 z m 15.832,-66.32 -18.117,31.664 h -7.547 v -31.664 h -15.117 v 79.152 h 26.387 c 11.516,0 16.797,-1.433 21.473,-5.871 4.32,-3.961 6.476,-9.719 6.476,-17.152 0,-6.113 -1.445,-11.035 -4.316,-14.875 -2.996,-3.836 -5.762,-5.512 -12.356,-7.317 l 19.668,-33.937 h -16.551"
         style="fill:#ffffff;fill-opacity:1;fill-rule:nonzero;stroke:none"
         id="path52" />
      <path
         d="m 934.813,350.336 -9.122,-28.66 h 18.352 z m 19.55,-61.043 -6.238,19.551 h -26.504 l -6.476,-19.551 h -15.829 l 28.664,79.152 h 13.551 l 28.664,-79.152 h -15.832"
         style="fill:#ffffff;fill-opacity:1;fill-rule:nonzero;stroke:none"
         id="path54" />
      <path
         d="m 981.262,289.293 v 79.152 h 15.117 v -66.32 h 32.381 v -12.832 h -47.498"
         style="fill:#ffffff;fill-opacity:1;fill-rule:nonzero;stroke:none"
         id="path56" />
      <path
         d="M 202.336,149.293 V 183.23 H 161.68 v -33.937 h -15.117 v 79.152 h 15.117 v -31.66 h 40.656 v 31.66 h 15.113 v -79.152 h -15.113"
         style="fill:#ffffff;fill-opacity:1;fill-rule:nonzero;stroke:none"
         id="path58" />
      <path
         d="m 238.723,149.293 v 79.152 h 15.117 v -79.152 h -15.117"
         style="fill:#ffffff;fill-opacity:1;fill-rule:nonzero;stroke:none"
         id="path60" />
      <path
         d="m 318.855,209.617 c -8.394,3.719 -15.234,5.637 -20.503,5.637 -7.082,0 -11.633,-2.875 -11.633,-7.316 0,-3.36 1.914,-5.395 7.551,-8.391 12.117,-6.481 20.027,-11.516 23.75,-15.234 3.359,-3.356 5.398,-8.633 5.398,-14.153 0,-14.152 -10.32,-22.426 -27.832,-22.426 -2.395,0 -4.797,0.239 -7.07,0.481 -5.633,0.84 -8.282,1.68 -16.551,5.515 -1.086,0.481 -2.883,1.321 -5.156,2.399 l 6.355,13.91 c 5.75,-3.113 8.152,-4.316 11.27,-5.519 3.964,-1.434 8.281,-2.274 11.394,-2.274 6.953,0 11.516,3.113 11.516,7.914 0,3.36 -1.797,5.637 -6.953,8.516 l -12.239,6.953 c -14.031,8.039 -18.347,13.316 -18.347,21.949 0,3.961 1.203,8.035 3.117,11.035 1.316,2.039 3.355,4.078 5.879,5.879 5.762,3.953 10.672,5.274 19.91,5.274 5.273,0 9.949,-0.594 14.875,-2.036 3.836,-1.203 5.992,-2.042 11.269,-4.554 l -6,-13.559"
         style="fill:#ffffff;fill-opacity:1;fill-rule:nonzero;stroke:none"
         id="path62" />
      <path
         d="m 368.184,215.613 v -66.32 h -15.11 v 66.32 h -23.75 v 12.832 h 62.61 v -12.832 h -23.75"
         style="fill:#ffffff;fill-opacity:1;fill-rule:nonzero;stroke:none"
         id="path64" />
      <path
         d="m 438.855,216.816 c -14.988,0 -26.023,-11.996 -26.023,-27.945 0,-16.074 11.035,-27.941 26.023,-27.941 14.875,0 25.911,11.867 25.911,27.941 0,15.949 -11.036,27.945 -25.911,27.945 z m 0,-69.082 c -24.707,0 -41.968,17.032 -42.085,41.137 0,24.465 17.031,41.016 42.085,41.016 24.954,0 41.985,-16.551 41.985,-41.016 0,-24.105 -17.395,-41.137 -41.985,-41.137"
         style="fill:#ffffff;fill-opacity:1;fill-rule:nonzero;stroke:none"
         id="path66" />
      <path
         d="m 520.352,215.613 h -9.832 v -21.824 h 9.832 c 9.589,0 13.789,3.356 13.789,11.274 0,7.554 -3.953,10.55 -13.789,10.55 z m 15.832,-66.32 -18.118,31.664 h -7.546 v -31.664 h -15.122 v 79.152 h 26.387 c 11.516,0 16.801,-1.433 21.477,-5.871 4.316,-3.961 6.472,-9.719 6.472,-17.152 0,-6.113 -1.441,-11.035 -4.312,-14.875 -3,-3.836 -5.766,-5.512 -12.356,-7.317 l 19.668,-33.937 h -16.55"
         style="fill:#ffffff;fill-opacity:1;fill-rule:nonzero;stroke:none"
         id="path68" />
      <path
         d="m 565.117,149.293 v 79.152 h 15.117 v -79.152 h -15.117"
         style="fill:#ffffff;fill-opacity:1;fill-rule:nonzero;stroke:none"
         id="path70" />
      <path
         d="m 626.426,210.336 -9.121,-28.66 h 18.347 z m 19.551,-61.043 -6.243,19.551 H 613.23 l -6.472,-19.551 H 590.93 l 28.66,79.152 h 13.555 l 28.664,-79.152 h -15.832"
         style="fill:#ffffff;fill-opacity:1;fill-rule:nonzero;stroke:none"
         id="path72" />
      <path
         d="m 725.645,148.574 -33.946,51.211 c -0.234,0.36 -0.832,1.442 -1.672,3.113 -0.601,0.965 -0.839,1.567 -0.964,1.68 -0.477,0.965 -0.711,1.442 -1.075,2.762 v -58.047 h -14.394 v 79.152 h 17.39 l 33.227,-52.05 c 0.113,-0.239 0.477,-0.836 0.84,-1.676 0.347,-0.84 0.594,-1.321 0.711,-1.559 l 0.722,-2.043 0.723,-1.433 v 58.761 h 14.27 v -79.871 h -15.832"
         style="fill:#ffffff;fill-opacity:1;fill-rule:nonzero;stroke:none"
         id="path74" />
      <path
         d="m 807.727,209.617 c -8.403,3.719 -15.239,5.637 -20.508,5.637 -7.082,0 -11.633,-2.875 -11.633,-7.316 0,-3.36 1.914,-5.395 7.551,-8.391 12.117,-6.481 20.027,-11.516 23.75,-15.234 3.355,-3.356 5.398,-8.633 5.398,-14.153 0,-14.152 -10.32,-22.426 -27.832,-22.426 -2.39,0 -4.797,0.239 -7.07,0.481 -5.637,0.84 -8.281,1.68 -16.555,5.515 -1.082,0.481 -2.879,1.321 -5.152,2.399 l 6.355,13.91 c 5.75,-3.113 8.157,-4.316 11.27,-5.519 3.965,-1.434 8.281,-2.274 11.394,-2.274 6.953,0 11.516,3.113 11.516,7.914 0,3.36 -1.797,5.637 -6.953,8.516 l -12.238,6.953 c -14.032,8.039 -18.348,13.316 -18.348,21.949 0,3.961 1.199,8.035 3.113,11.035 1.32,2.039 3.36,4.078 5.883,5.879 5.762,3.953 10.672,5.274 19.91,5.274 5.274,0 9.949,-0.594 14.871,-2.036 3.84,-1.203 5.996,-2.042 11.274,-4.554 l -5.996,-13.559"
         style="fill:#ffffff;fill-opacity:1;fill-rule:nonzero;stroke:none"
         id="path76" />
    </g>
  </g>
</svg>
