<?xml version="1.0" encoding="UTF-8" standalone="no"?>
<!-- Created with Inkscape (http://www.inkscape.org/) -->

<svg
   version="1.1"
   id="svg2"
   width="307.07999"
   height="157.18668"
   viewBox="0 0 307.07999 157.18668"
   sodipodi:docname="CLAS Logo No BKG w White Letters and Red Swoosh.eps"
   xmlns:inkscape="http://www.inkscape.org/namespaces/inkscape"
   xmlns:sodipodi="http://sodipodi.sourceforge.net/DTD/sodipodi-0.dtd"
   xmlns="http://www.w3.org/2000/svg"
   xmlns:svg="http://www.w3.org/2000/svg">
  <defs
     id="defs6" />
  <sodipodi:namedview
     id="namedview4"
     pagecolor="#ffffff"
     bordercolor="#000000"
     borderopacity="0.25"
     inkscape:showpageshadow="2"
     inkscape:pageopacity="0.0"
     inkscape:pagecheckerboard="0"
     inkscape:deskcolor="#d1d1d1" />
  <g
     id="g8"
     inkscape:groupmode="layer"
     inkscape:label="ink_ext_XXXXXX"
     transform="matrix(1.3333333,0,0,-1.3333333,0,157.18667)">
    <g
       id="g10"
       transform="scale(0.1)">
      <path
         d="M 0,359.68 1910,695.148 1744.12,0 1487.55,359.68 H 0"
         style="fill:#FFF;fill-opacity:1;fill-rule:nonzero;stroke:none"
         id="path12" />
      <path
         d="m 967.383,1026.96 c 4.039,45.24 -24.024,61.98 -59.363,61.98 -75.024,0 -112.586,-68.81 -129.977,-150.616 -5.797,-27.285 -29.156,-140.09 66.941,-140.09 65.723,0 82.688,47.727 88.86,65.09 H 1062.8 C 1032.4,723.215 887.297,711.43 829.02,711.43 c -43.407,0 -118.668,7.449 -157.118,59.531 -37.824,52.07 -31.336,123.348 -21.457,169.832 13.047,61.367 40.321,122.727 92.559,170.457 56.875,52.08 118.629,65.73 183.73,65.73 72.539,0 124.036,-17.36 151.466,-54.57 27.79,-38.43 19.84,-78.71 16.9,-95.45 H 967.383"
         style="fill:#ffffff;fill-opacity:1;fill-rule:nonzero;stroke:none"
         id="path14" />
      <path
         d="m 1158.04,1167.64 h 125.62 l -76.39,-359.413 h 200.88 l -18.71,-88.039 h -326.51 l 95.11,447.452"
         style="fill:#ffffff;fill-opacity:1;fill-rule:nonzero;stroke:none"
         id="path16" />
      <path
         d="m 1387.5,720.148 h 123.92 l 49.5,90.02 h 179.07 l 11.84,-90.02 h 140.05 l -81.48,447.492 h -151.2 z m 220.06,172.481 101.84,187.551 h 1.85 l 17.77,-187.551 h -121.46"
         style="fill:#ffffff;fill-opacity:1;fill-rule:nonzero;stroke:none"
         id="path18" />
      <path
         d="m 2007.18,862.688 c -3.2,-17.977 -12.91,-69.434 60.77,-69.434 10.52,0 66.24,0 77.05,50.832 4.48,21.082 -1.16,35.34 -29.16,43.406 l -103.51,28.516 c -29.24,8.058 -104.6,29.133 -84.7,122.752 15.42,72.54 84.25,140.12 218.21,140.12 174.78,0 162.05,-94.85 152.51,-142.6 h -125.62 c 2.9,13.65 13.79,62.01 -46.13,62.01 -35.91,0 -63.17,-20.47 -68.83,-47.13 -6.99,-32.86 18.54,-40.91 35.44,-45.87 l 78.96,-21.704 c 56.13,-15.508 122.73,-34.102 102.57,-128.965 -21.22,-99.812 -116.12,-144.453 -228.17,-144.453 -46.43,0 -119.75,7.441 -150.84,53.32 -25.17,35.969 -16.43,79.981 -12.96,99.2 h 124.41"
         style="fill:#ffffff;fill-opacity:1;fill-rule:nonzero;stroke:none"
         id="path20" />
      <path
         d="m 2002.9,653.039 -10.13,-8.934 c -3.56,4.942 -7.18,7.422 -10.86,7.422 -1.8,0 -3.26,-0.48 -4.41,-1.445 -1.14,-0.957 -1.7,-2.031 -1.7,-3.242 0,-1.211 0.41,-2.344 1.22,-3.418 1.11,-1.426 4.45,-4.512 10.03,-9.231 5.21,-4.363 8.37,-7.117 9.49,-8.25 2.76,-2.793 4.73,-5.48 5.89,-8.027 1.16,-2.559 1.74,-5.351 1.74,-8.379 0,-5.898 -2.05,-10.762 -6.12,-14.601 -4.07,-3.836 -9.38,-5.762 -15.93,-5.762 -5.11,0 -9.58,1.262 -13.37,3.762 -3.79,2.5 -7.05,6.445 -9.75,11.816 l 11.49,6.934 c 3.46,-6.348 7.43,-9.524 11.94,-9.524 2.34,0 4.31,0.684 5.91,2.051 1.6,1.367 2.4,2.941 2.4,4.738 0,1.621 -0.61,3.262 -1.81,4.883 -1.21,1.621 -3.87,4.121 -7.98,7.469 -7.82,6.379 -12.88,11.301 -15.15,14.777 -2.29,3.457 -3.43,6.914 -3.43,10.371 0,4.981 1.89,9.258 5.69,12.813 3.8,3.574 8.49,5.351 14.05,5.351 3.6,0 7.01,-0.832 10.25,-2.492 3.24,-1.66 6.76,-4.687 10.54,-9.082"
         style="fill:#ffffff;fill-opacity:1;fill-rule:nonzero;stroke:none"
         id="path22" />
      <path
         d="m 2024.17,662.805 h 13.33 l 16.64,-50.098 16.8,50.098 h 13.31 l 12.05,-71.825 h -13.22 l -7.69,45.36 -15.27,-45.36 h -12.05 l -15.13,45.36 -7.88,-45.36 h -13.33 l 12.44,71.825"
         style="fill:#ffffff;fill-opacity:1;fill-rule:nonzero;stroke:none"
         id="path24" />
    </g>
  </g>
</svg>
