<?xml version="1.0" encoding="UTF-8" standalone="no"?>
<!-- Created with Inkscape (http://www.inkscape.org/) -->

<svg
   version="1.1"
   id="svg2"
   width="336"
   height="288"
   viewBox="0 0 336 288"
   sodipodi:docname="MCN_Logo (New CMYK)_2018-11-07.eps"
   xmlns:inkscape="http://www.inkscape.org/namespaces/inkscape"
   xmlns:sodipodi="http://sodipodi.sourceforge.net/DTD/sodipodi-0.dtd"
   xmlns="http://www.w3.org/2000/svg"
   xmlns:svg="http://www.w3.org/2000/svg">
  <defs
     id="defs6" />
  <sodipodi:namedview
     id="namedview4"
     pagecolor="#ffffff"
     bordercolor="#000000"
     borderopacity="0.25"
     inkscape:showpageshadow="2"
     inkscape:pageopacity="0.0"
     inkscape:pagecheckerboard="0"
     inkscape:deskcolor="#d1d1d1" />
  <g
     id="g8"
     inkscape:groupmode="layer"
     inkscape:label="ink_ext_XXXXXX"
     transform="matrix(1.3333333,0,0,-1.3333333,0,288)">
    <g
       id="g10"
       transform="scale(0.1)">
      <path
         d="M 2519.99,0 H 0 V 2160 H 2519.99 V 0"
         style="fill:transparent;fill-opacity:1;fill-rule:nonzero;stroke:none"
         id="path12" />
      <path
         d="m 226.172,1899.67 c 0.926,5.27 2.781,8.06 5.262,8.06 2.48,0 4.347,-1.56 8.379,-9.62 l 84.64,-174.87 84.336,177.04 c 2.176,4.96 4.031,7.45 6.824,7.45 2.793,0 4.649,-3.1 5.578,-9.62 l 28.223,-191.61 c 2.781,-19.54 5.887,-28.53 15.184,-31.31 8.996,-2.8 15.199,-3.11 19.23,-3.11 2.793,0 4.961,-0.3 4.961,-2.17 0,-2.48 -3.723,-3.41 -8.066,-3.41 -7.746,0 -50.539,0.93 -62.942,1.86 -7.129,0.62 -8.992,1.55 -8.992,3.42 0,1.54 1.238,2.48 3.418,3.41 1.856,0.61 2.781,4.65 1.543,13.33 l -18.605,136.42 h -1.239 l -67.59,-140.76 c -7.128,-14.58 -8.679,-17.36 -11.472,-17.36 -2.793,0 -5.891,6.19 -10.852,15.49 -7.441,14.27 -31.933,61.71 -35.652,70.39 -2.793,6.51 -21.399,45.58 -32.246,68.83 h -1.242 l -16.122,-123.4 c -0.625,-5.58 -0.937,-9.61 -0.937,-14.58 0,-5.88 4.031,-8.67 9.305,-9.92 5.578,-1.24 9.922,-1.55 13.019,-1.55 2.481,0 4.656,-0.62 4.656,-2.17 0,-2.79 -2.793,-3.41 -7.437,-3.41 -13.031,0 -26.984,0.93 -32.563,0.93 -5.886,0 -20.769,-0.93 -30.691,-0.93 -3.105,0 -5.586,0.62 -5.586,3.41 0,1.55 1.863,2.17 4.961,2.17 2.481,0 4.648,0 9.305,0.93 8.683,1.87 11.164,13.95 12.707,24.5 l 30.703,202.16"
         style="fill:#ffffff;fill-opacity:1;fill-rule:nonzero;stroke:none"
         id="path14" />
      <path
         d="m 418.152,1673.36 c 7.309,-0.56 26.125,-1.13 41.418,-1.49 v 0 c -9.785,5.1 -12.687,16.61 -15.109,33.91 v 0 l -28.223,191.63 c -0.273,2 -0.683,3.52 -1.023,4.48 v 0 c -0.508,-0.76 -1.172,-2.03 -1.922,-3.75 v 0 L 324.461,1711.7 235.34,1895.89 c -1.512,3.02 -2.695,4.99 -3.445,6.02 v 0 c -0.274,-0.71 -0.567,-1.72 -0.793,-2.99 v 0 l 0.011,-0.01 -30.715,-202.13 c -1.433,-8.07 -2.597,-18.71 -9.46,-24.8 v 0 c 5.593,0.23 10.742,0.46 13.816,0.46 v 0 c 3.008,0 7.988,-0.24 13.832,-0.48 v 0 c -3.383,2.52 -5.922,6.4 -5.793,11.59 v 0 c -0.02,5.18 0.332,9.5 0.977,15.24 v 0 l 16.668,127.75 h 4.406 4.402 l 1.359,-2.9 c 10.868,-23.26 29.395,-62.16 32.317,-68.97 v 0 c 3.473,-8.15 28.113,-55.88 35.476,-70.01 v 0 c 2.676,-5.15 5.059,-9.43 6.532,-11.62 v 0 c 1.347,2.15 3.496,6.41 6.867,13.31 v 0 l 68.945,143.6 h 3.153 5.585 l 19.219,-140.76 c 0.391,-2.86 0.586,-5.34 0.586,-7.51 v 0 c -0.176,-3 -0.137,-5.93 -1.719,-8.28 v 0 c 0.196,-0.02 0.395,-0.03 0.586,-0.04 z m -0.808,-9.98 c -3.758,0.35 -6.258,0.69 -8.594,1.59 v 0 c -2.297,0.52 -5.285,3.94 -4.973,6.8 v 0 c 0.11,4.09 2.895,6.3 5.352,7.52 v 0 c 0.09,0.52 0.176,1.33 0.156,2.39 v 0 c 0,1.54 -0.144,3.61 -0.496,6.17 v 0 l -16.633,121.94 -61.363,-127.8 c -3.578,-7.32 -5.727,-11.68 -7.66,-14.67 v 0 c -1.551,-2.81 -4.735,-5.62 -8.289,-5.5 v 0 c -5.383,0.56 -6.739,3.78 -8.821,6.55 v 0 c -1.96,3.05 -3.984,6.97 -6.464,11.64 v 0 c -7.508,14.39 -31.856,61.52 -35.821,70.72 v 0 c -2.207,5.13 -15.281,32.71 -25.879,55.26 v 0 L 223.68,1697.57 c -0.606,-5.5 -0.899,-9.26 -0.899,-14.02 v 0 c 0.215,-3.08 1.028,-3.64 5.403,-5.04 v 0 c 5.222,-1.15 9.16,-1.42 11.933,-1.42 v 0 c 1.649,-0.02 3.301,-0.15 5.137,-0.88 v 0 c 1.687,-0.52 4.551,-2.81 4.5,-6.3 v 0 c 0.293,-3.19 -2.606,-6.73 -5.145,-7.41 v 0 c -2.48,-0.91 -4.738,-0.95 -7.285,-1 v 0 c -13.203,0 -27.344,0.95 -32.57,0.95 v 0 c -5.527,0 -20.527,-0.95 -30.684,-0.95 v 0 c -1.875,0.05 -3.875,0.09 -6.191,1.2 v 0 c -2.402,0.95 -4.617,4.31 -4.383,7.21 v 0 c -0.168,3.05 2.551,5.78 4.426,6.3 v 0 c 1.941,0.75 3.629,0.86 5.523,0.88 v 0 c 2.481,0 3.926,-0.02 8.266,0.82 v 0 c 3.98,-0.07 7.547,9.57 8.797,20.35 v 0 l 30.711,202.15 4.941,-0.75 -4.922,0.88 c 1.028,5.57 3.106,11.62 10.188,12.19 v 0 c 2.351,0.14 5.547,-1.25 7.293,-3.41 v 0 c 1.886,-2.1 3.449,-4.77 5.578,-9.03 v 0 l 80.105,-165.49 79.797,167.5 c 2.168,4.9 4.824,10.11 11.414,10.43 v 0 c 3.399,0.1 6.485,-2.32 7.805,-4.84 v 0 c 1.453,-2.55 2.187,-5.45 2.703,-9.04 v 0 l 28.234,-191.64 c 2.872,-19.82 5.79,-25.69 11.719,-27.25 v 0 c 8.496,-2.62 14.004,-2.87 17.754,-2.87 v 0 c 1.594,-0.02 3.152,-0.02 5.156,-0.67 v 0 c 1.934,-0.33 5.028,-3.36 4.793,-6.51 v 0 c 0,-4.17 -3.457,-6.67 -5.672,-7.32 v 0 c -2.421,-0.86 -4.843,-1.06 -7.382,-1.09 v 0 c -7.989,0.03 -50.528,0.92 -63.379,1.88 v 0"
         style="fill:#ffffff;fill-opacity:1;fill-rule:nonzero;stroke:none"
         id="path16" />
      <path
         d="m 541.121,1810.98 c 0,47.13 0,55.82 -0.613,65.74 -0.625,10.55 -3.723,15.82 -10.547,17.36 -3.41,0.94 -7.441,1.24 -11.164,1.24 -3.094,0 -4.961,0.63 -4.961,3.11 0,1.85 2.48,2.48 7.441,2.48 11.789,0 31.321,-0.93 40.313,-0.93 7.754,0 26.047,0.93 37.824,0.93 4.031,0 6.512,-0.63 6.512,-2.48 0,-2.48 -1.856,-3.11 -4.961,-3.11 -3.094,0 -5.574,-0.3 -9.293,-0.93 -8.379,-1.55 -10.863,-6.81 -11.477,-17.67 -0.625,-9.92 -0.625,-18.61 -0.625,-65.74 v -54.56 c 0,-30.07 0,-54.57 1.239,-67.9 0.937,-8.38 3.109,-13.96 12.402,-15.2 4.348,-0.61 11.164,-1.24 15.82,-1.24 3.41,0 4.961,-0.93 4.961,-2.48 0,-2.17 -2.48,-3.1 -5.898,-3.1 -20.457,0 -39.989,0.93 -48.367,0.93 -7.129,0 -26.661,-0.93 -39.063,-0.93 -4.035,0 -6.203,0.93 -6.203,3.1 0,1.55 1.242,2.48 4.961,2.48 4.648,0 8.371,0.63 11.164,1.24 6.199,1.24 8.055,6.52 8.992,15.51 1.543,13.02 1.543,37.52 1.543,67.59 v 54.56"
         style="fill:#ffffff;fill-opacity:1;fill-rule:nonzero;stroke:none"
         id="path18" />
      <path
         d="m 546.121,1756.41 c -0.019,-30.11 0.02,-54.53 -1.57,-68.09 v 0 c -0.481,-6.24 -1.965,-12.58 -6.094,-16.46 v 0 c 8.633,0.27 16.973,0.58 21.27,0.58 v 0 c 4.941,0 13.386,-0.31 23.527,-0.57 v 0 c -5.012,3.9 -7.18,10.35 -7.426,16.2 v 0 c -1.269,13.81 -1.269,38.25 -1.269,68.34 v 0 54.57 c 0,47.12 0,55.87 0.625,66.03 v 0 c 0.011,7.48 2.152,14.4 7.004,18.54 v 0 c -8.106,-0.26 -16.028,-0.55 -20.606,-0.55 v 0 c -5.469,0 -14.523,0.32 -23.398,0.58 v 0 c 4.746,-3.98 7.117,-10.77 7.312,-18.55 v 0 c 0.625,-10.18 0.606,-18.93 0.625,-66.05 v 0 h -0.019 l 0.019,-54.57 z m 13.606,-93.98 c -6.875,0 -26.497,-0.91 -39.075,-0.91 v 0 c -2.398,0.01 -4.539,0.18 -6.765,1.22 v 0 c -2.305,0.87 -4.621,3.99 -4.434,6.86 v 0 c -0.207,2.09 1.465,5.22 3.68,6.2 v 0 c 2.109,1.11 4.004,1.25 6.281,1.28 v 0 c 4.207,0 7.508,0.56 10.176,1.15 v 0 c 2.82,0.56 3.808,2 5.019,11.2 v 0 c 1.485,12.39 1.504,36.98 1.504,66.98 v 0 54.57 c 0,47.16 0,55.79 -0.605,65.44 v 0 c -0.988,10.1 -2.547,11.62 -6.875,12.85 v 0 c -2.715,0.75 -6.399,1.07 -9.844,1.07 v 0 c -1.875,0.04 -3.762,0.06 -6.035,1.23 v 0 c -2.402,1.11 -4.113,4.43 -3.926,6.85 v 0 c -0.168,3.63 3.34,6.39 5.371,6.72 v 0 c 2.207,0.66 4.364,0.76 7.078,0.76 v 0 c 11.977,0 31.555,-0.92 40.305,-0.92 v 0 c 7.481,0 25.84,0.92 37.84,0.92 v 0 c 2.277,0 4.258,-0.1 6.387,-0.81 v 0 c 1.964,-0.42 5.246,-3.1 5.097,-6.67 v 0 c 0.215,-2.4 -1.504,-5.74 -3.902,-6.85 v 0 c -2.277,-1.17 -4.164,-1.19 -6.039,-1.23 v 0 c -2.762,-0.03 -4.824,-0.26 -8.399,-0.86 v 0 c -5.808,-1.55 -6.187,-2.3 -7.398,-13.08 v 0 c -0.609,-9.63 -0.609,-18.26 -0.609,-65.42 v 0 -54.57 c 0,-30.02 0.031,-54.57 1.211,-67.34 v 0 c 1.503,-8.17 1.281,-9.38 8.136,-10.8 v 0 c 4.09,-0.58 10.879,-1.19 15.125,-1.19 v 0 c 2.149,-0.03 4.055,-0.21 6.074,-1.22 v 0 c 2.032,-0.87 4.036,-3.71 3.868,-6.26 v 0 c 0.148,-3.18 -2.364,-6.04 -4.493,-6.86 v 0 c -2.167,-1.02 -4.238,-1.21 -6.394,-1.22 v 0 c -20.578,0 -40.254,0.91 -48.359,0.91 v 0"
         style="fill:#ffffff;fill-opacity:1;fill-rule:nonzero;stroke:none"
         id="path20" />
      <path
         d="m 698.602,1708.67 c 0.625,-24.19 4.66,-32.24 10.859,-34.41 5.266,-1.87 11.164,-2.18 16.125,-2.18 3.406,0 5.262,-0.62 5.262,-2.48 0,-2.48 -2.782,-3.1 -7.129,-3.1 -20.156,0 -32.559,0.93 -38.446,0.93 -2.793,0 -17.363,-0.93 -33.488,-0.93 -4.031,0 -6.816,0.32 -6.816,3.1 0,1.86 1.855,2.48 4.961,2.48 4.023,0 9.613,0.31 13.945,1.55 8.066,2.48 9.309,11.48 9.621,38.45 l 2.781,183.56 c 0,6.2 0.938,10.53 4.036,10.53 3.406,0 6.199,-4.02 11.472,-9.61 3.723,-4.02 50.852,-54.57 96.113,-99.53 21.086,-21.07 62.95,-65.72 68.215,-70.68 h 1.555 l -3.098,139.21 c -0.312,18.91 -3.105,24.8 -10.547,27.91 -4.648,1.85 -12.089,1.85 -16.437,1.85 -3.719,0 -4.961,0.93 -4.961,2.79 0,2.49 3.418,2.8 8.066,2.8 16.125,0 31.008,-0.93 37.52,-0.93 3.41,0 15.187,0.93 30.383,0.93 4.031,0 7.129,-0.31 7.129,-2.8 0,-1.86 -1.856,-2.79 -5.578,-2.79 -3.102,0 -5.586,0 -9.305,-0.93 -8.684,-2.48 -11.164,-8.99 -11.465,-26.35 l -3.418,-195.65 c 0,-6.82 -1.242,-9.61 -4.023,-9.61 -3.418,0 -7.141,3.41 -10.547,6.82 -19.532,18.6 -59.219,59.23 -91.465,91.16 -33.801,33.49 -68.211,72.25 -73.801,78.13 h -0.926 l 3.407,-130.22"
         style="fill:#ffffff;fill-opacity:1;fill-rule:nonzero;stroke:none"
         id="path22" />
      <path
         d="m 871.934,1657.8 c -6.778,0.39 -10.442,4.93 -14.004,8.19 v 0 c -19.668,18.73 -59.317,59.32 -91.543,91.23 v 0 c -26.106,25.85 -52.598,54.88 -65.891,69.48 v 0 l 3.098,-117.89 -4.992,-0.13 -5.008,-0.13 -3.547,135.34 h 5.137 3.078 l 1.472,-1.55 c 5.743,-6.05 40.02,-44.65 73.692,-78.02 v 0 c 32.297,-31.96 72.004,-72.62 91.476,-91.18 v 0 c 2.11,-2.3 4.414,-4.01 5.789,-4.83 v 0 c 0.149,0.95 0.274,2.37 0.254,4.19 v 0 l 3.418,195.63 c 0.188,8.91 0.793,15.33 2.981,20.64 v 0 c 1.082,2.71 2.832,5.02 5,6.81 v 0 c -6.828,-0.26 -11.809,-0.59 -14.141,-0.59 v 0 c -3.84,0 -10.117,0.29 -17.695,0.54 v 0 c 6.57,-5.02 9.07,-14.35 9.051,-29.85 v 0 l 3.203,-144.34 h -5.106 -3.566 l -1.422,1.37 c -5.625,5.32 -47.27,49.75 -68.293,70.78 v 0 c -45.371,45.06 -92.5,95.61 -96.242,99.65 v 0 c -2.91,3.16 -5.195,5.73 -6.602,7.05 v 0 c -0.164,-1.16 -0.281,-2.77 -0.273,-4.63 v 0 l -2.781,-183.52 c -0.176,-13.59 -0.489,-22.71 -2.012,-29.48 v 0 c -0.832,-4.3 -2.785,-8.09 -5.664,-10.68 v 0 c 7.226,0.25 12.605,0.55 14.461,0.55 v 0 c 3.84,0 9.836,-0.34 18.476,-0.61 v 0 c -6.902,5.25 -9.558,16.16 -10.144,36.73 v 0 l 5.008,0.13 4.992,0.13 c 0.547,-24.18 5.066,-29.49 7.519,-29.84 v 0 c 4.325,-1.55 9.707,-1.9 14.473,-1.88 v 0 c 2.012,-0.05 3.789,-0.09 5.887,-0.97 v 0 c 2.14,-0.63 4.613,-3.8 4.367,-6.52 v 0 c 0.246,-3.35 -2.852,-6.61 -5.188,-7.15 v 0 c -2.359,-0.86 -4.519,-0.92 -6.933,-0.94 v 0 c -20.274,0 -32.977,0.94 -38.457,0.92 v 0 c -2.324,0.02 -17.274,-0.92 -33.477,-0.92 v 0 c -2.168,0.04 -4.18,0 -6.609,0.79 v 0 c -2.453,0.51 -5.539,4.09 -5.215,7.3 v 0 c -0.215,2.7 2.137,5.81 4.25,6.5 v 0 c 2.059,0.88 3.816,0.94 5.699,0.99 v 0 c 3.762,-0.02 9.102,0.33 12.481,1.31 v 0 c 2.179,0.89 2.871,1.18 4.32,6.4 v 0 c 1.199,5.08 1.637,13.95 1.785,27.36 v 0 l 2.781,183.48 c 0.02,3.38 0.196,6.35 1.114,9.18 v 0 c 0.625,2.64 3.586,6.46 7.929,6.36 v 0 c 7.793,-0.82 9.825,-6.19 15.118,-11.22 v 0 c 3.683,-3.96 50.8,-54.51 95.98,-99.39 v 0 c 16.832,-16.81 46.961,-48.7 61.004,-63.31 v 0 l -2.863,128.23 c -0.653,19.1 -2.618,21.15 -7.403,23.33 v 0 c -3.054,1.32 -10.332,1.57 -14.57,1.52 v 0 c -2.266,0.04 -4.238,0.14 -6.453,1.4 v 0 c -2.356,1.24 -3.692,4.45 -3.508,6.37 v 0 c -0.184,4.07 3.82,6.93 5.977,7.16 v 0 c 2.394,0.62 4.628,0.62 7.089,0.64 v 0 c 16.25,0 31.34,-0.94 37.512,-0.92 v 0 c 2.891,-0.02 15.067,0.92 30.371,0.92 v 0 c 2.168,-0.02 4.219,-0.02 6.543,-0.67 v 0 c 2.188,-0.31 5.828,-3.42 5.574,-7.13 v 0 c 0.196,-2.68 -1.961,-5.7 -4.128,-6.56 v 0 c -2.129,-1.03 -4.153,-1.19 -6.407,-1.21 v 0 c -3.176,-0.03 -4.914,0 -7.949,-0.74 v 0 c -3.359,-1.11 -4.277,-1.9 -5.644,-4.76 v 0 c -1.301,-2.91 -2.071,-8.43 -2.2,-16.88 v 0 l -3.418,-195.57 c -0.039,-3.71 -0.254,-6.57 -1.367,-9.31 v 0 c -0.84,-2.65 -4.16,-5.3 -7.234,-5.3 v 0 c -0.137,0 -0.274,0 -0.41,0.02 v 0"
         style="fill:#ffffff;fill-opacity:1;fill-rule:nonzero;stroke:none"
         id="path24" />
      <path
         d="m 992.176,1708.67 c 0.617,-24.19 4.648,-32.24 10.854,-34.41 5.27,-1.87 11.16,-2.18 16.12,-2.18 3.41,0 5.27,-0.62 5.27,-2.48 0,-2.48 -2.79,-3.1 -7.13,-3.1 -20.153,0 -32.556,0.93 -38.442,0.93 -2.793,0 -17.364,-0.93 -33.489,-0.93 -4.031,0 -6.824,0.32 -6.824,3.1 0,1.86 1.863,2.48 4.961,2.48 4.031,0 9.609,0.31 13.953,1.55 8.059,2.48 9.297,11.48 9.61,38.45 l 2.793,183.56 c 0,6.2 0.929,10.53 4.035,10.53 3.406,0 6.199,-4.02 11.465,-9.61 3.718,-4.02 50.848,-54.57 96.118,-99.53 21.09,-21.07 62.94,-65.72 68.22,-70.68 h 1.55 l -3.11,139.21 c -0.31,18.91 -3.09,24.8 -10.53,27.91 -4.66,1.85 -12.1,1.85 -16.44,1.85 -3.72,0 -4.96,0.93 -4.96,2.79 0,2.49 3.41,2.8 8.06,2.8 16.12,0 31,-0.93 37.52,-0.93 3.41,0 15.19,0.93 30.39,0.93 4.02,0 7.13,-0.31 7.13,-2.8 0,-1.86 -1.87,-2.79 -5.59,-2.79 -3.1,0 -5.58,0 -9.3,-0.93 -8.68,-2.48 -11.16,-8.99 -11.47,-26.35 l -3.41,-195.65 c 0,-6.82 -1.24,-9.61 -4.03,-9.61 -3.41,0 -7.13,3.41 -10.54,6.82 -19.54,18.6 -59.23,59.23 -91.47,91.16 -33.79,33.49 -68.217,72.25 -73.795,78.13 h -0.925 l 3.406,-130.22"
         style="fill:#ffffff;fill-opacity:1;fill-rule:nonzero;stroke:none"
         id="path26" />
      <path
         d="m 1165.5,1657.79 c -6.78,0.4 -10.41,4.93 -14,8.19 v 0 c -19.68,18.75 -59.32,59.33 -91.54,91.23 v 0 c -26.11,25.87 -52.61,54.9 -65.89,69.49 v 0 l 3.086,-117.9 -4.988,-0.13 -5,-0.12 -3.535,135.34 h 5.125 3.078 l 1.473,-1.55 c 5.742,-6.06 40.021,-44.65 73.681,-78.02 v 0 c 32.28,-31.96 71.99,-72.63 91.51,-91.18 v 0 c 2.08,-2.3 4.39,-4.01 5.77,-4.83 v 0 c 0.15,0.95 0.27,2.36 0.26,4.17 v 0 l 3.41,195.66 c 0.18,8.9 0.78,15.31 2.99,20.61 v 0 c 1.08,2.73 2.82,5.04 4.99,6.83 v 0 c -6.84,-0.26 -11.82,-0.58 -14.14,-0.6 v 0 c -3.84,0.02 -10.11,0.3 -17.7,0.55 v 0 c 6.57,-5.02 9.06,-14.34 9.04,-29.85 v 0 l 3.21,-144.32 h -5.1 -3.54 l -1.44,1.35 c -5.64,5.34 -47.28,49.75 -68.3,70.77 v 0 c -45.38,45.07 -92.512,95.61 -96.239,99.65 v 0 c -2.914,3.17 -5.199,5.74 -6.606,7.06 v 0 c -0.175,-1.15 -0.281,-2.76 -0.269,-4.62 v 0 l -2.777,-183.53 c -0.176,-13.59 -0.508,-22.7 -2.039,-29.48 v 0 c -0.821,-4.3 -2.766,-8.09 -5.645,-10.68 v 0 c 7.234,0.25 12.617,0.55 14.473,0.56 v 0 c 3.828,0 9.812,-0.35 18.437,-0.62 v 0 c -6.894,5.27 -9.531,16.17 -10.117,36.73 v 0 l 5,0.12 4.988,0.13 c 0.547,-24.16 5.074,-29.46 7.534,-29.82 v 0 c 4.33,-1.55 9.69,-1.91 14.45,-1.89 v 0 c 2.02,-0.04 3.81,-0.08 5.9,-0.96 v 0 c 2.14,-0.64 4.6,-3.79 4.37,-6.53 v 0 c 0.23,-3.37 -2.86,-6.61 -5.19,-7.15 v 0 c -2.36,-0.85 -4.5,-0.91 -6.93,-0.93 v 0 c -20.259,0 -32.966,0.93 -38.442,0.93 v 0 c -2.336,0 -17.297,-0.95 -33.496,-0.93 v 0 c -2.161,0.02 -4.18,-0.02 -6.602,0.78 v 0 c -2.461,0.5 -5.539,4.08 -5.215,7.3 v 0 c -0.234,2.71 2.137,5.81 4.246,6.5 v 0 c 2.063,0.88 3.828,0.95 5.703,0.99 v 0 c 3.762,-0.02 9.082,0.34 12.5,1.32 v 0 c 2.161,0.89 2.864,1.16 4.289,6.38 v 0 c 1.18,5.09 1.641,13.95 1.786,27.37 v 0 l 2.785,183.48 c 0.019,3.36 0.183,6.35 1.113,9.16 v 0 c 0.625,2.66 3.594,6.49 7.93,6.38 v 0 c 7.801,-0.84 9.843,-6.18 15.125,-11.22 v 0 c 3.683,-3.97 50.788,-54.51 95.988,-99.39 v 0 c 16.83,-16.8 46.94,-48.69 60.99,-63.3 v 0 l -2.86,128.21 c -0.65,19.11 -2.6,21.17 -7.4,23.34 v 0 c -3.07,1.34 -10.35,1.57 -14.59,1.51 v 0 c -2.24,0.04 -4.23,0.15 -6.43,1.41 v 0 c -2.36,1.22 -3.7,4.44 -3.52,6.37 v 0 c -0.17,4.07 3.83,6.91 5.98,7.16 v 0 c 2.38,0.63 4.63,0.63 7.09,0.65 v 0 c 16.25,-0.02 31.35,-0.94 37.52,-0.94 v 0 c 2.88,0 15.06,0.94 30.38,0.92 v 0 c 2.17,0 4.21,0 6.52,-0.67 v 0 c 2.19,-0.32 5.83,-3.39 5.6,-7.12 v 0 c 0.18,-2.68 -1.99,-5.7 -4.15,-6.56 v 0 c -2.14,-1.03 -4.14,-1.2 -6.42,-1.22 v 0 c -3.15,-0.02 -4.87,0 -7.93,-0.74 v 0 c -3.34,-1.11 -4.29,-1.89 -5.65,-4.75 v 0 c -1.29,-2.9 -2.07,-8.44 -2.2,-16.88 v 0 l -3.41,-195.56 c -0.04,-3.73 -0.24,-6.59 -1.37,-9.33 v 0 c -0.84,-2.65 -4.17,-5.29 -7.24,-5.29 v 0 c -0.14,0 -0.28,0 -0.41,0.01 v 0"
         style="fill:#ffffff;fill-opacity:1;fill-rule:nonzero;stroke:none"
         id="path28" />
      <path
         d="m 1268.38,1810.98 c 0,47.13 0,55.82 -0.62,65.74 -0.62,10.55 -3.1,15.51 -13.33,17.67 -2.48,0.63 -7.75,0.93 -12.1,0.93 -3.4,0 -5.26,0.63 -5.26,2.79 0,2.17 2.17,2.8 6.82,2.8 16.43,0 35.96,-0.93 44.64,-0.93 9.93,0 71.63,0 77.52,0.3 5.89,0.63 10.85,1.24 13.33,1.87 1.56,0.31 3.41,1.24 4.97,1.24 1.55,0 1.85,-1.24 1.85,-2.79 0,-2.17 -1.54,-5.89 -2.48,-20.16 -0.3,-3.1 -0.93,-16.74 -1.54,-20.46 -0.32,-1.55 -0.94,-3.42 -3.11,-3.42 -2.17,0 -2.79,1.55 -2.79,4.35 0,2.16 -0.3,7.44 -1.86,11.16 -2.16,5.59 -5.27,9.3 -20.77,11.16 -5.27,0.62 -37.83,1.24 -44.03,1.24 -1.55,0 -2.17,-0.92 -2.17,-3.1 v -78.44 c 0,-2.17 0.31,-3.42 2.17,-3.42 6.82,0 42.48,0 49.61,0.63 7.44,0.62 12.09,1.55 14.88,4.65 2.17,2.48 3.41,4.03 4.96,4.03 1.24,0 2.17,-0.62 2.17,-2.48 0,-1.87 -1.54,-6.83 -2.48,-22.64 -0.62,-6.2 -1.24,-18.6 -1.24,-20.77 0,-2.48 0,-5.89 -2.78,-5.89 -2.18,0 -2.8,1.24 -2.8,2.78 -0.31,3.11 -0.31,7.14 -1.24,11.18 -1.55,6.19 -5.89,10.85 -17.36,12.09 -5.89,0.61 -36.59,0.93 -44.03,0.93 -1.55,0 -1.86,-1.25 -1.86,-3.1 v -24.5 c 0,-10.54 -0.31,-39.06 0,-48.06 0.62,-21.4 5.58,-26.05 37.21,-26.05 8.05,0 21.08,0 29.14,3.73 8.06,3.72 11.79,10.23 13.95,22.94 0.63,3.41 1.24,4.65 3.41,4.65 2.48,0 2.48,-2.48 2.48,-5.58 0,-7.13 -2.48,-28.21 -4.02,-34.42 -2.18,-8.06 -4.96,-8.06 -16.75,-8.06 -46.82,0 -67.59,1.86 -85.89,1.86 -7.13,0 -26.66,-0.93 -39.06,-0.93 -4.03,0 -6.2,0.93 -6.2,3.1 0,1.55 1.24,2.48 4.96,2.48 4.65,0 8.37,0.63 11.16,1.24 6.2,1.24 7.76,8.07 9,17.05 1.54,13.03 1.54,37.52 1.54,66.05 v 54.56"
         style="fill:#ffffff;fill-opacity:1;fill-rule:nonzero;stroke:none"
         id="path30" />
      <path
         d="m 1372.87,1670.57 c 5.88,-0.07 9.32,0.19 10.06,0.63 v 0 c 0.46,0.28 0.71,-0.02 1.83,3.65 v 0 c 0.71,2.7 1.72,9.77 2.54,16.84 v 0 c -2.71,-4.54 -6.42,-7.96 -11.42,-10.17 v 0 c -9.83,-4.41 -23.07,-4.12 -31.23,-4.21 v 0 c -16.01,0.11 -25.88,0.87 -33.18,5.97 v 0 c -7.4,5.51 -8.73,14.15 -9.02,24.86 v 0 c -0.15,3.21 -0.15,8.38 -0.15,14.34 v 0 c 0,11.95 0.15,26.98 0.15,33.94 v 0 24.5 c 0.04,1.21 -0.04,2.56 0.86,4.47 v 0 c 0.81,2.07 3.91,3.86 6,3.63 v 0 c 7.63,-0.02 37.92,-0.29 44.56,-0.95 v 0 c 9.45,-0.74 16,-4.79 19.39,-10.23 v 0 c 0.16,2.28 0.32,4.44 0.49,6.16 v 0 c 0.4,6.61 0.93,11.59 1.39,15.16 v 0 c -4.2,-2.86 -9.36,-3.43 -15.49,-4 v 0 c -7.79,-0.65 -43.09,-0.63 -50.03,-0.63 v 0 c -1.94,-0.23 -5.19,1.24 -6.2,3.54 v 0 c -1.04,2.11 -0.93,3.54 -0.97,4.87 v 0 78.43 c 0.02,1.52 0.09,3.23 1.37,5.21 v 0 c 1.36,2.09 4.14,3.01 5.8,2.89 v 0 c 6.49,0 38.5,-0.59 44.63,-1.27 v 0 c 14.43,-1.25 21.36,-6.3 24.12,-12.48 v 0 c 0.15,2.25 0.26,4.12 0.36,5.06 v 0 c 0.54,8.25 1.34,13.52 1.88,16.53 v 0 0 0 c -3.15,-0.78 -8.04,-1.34 -14.3,-2.02 v 0 c -6.37,-0.31 -67.77,-0.29 -77.78,-0.29 v 0 c -5.24,0 -14.1,0.31 -23.8,0.57 v 0 c 5.55,-4.14 8.1,-11.03 8.02,-18.54 v 0 c 0.62,-10.19 0.62,-18.94 0.62,-66.03 v 0 -54.58 c 0,-28.58 0.02,-52.98 -1.58,-66.73 v 0 c -0.94,-6.35 -1.88,-13.48 -6.46,-17.83 v 0 c 8.76,0.27 17.29,0.58 21.64,0.58 v 0 c 18.66,-0.02 39.18,-1.87 85.9,-1.87 z m -85.9,-8.12 c -6.85,0 -26.48,-0.93 -39.06,-0.93 v 0 c -2.4,0.02 -4.53,0.17 -6.79,1.22 v 0 c -2.27,0.87 -4.6,4.01 -4.4,6.85 v 0 c -0.22,2.11 1.45,5.21 3.67,6.23 v 0 c 2.1,1.09 4,1.24 6.28,1.27 v 0 c 4.2,0 7.51,0.56 10.19,1.13 v 0 c 1.96,-0.12 3.79,3.46 5,12.74 v 0 c 1.49,12.42 1.51,36.99 1.51,65.46 v 0 54.58 c 0,47.15 0,55.76 -0.61,65.44 v 0 c -1.34,10.2 -0.94,10.56 -9.56,13.11 v 0 c -1.45,0.41 -6.84,0.81 -10.88,0.78 v 0 c -2.02,0.03 -3.85,0.06 -6.07,1.08 v 0 c -2.33,0.84 -4.42,4.2 -4.19,6.7 v 0 c -0.3,2.91 2.55,6.35 4.89,6.9 v 0 c 2.3,0.83 4.37,0.87 6.94,0.91 v 0 c 16.57,0 36.21,-0.93 44.64,-0.93 v 0 c 9.81,0 71.83,0 76.98,0.28 v 0 c 5.8,0.59 10.82,1.26 12.88,1.78 v 0 c 0.61,0 2.56,1.19 5.95,1.33 v 0 c 2.07,0.22 5.06,-1.43 5.92,-3.43 v 0 c 0.95,-1.9 0.89,-3.25 0.93,-4.34 v 0 c -0.18,-4.12 -1.56,-6.21 -2.51,-20.65 v 0 c -0.29,-2.85 -0.86,-16.32 -1.62,-20.97 v 0 c -0.04,-1.53 -2,-7.35 -8,-7.42 v 0 c -2.2,-0.19 -5.39,1.31 -6.53,3.61 v 0 c -1.18,2.17 -1.22,3.98 -1.24,5.73 v 0 c 0.02,1.71 -0.4,6.82 -1.54,9.35 v 0 c -2.06,4.11 -1.46,5.65 -16.68,8.01 v 0 c -3.97,0.49 -30.68,1.08 -40.62,1.19 v 0 -74.94 c 10.76,-0.01 40.52,0.07 46.35,0.62 v 0 c 7.38,0.52 10.63,1.7 11.53,2.95 v 0 c 2.18,2.07 3.29,5.16 8.73,5.73 v 0 c 1.38,0.02 3.44,-0.38 5.09,-2 v 0 c 1.62,-1.64 2.09,-3.77 2.06,-5.48 v 0 c -0.12,-3.63 -1.53,-7.02 -2.48,-23.14 v 0 c -0.6,-5.86 -1.23,-18.54 -1.23,-20.27 v 0 c -0.02,-1.26 0.09,-3.05 -0.55,-5.31 v 0 c -0.29,-2.15 -3.43,-5.82 -7.22,-5.57 v 0 c -1.97,-0.06 -4.48,0.7 -6.04,2.58 v 0 c -1.52,1.85 -1.75,3.81 -1.73,4.7 v 0 c -0.34,3.5 -0.36,7.21 -1.12,10.46 v 0 c -1.43,4.32 -2.64,6.81 -13.03,8.33 v 0 c -4.59,0.51 -29.81,0.83 -40.36,0.9 v 0 -22.6 c 0,-7.06 -0.16,-22.06 -0.16,-33.94 v 0 c 0,-5.92 0.03,-11.09 0.16,-13.97 v 0 c 0.29,-10.62 1.77,-14.98 4.91,-17.15 v 0 c 3.23,-2.57 11.66,-4.13 27.29,-4.05 v 0 c 7.95,-0.06 20.75,0.23 27.04,3.27 v 0 c 6.24,3.06 8.83,6.96 11.13,19.32 v 0 c 0.4,1.87 0.61,3.5 1.92,5.53 v 0 c 1.28,2.16 4.51,3.39 6.41,3.2 v 0 c 3.06,0.38 6.68,-2.85 6.96,-5.15 v 0 c 0.63,-2.23 0.48,-3.85 0.52,-5.44 v 0 c -0.06,-7.99 -2.46,-28.47 -4.19,-35.7 v 0 c -1.03,-4.33 -3.27,-8.65 -7.7,-10.38 v 0 c -4.13,-1.58 -7.97,-1.32 -13.87,-1.39 v 0 c -46.95,0 -67.95,1.88 -85.9,1.88 v 0"
         style="fill:#ffffff;fill-opacity:1;fill-rule:nonzero;stroke:none"
         id="path32" />
      <path
         d="m 1459.65,1670.23 c -4.96,2.16 -5.9,3.72 -5.9,10.53 0,17.05 1.24,35.67 1.55,40.63 0.31,4.65 1.24,8.05 3.72,8.05 2.8,0 3.11,-2.79 3.11,-5.27 0,-4.03 1.24,-10.54 2.78,-15.81 6.83,-22.95 25.12,-31.32 44.35,-31.32 27.9,0 41.54,18.92 41.54,35.35 0,15.19 -4.65,29.77 -30.38,49.61 l -14.27,11.16 c -34.1,26.66 -45.89,48.37 -45.89,73.48 0,34.11 28.53,58.6 71.62,58.6 20.16,0 33.19,-3.09 41.24,-5.26 2.8,-0.62 4.35,-1.55 4.35,-3.73 0,-4.02 -1.24,-13.02 -1.24,-37.21 0,-6.81 -0.94,-9.29 -3.42,-9.29 -2.17,0 -3.09,1.85 -3.09,5.58 0,2.78 -1.56,12.4 -8.07,20.46 -4.65,5.89 -13.64,15.19 -33.79,15.19 -22.95,0 -36.9,-13.32 -36.9,-31.94 0,-14.25 7.14,-25.1 32.87,-44.65 l 8.68,-6.5 c 37.21,-28.84 50.85,-49.61 50.85,-79.06 0,-17.99 -6.83,-39.39 -29.15,-53.95 -15.5,-9.93 -32.86,-12.72 -49.3,-12.72 -17.98,0 -31.93,2.18 -45.26,8.07"
         style="fill:#ffffff;fill-opacity:1;fill-rule:nonzero;stroke:none"
         id="path34" />
      <path
         d="m 1504.9,1667.17 c 15.9,0 32.2,2.71 46.57,11.9 v 0 c 20.72,13.57 26.8,32.95 26.89,49.75 v 0 c -0.16,27.61 -12.05,46.33 -48.85,75.07 v 0 l -8.71,6.52 c -25.85,19.47 -34.92,32.17 -34.85,48.63 v 0 c -0.04,10.55 4.05,20.09 11.52,26.7 v 0 c 7.43,6.62 17.96,10.25 30.39,10.25 v 0 c 21.75,0.17 32.8,-10.65 37.67,-17.05 v 0 c 2.54,-3.22 4.4,-6.51 5.76,-9.62 v 0 c 0.25,14.77 0.98,22.22 1.13,25.7 v 0 c -0.16,0.04 -0.37,0.09 -0.61,0.15 v 0 c -7.87,2.09 -20.28,5.07 -39.94,5.07 v 0 c -41.33,-0.28 -66.51,-22.66 -66.62,-53.6 v 0 c 0.11,-23.3 10.4,-43.12 43.97,-69.54 v 0 l 14.25,-11.14 c 26.43,-20.06 32.55,-37.16 32.33,-53.56 v 0 c -0.06,-19.15 -16.21,-40.31 -46.54,-40.35 v 0 c -20.55,-0.25 -41.81,9.61 -49.16,34.92 v 0 c -0.19,0.63 -0.36,1.27 -0.53,1.91 v 0 c -0.41,-7.93 -0.83,-18.31 -0.83,-28.12 v 0 c 0.89,-6.91 -1.09,-3.26 2.9,-5.94 v 0 l -1.99,-4.59 2.01,4.57 c 12.54,-5.52 25.63,-7.63 43.24,-7.63 z m -47.27,-1.51 v -0.02 c -5.92,1.66 -9.77,8.4 -8.88,15.12 v 0 c 0,17.29 1.24,35.97 1.56,40.96 v 0 c 0.19,2.6 0.46,4.97 1.4,7.31 v 0 c 0.69,2.2 3.38,5.48 7.31,5.41 v 0 c 3.17,0.26 6.51,-2.45 7.21,-4.75 v 0 c 0.88,-2.24 0.86,-4.06 0.88,-5.52 v 0 c -0.02,-3.11 1.14,-9.53 2.59,-14.4 v 0 c 6.3,-20.6 21.62,-27.47 39.56,-27.72 v 0 c 25.45,0.12 36.37,16.61 36.52,30.35 v 0 c -0.2,13.97 -3.4,26.04 -28.45,45.67 v 0 l -14.26,11.16 c -34.64,26.89 -47.92,50.5 -47.82,77.41 v 0 c 0.07,37.31 31.77,63.54 76.62,63.59 v 0 c 20.66,0.03 34.29,-3.18 42.34,-5.36 v 0 c 2.92,-0.24 8.42,-3.17 8.25,-8.62 v 0 c -0.03,-4.76 -1.23,-13.05 -1.25,-37.21 v 0 c -0.02,-3.65 -0.15,-6.3 -1.08,-8.94 v 0 c -0.61,-2.64 -4.22,-5.66 -7.31,-5.34 v 0 c -2.54,-0.19 -5.73,1.69 -6.79,4.01 v 0 c -1.14,2.22 -1.28,4.29 -1.33,6.55 v 0 c 0.08,1.48 -1.39,10.66 -6.98,17.38 v 0 c -4.39,5.32 -11.32,13.12 -29.86,13.29 v 0 c -21.05,-0.35 -31.66,-11.11 -31.91,-26.95 v 0 c 0.07,-12.02 5.28,-21.03 30.86,-40.64 v 0 l 8.75,-6.55 c 37.54,-28.88 52.95,-51.71 52.79,-83.03 v 0 c 0.07,-19.15 -7.48,-42.57 -31.45,-58.14 v 0 c -16.61,-10.64 -35.03,-13.51 -52,-13.51 v 0 c -0.08,0 -0.16,0 -0.25,0 v 0 c -18.24,0 -32.97,2.27 -47.02,8.49 v 0"
         style="fill:#ffffff;fill-opacity:1;fill-rule:nonzero;stroke:none"
         id="path36" />
      <path
         d="m 1848.73,1777.81 c 0,69.46 -40,112.55 -90.85,112.55 -35.65,0 -76.27,-19.84 -76.27,-97.04 0,-64.49 35.66,-115.65 95.19,-115.65 21.7,0 71.93,10.53 71.93,100.14 z m -209.91,5.89 c 0,53.02 35.04,121.54 128.05,121.54 77.21,0 125.27,-44.95 125.27,-115.95 0,-71.01 -49.61,-127.13 -128.37,-127.13 -88.99,0 -124.95,66.67 -124.95,121.54"
         style="fill:#ffffff;fill-opacity:1;fill-rule:nonzero;stroke:none"
         id="path38" />
      <path
         d="m 1686.6,1793.33 c 0.27,-62.9 34.03,-110.63 90.19,-110.67 v 0 c 20.17,0.74 66.29,7.74 66.95,95.16 v 0 c -0.28,67.63 -38.16,107.43 -85.86,107.54 v 0 c -33.71,-0.64 -70.64,-16.74 -71.28,-92.03 z m -10.01,0 c -0.02,39.42 10.44,65.19 26.24,80.99 v 0 c 15.8,15.81 36.34,21.07 55.05,21.05 v 0 c 53.99,-0.13 95.74,-46.29 95.83,-117.55 v 0 c 0.06,-45.67 -12.9,-72.4 -29.45,-87.37 v 0 c -16.57,-14.98 -35.87,-17.78 -47.47,-17.78 v 0 c -62.92,0.12 -100.09,54.56 -100.2,120.66 z m -32.77,-9.63 c 0.31,-52.95 33.91,-116.4 119.94,-116.53 v 0 c 76.2,0.19 123.12,53.48 123.36,122.11 v 0 c -0.36,68.5 -45,110.52 -120.25,110.97 v 0 c -90.09,-0.15 -122.72,-65.45 -123.05,-116.55 v 0 z m 119.94,-126.54 c -45.74,-0.04 -78.66,17.31 -99.64,41.94 v 0 c -21.02,24.63 -30.29,56.11 -30.32,84.6 v 0 c 0.03,27.58 9.06,59.06 30.36,83.92 v 0 c 21.28,24.86 54.99,42.69 102.71,42.62 v 0 c 39.55,0.03 72.2,-11.54 94.99,-32.69 v 0 c 22.78,-21.1 35.29,-51.66 35.27,-88.27 v 0 c 0,-36.64 -12.83,-69.75 -36.07,-93.66 v 0 c -23.19,-23.91 -56.69,-38.46 -97.21,-38.46 v 0 c -0.03,0 -0.06,0 -0.09,0 v 0"
         style="fill:#ffffff;fill-opacity:1;fill-rule:nonzero;stroke:none"
         id="path40" />
      <path
         d="m 1995.02,1883.55 -46.2,-1.25 c -17.98,-0.62 -25.42,-2.16 -30.07,-8.99 -3.11,-4.65 -4.66,-8.37 -5.27,-10.85 -0.63,-2.48 -1.56,-3.72 -3.41,-3.72 -2.18,0 -2.8,1.55 -2.8,4.96 0,4.96 5.89,33.18 6.52,35.66 0.93,4.03 1.85,5.88 3.72,5.88 2.48,0 5.58,-3.09 13.33,-3.72 8.99,-0.92 20.77,-1.54 31.01,-1.54 h 122.78 c 19.84,0 27.28,3.09 29.76,3.09 2.17,0 2.48,-1.86 2.48,-6.51 0,-6.5 -0.92,-27.9 -0.92,-35.96 -0.32,-3.1 -0.94,-4.96 -2.8,-4.96 -2.48,0 -3.1,1.55 -3.4,6.2 l -0.32,3.41 c -0.61,8.06 -8.99,16.74 -36.59,17.37 l -39.06,0.93 v -127.13 c 0,-28.53 0,-53.02 1.55,-66.35 0.93,-8.68 2.78,-15.51 12.09,-16.75 4.35,-0.61 11.16,-1.24 15.81,-1.24 3.42,0 4.96,-0.93 4.96,-2.48 0,-2.17 -2.48,-3.1 -5.89,-3.1 -20.45,0 -40,0.93 -48.68,0.93 -7.13,0 -26.66,-0.93 -39.06,-0.93 -4.03,0 -6.2,0.93 -6.2,3.1 0,1.55 1.24,2.48 4.96,2.48 4.65,0 8.37,0.63 11.16,1.24 6.2,1.24 8.06,8.07 8.99,17.05 1.55,13.03 1.55,37.52 1.55,66.05 v 127.13"
         style="fill:#ffffff;fill-opacity:1;fill-rule:nonzero;stroke:none"
         id="path42" />
      <path
         d="m 2000.02,1756.43 c -0.02,-28.57 0.02,-52.99 -1.59,-66.55 v 0 c -0.7,-6.52 -1.8,-13.69 -6.4,-18.02 v 0 c 8.74,0.25 17.24,0.57 21.58,0.57 v 0 c 5.19,0 13.91,-0.31 24.29,-0.57 v 0 c -5.42,4.31 -7.22,11.66 -7.55,17.63 v 0 c -1.59,13.93 -1.57,38.37 -1.59,66.94 v 0 132.23 l 44.2,-1.04 c 20.85,-0.28 32.99,-5.63 38.29,-13.24 v 0 c 0.27,8.74 0.62,18.34 0.62,22.18 v 0 c 0,0.36 0,0.7 -0.01,1.01 v 0 c -1.29,-0.28 -3.09,-0.65 -5.41,-1.01 v 0 c -4.93,-0.79 -12.2,-1.58 -21.82,-1.58 v 0 h -122.79 c -10.44,0 -22.32,0.62 -31.42,1.58 v 0 c -5.3,0.39 -9.29,2.03 -11.44,2.99 v 0 c -0.11,-0.41 -0.23,-0.88 -0.34,-1.42 v 0 c -0.34,-1.12 -2.85,-13.26 -4.62,-22.88 v 0 c 0.19,0.29 0.38,0.59 0.58,0.89 v 0 c 6.34,9.12 16.29,10.59 34.07,11.16 v 0 l 46.2,1.26 5.15,0.13 v -132.26 z m 13.59,-94 c -6.85,0 -26.48,-0.91 -39.05,-0.91 v 0 c -2.43,0.02 -4.53,0.17 -6.79,1.21 v 0 c -2.29,0.88 -4.62,4.02 -4.42,6.87 v 0 c -0.2,2.1 1.46,5.21 3.68,6.21 v 0 c 2.1,1.11 4.01,1.24 6.29,1.28 v 0 c 4.19,0 7.51,0.55 10.18,1.15 v 0 c 2.06,-0.06 4.08,3.5 4.99,12.74 v 0 c 1.49,12.4 1.53,36.97 1.51,65.45 v 0 121.99 l -41.04,-1.12 c -18.18,-0.66 -23.13,-2.29 -26.07,-6.76 v 0 c -2.85,-4.25 -4.15,-7.55 -4.57,-9.29 v 0 c -0.3,-2.85 -3.45,-7.73 -8.25,-7.51 v 0 c -2.2,-0.23 -5.62,1.47 -6.66,3.89 v 0 c -1.11,2.25 -1.11,4.08 -1.13,6.08 v 0 c 0.13,6.68 5.91,33.7 6.64,36.78 v 0 c 0.5,2.21 1,4.02 2.09,5.89 v 0 c 0.9,1.87 3.74,4.02 6.5,3.87 v 0 c 6.3,-0.76 6.85,-3.27 13.83,-3.74 v 0 c 8.78,-0.91 20.46,-1.53 30.5,-1.53 v 0 h 122.79 c 19.8,0.06 24.87,2.85 29.75,3.11 v 0 c 2.58,0.42 6.45,-2.52 6.79,-4.94 v 0 c 0.72,-2.3 0.67,-4.13 0.69,-6.59 v 0 c 0,-6.75 -0.92,-28.1 -0.94,-36.46 v 0 c -0.22,-1.79 -0.4,-3.45 -1.32,-5.38 v 0 c -0.74,-1.94 -3.72,-4.28 -6.45,-4.08 v 0 c -2.14,-0.28 -5.88,1.44 -6.97,4.06 v 0 c -1.15,2.35 -1.24,4.29 -1.42,6.67 v 0 l -0.33,3.51 c -0.16,4.11 -4.64,11.89 -31.74,12.75 v 0 l -33.92,0.8 v -122 c 0,-28.48 0.03,-53.05 1.53,-65.83 v 0 c 1.39,-8.83 1.66,-11.26 7.81,-12.32 v 0 c 4.11,-0.6 10.87,-1.19 15.12,-1.19 v 0 c 2.15,-0.02 4.06,-0.21 6.07,-1.23 v 0 c 2.06,-0.88 4.04,-3.73 3.89,-6.26 v 0 c 0.1,-3.17 -2.38,-6.04 -4.51,-6.87 v 0 c -2.17,-1 -4.21,-1.19 -6.39,-1.24 v 0 c -20.56,0.03 -40.26,0.94 -48.68,0.94 v 0"
         style="fill:#ffffff;fill-opacity:1;fill-rule:nonzero;stroke:none"
         id="path44" />
      <path
         d="m 2247.99,1762.93 c 1.55,0 1.86,0.93 1.55,1.86 l -27.91,76.59 c -0.31,1.24 -0.61,2.78 -1.54,2.78 -0.94,0 -1.56,-1.54 -1.87,-2.78 l -28.52,-76.28 c -0.32,-1.24 0,-2.17 1.24,-2.17 z m -63.25,-15.51 c -1.56,0 -2.17,-0.61 -2.8,-2.48 l -16.74,-44.33 c -3.1,-7.76 -4.64,-15.2 -4.64,-18.91 0,-5.59 2.78,-9.62 12.4,-9.62 h 4.65 c 3.72,0 4.65,-0.62 4.65,-2.48 0,-2.48 -1.86,-3.1 -5.28,-3.1 -9.92,0 -23.25,0.93 -32.86,0.93 -3.41,0 -20.47,-0.93 -36.59,-0.93 -4.02,0 -5.89,0.62 -5.89,3.1 0,1.86 1.24,2.48 3.72,2.48 2.79,0 7.13,0.31 9.61,0.63 14.27,1.85 20.16,12.4 26.36,27.9 l 77.82,194.71 c 3.72,9 5.59,12.41 8.68,12.41 2.79,0 4.66,-2.79 7.76,-9.93 7.44,-17.05 57.05,-143.55 76.89,-190.68 11.79,-27.9 20.77,-32.24 27.29,-33.8 4.64,-0.93 9.3,-1.24 13.01,-1.24 2.48,0 4.04,-0.3 4.04,-2.48 0,-2.48 -2.79,-3.1 -14.26,-3.1 -11.16,0 -33.8,0 -58.61,0.62 -5.58,0.31 -9.29,0.31 -9.29,2.48 0,1.86 1.23,2.48 4.33,2.79 2.17,0.62 4.34,3.41 2.8,7.13 l -24.81,65.73 c -0.62,1.56 -1.55,2.17 -3.1,2.17 h -69.14"
         style="fill:#ffffff;fill-opacity:1;fill-rule:nonzero;stroke:none"
         id="path46" />
      <path
         d="m 2243.07,1767.92 -23.18,63.69 -23.85,-63.69 h 47.03 z m 4.91,-3.15 v 3.15 z m -61.77,-4.85 c -1.37,1.47 -1.67,3.2 -1.64,4.38 v 0 c 0,0.89 0.15,1.56 0.45,2.56 v 0 l 28.34,75.74 c 0.95,1.35 -0.13,5.06 6.72,6.57 v 0 c 3.76,-0.15 5.25,-3.03 5.59,-3.96 v 0 c 0.51,-1.22 0.66,-2.07 0.66,-2.12 v 0 l 28.05,-77.11 c 0.06,-0.26 0.24,-0.79 0.24,-1.82 v 0 c 0.06,-1.38 -0.58,-3.38 -2.11,-4.64 v 0 c -1.49,-1.28 -3.2,-1.58 -4.53,-1.58 v 0 4.99 1.23 -1.23 -4.99 h -57.05 c -0.06,0 -0.11,-0.01 -0.17,-0.01 v 0 c -1.36,0 -3.24,0.54 -4.55,1.99 z m -1.47,-15.33 v 0 z m 168.52,-72.52 c 0,0 0,0.02 -0.01,0.04 v 0 l 0.01,-0.04 z m -22.23,-0.55 c -6.83,4.21 -14.76,13.34 -23.17,33.67 v 0 c -19.88,47.2 -69.54,173.84 -76.87,190.63 v 0 c -1.12,2.58 -2.05,4.5 -2.78,5.67 v 0 c -0.13,0.24 -0.26,0.44 -0.37,0.6 v 0 c -0.9,-1.36 -2.29,-4.31 -4.04,-8.61 v 0 l -77.84,-194.73 c -4.37,-11.21 -9.4,-21.34 -18.37,-26.88 v 0 c 8.02,0.26 14.36,0.55 16.53,0.55 v 0 c 4.43,0 9.55,-0.18 14.73,-0.38 v 0 c -2.53,2.83 -3.35,6.49 -3.29,9.66 v 0 c 0.04,4.89 1.71,12.44 4.95,20.68 v 0 l 16.68,44.15 c 0.04,2.26 4.28,6.52 7.55,5.88 v 0 -4.99 -2.53 2.53 4.99 h 69.13 c 2.93,0.41 7.04,-2.45 7.79,-5.39 v 0 l 24.77,-65.61 c 0.54,-1.39 0.86,-2.84 0.86,-4.34 v 0 c -0.02,-1.88 -0.5,-3.56 -1.31,-4.99 v 0 c 17.25,-0.42 33.34,-0.53 45.05,-0.56 z m -47.36,-9.4 c -2.75,0.17 -5.1,0.22 -7.4,0.64 v 0 c -1.77,0.09 -6.5,1.92 -6.61,6.85 v 0 c -0.22,1.94 1.21,5.12 3.39,6.23 v 0 c 1.56,0.9 2.87,1.2 4.22,1.38 v 0 c -0.02,0.12 -0.07,0.29 -0.17,0.54 v 0 l -24.41,64.67 h -66.35 l -16.49,-43.68 c -2.95,-7.17 -4.35,-14.51 -4.31,-17.05 v 0 c 0.81,-3.56 -0.92,-3.73 7.42,-4.63 v 0 h 4.63 c 2.14,-0.04 3.85,0.02 6.14,-1.15 v 0 c 2.61,-1.26 3.74,-4.78 3.51,-6.31 v 0 c 0.23,-2.43 -1.57,-5.87 -4.04,-6.91 v 0 c -2.32,-1.16 -4.23,-1.16 -6.23,-1.2 v 0 c -10.19,0 -23.52,0.94 -32.85,0.94 v 0 c -3.03,0 -20.37,-0.94 -36.6,-0.94 v 0 c -2.26,0.04 -4.22,0.04 -6.61,1.11 v 0 c -2.56,0.96 -4.54,4.57 -4.27,7 v 0 c -0.17,1.94 1.06,4.94 3.28,6.19 v 0 c 2.07,1.21 3.8,1.25 5.44,1.27 v 0 c 2.43,0 6.79,0.32 8.95,0.6 v 0 c 11.45,1.54 15.99,9.24 22.37,24.81 v 0 l 77.83,194.75 c 1.93,4.59 3.31,7.83 5.04,10.45 v 0 c 1.53,2.52 4.61,5.14 8.27,5.05 v 0 c 3.24,0.09 6.21,-2.04 7.75,-4.26 v 0 c 1.69,-2.26 2.98,-4.99 4.59,-8.66 v 0 c 7.56,-17.32 57.11,-143.68 76.91,-190.74 v 0 c 11.87,-27.47 19.05,-29.59 23.66,-30.84 v 0 c 4.24,-0.85 8.62,-1.16 12.05,-1.16 v 0 c 1.43,-0.04 2.96,0.07 5.19,-0.93 v 0 c 2.38,-0.96 4.07,-4.38 3.84,-6.53 v 0 c 0.42,-3.75 -4.06,-7.36 -6.77,-7.36 v 0 c -2.98,-0.64 -6.63,-0.73 -12.47,-0.75 v 0 c -11.18,0 -33.88,0 -58.9,0.62 v 0"
         style="fill:#ffffff;fill-opacity:1;fill-rule:nonzero;stroke:none"
         id="path48" />
      <path
         d="m 208.496,995.961 c -30.383,26.659 -38.449,61.379 -38.449,91.459 0,21.09 6.516,57.68 36.281,84.96 22.324,20.46 51.777,32.86 97.977,32.86 19.218,0 30.695,-1.24 44.961,-3.09 11.781,-1.55 21.699,-4.35 31.007,-5.27 3.407,-0.32 4.649,-1.86 4.649,-3.73 0,-2.47 -0.93,-6.2 -1.555,-17.04 -0.613,-10.24 -0.312,-27.29 -0.926,-33.49 -0.312,-4.65 -0.929,-7.13 -3.722,-7.13 -2.481,0 -3.106,2.48 -3.106,6.81 -0.3,9.61 -4.336,20.47 -12.09,28.53 -10.23,10.85 -34.414,19.23 -62.937,19.23 -26.973,0 -44.648,-6.83 -58.289,-19.23 -22.641,-20.77 -28.527,-50.22 -28.527,-80.3 0,-73.8 56.121,-110.382 97.664,-110.382 27.597,0 44.336,3.09 56.738,17.364 5.273,5.888 9.308,14.878 10.547,20.458 0.929,4.96 1.554,6.2 4.035,6.2 2.168,0 2.781,-2.17 2.781,-4.65 0,-3.72 -3.719,-30.688 -6.816,-41.239 -1.551,-5.269 -2.793,-6.82 -8.067,-8.98 -12.398,-4.961 -35.964,-7.141 -55.808,-7.141 -42.473,0 -78.133,9.301 -106.348,33.801"
         style="fill:#ffffff;fill-opacity:1;fill-rule:nonzero;stroke:none"
         id="path50" />
      <path
         d="m 314.836,967.16 c 19.41,-0.051 42.937,2.289 53.914,6.77 v 0 c 4.754,2.48 3.211,0.84 5.176,5.781 v 0 c 1.535,5.07 3.347,15.43 4.687,24.329 v 0 c -1.836,-3.44 -4.07,-6.849 -6.672,-9.802 v 0 c -13.855,-15.957 -32.82,-19.136 -60.507,-19.078 v 0 c -44.188,0.102 -102.637,38.75 -102.676,115.37 v 0 c 0,30.63 5.996,61.79 30.168,84.01 v 0 c 14.558,13.31 33.894,20.58 61.648,20.52 v 0 c 29.531,-0.12 54.512,-8.27 66.535,-20.75 v 0 c 4.981,-5.19 8.555,-11.3 10.77,-17.64 v 0 c 0.082,6.63 0.156,14.14 0.48,19.72 v 0 c 0.508,8.7 1.231,13.32 1.485,15.52 v 0 c -0.031,0 -0.047,0 -0.071,0 v 0 c -9.96,1 -19.793,3.8 -31.171,5.28 v 0 c -14.207,1.85 -25.293,3.06 -44.297,3.06 v 0 c -45.36,-0.06 -73.153,-11.98 -94.61,-31.55 v 0 c -28.359,-25.92 -34.675,-61.11 -34.656,-81.28 v 0 c 0.047,-29.25 7.754,-62.22 36.719,-87.67 v 0 0 c 27.078,-23.48 61.277,-32.551 103.078,-32.59 z m -109.621,25.031 3.269,3.77 -3.289,-3.75 C 173.418,1020.06 165,1056.54 165.039,1087.42 v 0 c 0.02,22 6.727,60.01 37.899,88.66 v 0 c 23.195,21.34 54.328,34.23 101.367,34.17 v 0 c 19.425,0 31.281,-1.27 45.586,-3.14 v 0 c 12.199,-1.63 22.199,-4.4 30.82,-5.25 v 0 c 4.629,0 9.59,-4.17 9.191,-8.7 v 0 c -0.058,-3.62 -0.937,-6.58 -1.543,-17.35 v 0 c -0.625,-9.96 -0.293,-26.8 -0.937,-33.52 v 0 c -0.207,-2.5 -0.332,-4.63 -1.359,-7.03 v 0 c -0.809,-2.5 -4.415,-5.06 -7.352,-4.77 v 0 c -3.039,-0.27 -6.477,2.5 -7.121,4.92 v 0 c -0.899,2.37 -0.938,4.48 -0.985,6.75 v 0 c -0.246,8.35 -3.878,18.17 -10.734,25.25 v 0 c -8.387,9.17 -31.785,17.8 -59.297,17.65 v 0 c -26.191,-0.06 -42.207,-6.43 -54.902,-17.92 v 0 c -21.121,-19.34 -26.895,-47.07 -26.914,-76.61 v 0 c 0.097,-70.97 53.769,-105.311 92.676,-105.37 v 0 c 27.484,0.059 42.004,3.059 53.007,15.69 v 0 c 4.477,4.91 8.438,13.64 9.356,18.04 v 0 c 0.539,2.61 0.793,4.47 2.101,6.7 v 0 c 1.297,2.48 4.961,3.82 6.856,3.57 v 0 c 2.851,0.2 5.84,-2.05 6.668,-4.14 v 0 c 0.976,-2.07 1.086,-3.83 1.105,-5.51 v 0 c -0.089,-5.02 -3.711,-31.01 -7.023,-42.639 v 0 c -1.16,-5.601 -5.164,-10.34 -11.004,-12.211 v 0 c -13.789,-5.422 -37.395,-7.441 -57.664,-7.5 v 0 c -43.137,-0.031 -80.266,9.52 -109.621,35.031 v 0"
         style="fill:#ffffff;fill-opacity:1;fill-rule:nonzero;stroke:none"
         id="path52" />
      <path
         d="m 631.055,1077.81 c 0,69.46 -39.992,112.55 -90.84,112.55 -35.664,0 -76.281,-19.84 -76.281,-97.04 0,-64.49 35.656,-115.648 95.187,-115.648 21.707,0 71.934,10.527 71.934,100.138 z m -209.903,5.89 c 0,53.02 35.028,121.54 128.047,121.54 77.207,0 125.262,-44.95 125.262,-115.95 0,-71.01 -49.609,-127.13 -128.359,-127.13 -88.985,0 -124.95,66.67 -124.95,121.54"
         style="fill:#ffffff;fill-opacity:1;fill-rule:nonzero;stroke:none"
         id="path54" />
      <path
         d="m 468.926,1093.32 c 0.293,-62.89 34.035,-110.609 90.195,-110.64 v 0 c 20.176,0.718 66.277,7.73 66.934,95.14 v 0 c -0.274,67.64 -38.164,107.45 -85.852,107.56 v 0 c -33.711,-0.67 -70.633,-16.77 -71.277,-92.06 z m -10,0 c -0.02,39.43 10.418,65.21 26.219,81.02 v 0 c 15.812,15.78 36.359,21.05 55.058,21.03 v 0 c 54.008,-0.13 95.754,-46.27 95.844,-117.55 v 0 c 0.039,-45.68 -12.902,-72.41 -29.465,-87.371 v 0 C 590.027,975.469 570.723,972.68 559.121,972.68 v 0 c -62.93,0.109 -100.09,54.57 -100.195,120.64 z m -32.785,-9.62 c 0.343,-52.96 33.937,-116.399 119.953,-116.552 v 0 c 76.191,0.211 123.117,53.512 123.359,122.132 v 0 c -0.371,68.5 -45.012,110.52 -120.265,110.96 v 0 c -90.086,-0.15 -122.704,-65.42 -123.047,-116.54 v 0 z M 546.094,957.16 c -45.742,-0.039 -78.653,17.309 -99.649,41.942 v 0 c -21.015,24.628 -30.293,56.098 -30.312,84.598 v 0 c 0.019,27.6 9.07,59.06 30.351,83.92 v 0 c 21.27,24.86 54.969,42.68 102.704,42.64 v 0 c 39.542,0 72.218,-11.56 94.992,-32.71 v 0 c 22.793,-21.11 35.312,-51.66 35.273,-88.27 v 0 c 0,-36.65 -12.844,-69.75 -36.074,-93.671 v 0 C 620.215,971.711 586.711,957.16 546.18,957.16 v 0 c -0.028,0 -0.059,0 -0.086,0 v 0"
         style="fill:#ffffff;fill-opacity:1;fill-rule:nonzero;stroke:none"
         id="path56" />
      <path
         d="m 726.805,1110.99 c 0,47.13 0,55.81 -0.614,65.73 -0.625,10.55 -3.105,15.51 -13.339,17.67 -2.481,0.63 -7.747,0.93 -12.09,0.93 -3.41,0 -5.274,0.63 -5.274,2.79 0,2.17 2.18,2.8 6.825,2.8 16.437,0 35.968,-0.93 45.265,-0.93 7.442,0 26.981,0.93 38.145,0.93 4.648,0 6.816,-0.63 6.816,-2.8 0,-2.16 -1.855,-2.79 -4.961,-2.79 -3.41,0 -5.273,-0.3 -8.992,-0.93 -8.371,-1.55 -10.852,-6.81 -11.469,-17.67 -0.625,-9.92 -0.625,-18.6 -0.625,-65.73 v -43.41 c 0,-44.96 8.996,-63.87 24.192,-76.271 13.945,-11.477 28.211,-12.719 38.75,-12.719 13.64,0 30.39,4.34 42.793,16.738 17.05,17.062 17.976,44.962 17.976,76.902 v 38.76 c 0,47.13 0,55.81 -0.613,65.73 -0.625,10.55 -3.106,15.51 -13.332,17.67 -2.481,0.63 -7.754,0.93 -11.16,0.93 -3.418,0 -5.274,0.63 -5.274,2.79 0,2.17 2.168,2.8 6.512,2.8 15.812,0 35.344,-0.93 35.656,-0.93 3.719,0 23.25,0.93 35.344,0.93 4.344,0 6.512,-0.63 6.512,-2.8 0,-2.16 -1.856,-2.79 -5.578,-2.79 -3.418,0 -5.274,-0.3 -8.993,-0.93 -8.371,-1.55 -10.851,-6.81 -11.476,-17.67 -0.613,-9.92 -0.613,-18.6 -0.613,-65.73 v -33.18 c 0,-34.41 -3.418,-71 -29.465,-93.33 -22.012,-18.91 -44.336,-22.32 -64.493,-22.32 -16.425,0 -46.187,0.93 -68.828,21.391 -15.808,14.258 -27.597,37.209 -27.597,82.169 v 45.27"
         style="fill:#ffffff;fill-opacity:1;fill-rule:nonzero;stroke:none"
         id="path58" />
      <path
         d="m 731.785,1065.72 c 0.11,-44.19 11.367,-65.21 25.969,-78.458 v 0 c 20.937,-19.032 49.219,-20.141 65.469,-20.09 v 0 c 19.636,0.058 40.273,3.18 61.23,21.109 v 0 c 24.063,20.429 27.774,55.289 27.735,89.529 v 0 l -0.032,33.19 c 0.032,47.11 0,55.84 0.637,66.01 v 0 c 0.027,7.48 2.156,14.39 7,18.54 v 0 c -8.113,-0.26 -15.469,-0.57 -17.801,-0.57 v 0 c -0.449,0.02 -6.965,0.32 -15.41,0.58 v 0 c 5.535,-4.15 8.074,-11.03 7.996,-18.53 v 0 c 0.617,-10.19 0.617,-18.92 0.617,-66.03 v 0 -38.77 c -0.129,-31.88 -0.488,-61.14 -19.445,-80.441 v 0 c -13.641,-13.59 -31.68,-18.187 -46.316,-18.187 v 0 c -10.911,-0.051 -26.809,1.339 -41.914,13.839 v 0 c -16.692,13.499 -26.172,34.769 -26.047,80.139 v 0 43.42 c 0.019,47.11 0,55.84 0.644,66.01 v 0 c 0.02,7.49 2.149,14.41 7.004,18.55 v 0 c -8.516,-0.26 -17.051,-0.58 -21.555,-0.58 v 0 c -5.613,0 -14.628,0.32 -24.402,0.59 v 0 c 5.547,-4.14 8.086,-11.03 8.016,-18.54 v 0 c 0.625,-10.19 0.605,-18.92 0.625,-66.03 v 0 l -0.02,-45.28 z m 91.438,-108.56 c -16.614,0.039 -47.864,0.789 -72.18,22.692 v 0 c -17.031,15.25 -29.344,40.148 -29.258,85.868 v 0 45.28 c 0.02,47.15 0,55.75 -0.586,65.42 v 0 c -1.363,10.22 -0.965,10.57 -9.59,13.13 v 0 c -1.441,0.42 -6.816,0.82 -10.847,0.78 v 0 c -2.032,0.04 -3.879,0.08 -6.074,1.06 v 0 c -2.336,0.87 -4.454,4.2 -4.2,6.72 v 0 c -0.312,2.94 2.539,6.35 4.883,6.9 v 0 c 2.313,0.82 4.363,0.88 6.942,0.9 v 0 c 16.574,0 36.21,-0.92 45.253,-0.92 v 0 c 7.188,0 26.778,0.92 38.157,0.92 v 0 c 2.558,-0.02 4.609,-0.08 6.914,-0.9 v 0 c 2.351,-0.55 5.183,-3.99 4.89,-6.9 v 0 c 0.235,-2.5 -1.785,-5.77 -4.07,-6.67 v 0 c -2.18,-1.03 -4.004,-1.07 -5.891,-1.11 v 0 c -3.086,0 -4.382,-0.23 -8.074,-0.84 v 0 c -5.793,-1.53 -6.191,-2.33 -7.414,-13.09 v 0 c -0.586,-9.65 -0.605,-18.25 -0.586,-65.4 v 0 l -0.019,-43.42 c 0.148,-44.53 8.664,-61.09 22.382,-72.408 v 0 c 12.754,-10.442 25.383,-11.543 35.579,-11.563 v 0 c 12.625,-0.019 28.086,4.071 39.246,15.27 v 0 c 15.148,14.831 16.633,41.361 16.523,73.351 v 0 l -0.019,38.77 c 0.019,47.15 0,55.75 -0.606,65.42 v 0 c -1.348,10.22 -0.945,10.57 -9.57,13.13 v 0 c -1.422,0.42 -6.875,0.82 -9.922,0.78 v 0 c -2.012,0.04 -3.856,0.06 -6.074,1.06 v 0 c -2.332,0.87 -4.434,4.2 -4.199,6.72 v 0 c -0.27,2.91 2.472,6.29 4.804,6.88 v 0 c 2.266,0.84 4.278,0.9 6.711,0.92 v 0 c 15.86,0 35.613,-0.94 35.664,-0.92 v 0 c 3.379,-0.02 23.094,0.92 35.344,0.92 v 0 c 2.41,-0.02 4.422,-0.08 6.707,-0.92 v 0 c 2.312,-0.59 5.078,-3.97 4.785,-6.88 v 0 c 0.274,-2.52 -1.933,-5.94 -4.297,-6.73 v 0 c -2.246,-0.99 -4.133,-1.01 -6.269,-1.05 v 0 c -3.106,-0.02 -4.387,-0.23 -8.078,-0.84 v 0 c -5.789,-1.53 -6.192,-2.33 -7.391,-13.07 v 0 c -0.605,-9.67 -0.625,-18.27 -0.625,-65.42 v 0 -33.19 c -0.039,-34.59 -3.164,-72.91 -31.191,-97.119 v 0 C 868.027,960.922 844.148,957.16 823.574,957.16 v 0 c -0.117,0 -0.234,0 -0.351,0 v 0"
         style="fill:#ffffff;fill-opacity:1;fill-rule:nonzero;stroke:none"
         id="path60" />
      <path
         d="m 1015.42,1008.67 c 0.62,-24.19 4.66,-32.24 10.86,-34.408 5.26,-1.871 11.16,-2.184 16.12,-2.184 3.41,0 5.27,-0.617 5.27,-2.476 0,-2.481 -2.79,-3.102 -7.13,-3.102 -20.16,0 -32.56,0.93 -38.45,0.93 -2.793,0 -17.363,-0.93 -33.488,-0.93 -4.032,0 -6.817,0.32 -6.817,3.102 0,1.859 1.856,2.476 4.961,2.476 4.024,0 9.609,0.313 13.945,1.551 8.067,2.48 9.309,11.48 9.622,38.451 l 2.781,183.56 c 0,6.2 0.937,10.53 4.035,10.53 3.411,0 6.201,-4.02 11.471,-9.61 3.72,-4.02 50.85,-54.57 96.12,-99.53 21.08,-21.07 62.95,-65.72 68.21,-70.68 h 1.55 l -3.09,139.21 c -0.32,18.91 -3.11,24.8 -10.55,27.91 -4.65,1.85 -12.09,1.85 -16.44,1.85 -3.72,0 -4.96,0.93 -4.96,2.79 0,2.49 3.42,2.8 8.07,2.8 16.12,0 31.01,-0.93 37.52,-0.93 3.41,0 15.18,0.93 30.38,0.93 4.03,0 7.13,-0.31 7.13,-2.8 0,-1.86 -1.86,-2.79 -5.58,-2.79 -3.1,0 -5.58,0 -9.3,-0.93 -8.69,-2.48 -11.17,-8.99 -11.47,-26.35 l -3.42,-195.649 c 0,-6.821 -1.24,-9.61 -4.02,-9.61 -3.42,0 -7.14,3.41 -10.55,6.821 -19.53,18.597 -59.22,59.228 -91.46,91.158 -33.8,33.49 -68.22,72.25 -73.8,78.14 h -0.93 l 3.41,-130.23"
         style="fill:#ffffff;fill-opacity:1;fill-rule:nonzero;stroke:none"
         id="path62" />
      <path
         d="m 1188.74,957.789 c -6.78,0.402 -10.44,4.922 -13.99,8.191 v 0 c -19.68,18.75 -59.33,59.33 -91.55,91.23 v 0 c -26.11,25.89 -52.6,54.92 -65.89,69.51 v 0 l 3.09,-117.91 -4.99,-0.13 -4.99,-0.13 -3.56,135.35 h 5.14 3.07 l 1.49,-1.56 c 5.73,-6.06 40.01,-44.65 73.69,-78.01 v 0 c 32.28,-31.97 72,-72.631 91.49,-91.201 v 0 c 2.1,-2.289 4.4,-4.008 5.77,-4.828 v 0 c 0.16,0.961 0.28,2.359 0.26,4.179 v 0 l 3.41,195.65 c 0.18,8.9 0.78,15.34 2.99,20.62 v 0 c 1.08,2.73 2.82,5.04 4.99,6.83 v 0 c -6.83,-0.26 -11.81,-0.59 -14.14,-0.6 v 0 c -3.84,0.01 -10.12,0.3 -17.7,0.55 v 0 c 6.59,-5.02 9.09,-14.34 9.05,-29.87 v 0 l 3.2,-144.31 h -5.1 -3.55 l -1.44,1.36 c -5.63,5.34 -47.26,49.76 -68.29,70.79 v 0 c -45.37,45.05 -92.5,95.61 -96.24,99.63 v 0 c -2.91,3.16 -5.196,5.73 -6.591,7.05 v 0 c -0.168,-1.15 -0.285,-2.75 -0.273,-4.61 v 0 l -2.793,-183.54 c -0.148,-13.569 -0.488,-22.69 -2.023,-29.471 v 0 c -0.821,-4.297 -2.762,-8.098 -5.653,-10.688 v 0 c 7.227,0.258 12.603,0.551 14.473,0.57 v 0 c 3.83,0 9.82,-0.351 18.45,-0.613 v 0 c -6.89,5.262 -9.52,16.16 -10.12,36.722 v 0 l 4.99,0.13 4.99,0.13 c 0.57,-24.162 5.09,-29.47 7.55,-29.83 v 0 c 4.32,-1.558 9.71,-1.91 14.44,-1.89 v 0 c 2.02,-0.039 3.81,-0.102 5.91,-0.969 v 0 c 2.13,-0.633 4.59,-3.812 4.36,-6.519 v 0 c 0.23,-3.352 -2.84,-6.59 -5.18,-7.161 v 0 c -2.37,-0.839 -4.52,-0.902 -6.94,-0.921 v 0 c -20.27,0 -32.98,0.921 -38.45,0.921 v 0 c -2.336,0 -17.285,-0.921 -33.488,-0.921 v 0 c -2.168,0.019 -4.188,-0.032 -6.61,0.769 v 0 c -2.461,0.512 -5.539,4.121 -5.215,7.313 v 0 c -0.214,2.707 2.149,5.808 4.246,6.5 v 0 c 2.063,0.886 3.829,0.949 5.723,0.988 v 0 c 3.731,-0.02 9.074,0.332 12.465,1.332 v 0 c 2.184,0.879 2.879,1.148 4.312,6.367 v 0 c 1.184,5.07 1.645,13.961 1.79,27.361 v 0 l 2.781,183.49 c 0.019,3.36 0.187,6.35 1.117,9.17 v 0 c 0.625,2.65 3.57,6.46 7.906,6.35 v 0 c 7.813,-0.82 9.853,-6.16 15.143,-11.2 v 0 c 3.68,-3.97 50.8,-54.52 95.98,-99.39 v 0 c 16.82,-16.82 46.96,-48.71 61,-63.31 v 0 l -2.86,128.21 c -0.66,19.12 -2.62,21.17 -7.4,23.36 v 0 c -3.07,1.33 -10.35,1.56 -14.58,1.5 v 0 c -2.27,0.04 -4.23,0.15 -6.46,1.41 v 0 c -2.35,1.22 -3.68,4.44 -3.5,6.37 v 0 c -0.18,4.09 3.83,6.91 5.98,7.16 v 0 c 2.38,0.61 4.63,0.61 7.1,0.65 v 0 c 16.24,-0.02 31.34,-0.94 37.5,-0.94 v 0 c 2.9,0 15.07,0.94 30.39,0.92 v 0 c 2.15,-0.02 4.21,0 6.52,-0.67 v 0 c 2.19,-0.32 5.83,-3.39 5.6,-7.12 v 0 c 0.17,-2.69 -1.99,-5.7 -4.16,-6.56 v 0 c -2.13,-1.03 -4.13,-1.2 -6.41,-1.22 v 0 c -3.15,0 -4.9,0 -7.95,-0.74 v 0 c -3.35,-1.11 -4.27,-1.89 -5.64,-4.73 v 0 c -1.28,-2.93 -2.06,-8.44 -2.19,-16.9 v 0 l -3.43,-195.562 c -0.02,-3.726 -0.23,-6.589 -1.34,-9.32 v 0 c -0.85,-2.668 -4.16,-5.308 -7.25,-5.308 v 0 c -0.14,0 -0.28,0.011 -0.42,0.019 v 0"
         style="fill:#ffffff;fill-opacity:1;fill-rule:nonzero;stroke:none"
         id="path64" />
      <path
         d="m 1290.08,995.961 c -30.38,26.659 -38.45,61.379 -38.45,91.459 0,21.09 6.51,57.68 36.28,84.96 22.32,20.46 51.78,32.86 97.98,32.86 19.22,0 30.69,-1.24 44.96,-3.09 11.78,-1.55 21.7,-4.35 31.01,-5.27 3.4,-0.32 4.64,-1.86 4.64,-3.73 0,-2.47 -0.92,-6.2 -1.55,-17.04 -0.61,-10.24 -0.31,-27.29 -0.93,-33.49 -0.31,-4.65 -0.92,-7.13 -3.72,-7.13 -2.48,0 -3.1,2.48 -3.1,6.81 -0.31,9.61 -4.34,20.47 -12.09,28.53 -10.24,10.85 -34.42,19.23 -62.94,19.23 -26.98,0 -44.65,-6.83 -58.29,-19.23 -22.64,-20.77 -28.53,-50.22 -28.53,-80.3 0,-73.8 56.12,-110.382 97.67,-110.382 27.59,0 44.33,3.09 56.74,17.364 5.27,5.888 9.3,14.878 10.54,20.458 0.93,4.96 1.56,6.2 4.04,6.2 2.16,0 2.78,-2.17 2.78,-4.65 0,-3.72 -3.72,-30.688 -6.82,-41.239 -1.55,-5.269 -2.79,-6.82 -8.06,-8.98 -12.41,-4.961 -35.97,-7.141 -55.81,-7.141 -42.48,0 -78.14,9.301 -106.35,33.801"
         style="fill:#ffffff;fill-opacity:1;fill-rule:nonzero;stroke:none"
         id="path66" />
      <path
         d="m 1396.43,967.148 c 19.39,-0.039 42.93,2.301 53.9,6.782 v 0 c 4.75,2.48 3.23,0.851 5.17,5.761 v 0 c 1.54,5.079 3.34,15.418 4.68,24.309 v 0 c -1.83,-3.43 -4.07,-6.82 -6.66,-9.762 v 0 C 1439.67,978.281 1420.71,975.102 1393,975.16 v 0 c -44.19,0.09 -102.62,38.75 -102.67,115.37 v 0 c 0,30.62 6,61.8 30.17,84.01 v 0 c 14.56,13.31 33.89,20.6 61.66,20.53 v 0 c 29.54,-0.15 54.51,-8.29 66.54,-20.77 v 0 c 4.97,-5.18 8.54,-11.28 10.75,-17.62 v 0 c 0.09,6.63 0.17,14.13 0.5,19.71 v 0 c 0.51,8.7 1.22,13.31 1.47,15.51 v 0 c -0.02,0 -0.05,0 -0.07,0 v 0 c -9.94,1.02 -19.8,3.8 -31.16,5.3 v 0 c -14.22,1.84 -25.31,3.04 -44.3,3.04 v 0 c -45.36,-0.06 -73.16,-11.96 -94.62,-31.53 v 0 c -28.35,-25.92 -34.66,-61.13 -34.66,-81.28 v 0 c 0.06,-29.26 7.76,-62.22 36.73,-87.7 v 0 l 0.02,0.02 c 27.05,-23.5 61.25,-32.551 103.07,-32.602 z m -109.64,25.043 3.3,3.778 -3.32,-3.758 c -31.77,27.839 -40.19,64.329 -40.15,95.219 v 0 c 0.02,22.01 6.72,59.98 37.91,88.64 v 0 c 23.19,21.35 54.31,34.24 101.36,34.18 v 0 c 19.42,0 31.28,-1.27 45.59,-3.14 v 0 c 12.2,-1.63 22.2,-4.42 30.81,-5.26 v 0 c 4.63,0 9.57,-4.16 9.19,-8.7 v 0 c -0.04,-3.63 -0.93,-6.58 -1.54,-17.35 v 0 c -0.61,-9.96 -0.3,-26.79 -0.96,-33.52 v 0 c -0.18,-2.49 -0.31,-4.62 -1.34,-7.03 v 0 c -0.8,-2.49 -4.42,-5.04 -7.35,-4.75 v 0 c -3.03,-0.27 -6.48,2.49 -7.14,4.92 v 0 c -0.88,2.37 -0.92,4.48 -0.96,6.74 v 0 c -0.24,8.35 -3.89,18.17 -10.73,25.24 v 0 c -8.39,9.18 -31.78,17.8 -59.3,17.67 v 0 c -26.18,-0.07 -42.22,-6.46 -54.9,-17.92 v 0 c -21.14,-19.36 -26.9,-47.07 -26.92,-76.62 v 0 c 0.09,-70.96 53.78,-105.311 92.66,-105.37 v 0 c 27.51,0.059 42.01,3.059 53.02,15.68 v 0 c 4.5,4.92 8.44,13.65 9.35,18.05 v 0 c 0.56,2.61 0.81,4.47 2.12,6.7 v 0 c 1.28,2.48 4.95,3.83 6.84,3.58 v 0 c 2.85,0.19 5.85,-2.07 6.67,-4.16 v 0 c 0.98,-2.07 1.09,-3.84 1.11,-5.49 v 0 c -0.1,-5.03 -3.71,-31.02 -7.02,-42.649 v 0 c -1.16,-5.621 -5.18,-10.332 -11,-12.199 v 0 c -13.81,-5.434 -37.4,-7.461 -57.66,-7.524 v 0 c -43.15,-0.019 -80.28,9.524 -109.64,35.043 v 0"
         style="fill:#ffffff;fill-opacity:1;fill-rule:nonzero;stroke:none"
         id="path68" />
      <path
         d="m 1533.43,1110.99 c 0,47.13 0,55.81 -0.63,65.73 -0.61,10.55 -3.72,15.82 -10.53,17.36 -3.41,0.94 -7.45,1.24 -11.17,1.24 -3.1,0 -4.96,0.63 -4.96,3.11 0,1.85 2.48,2.48 7.44,2.48 11.78,0 31.32,-0.93 40.31,-0.93 7.75,0 26.04,0.93 37.83,0.93 4.03,0 6.51,-0.63 6.51,-2.48 0,-2.48 -1.86,-3.11 -4.96,-3.11 -3.1,0 -5.58,-0.3 -9.31,-0.93 -8.36,-1.55 -10.85,-6.81 -11.47,-17.67 -0.62,-9.92 -0.62,-18.6 -0.62,-65.73 v -54.57 c 0,-30.07 0,-54.57 1.24,-67.9 0.93,-8.372 3.1,-13.961 12.41,-15.2 4.33,-0.609 11.16,-1.242 15.81,-1.242 3.41,0 4.96,-0.93 4.96,-2.476 0,-2.172 -2.48,-3.102 -5.89,-3.102 -20.47,0 -40,0.93 -48.37,0.93 -7.13,0 -26.67,-0.93 -39.07,-0.93 -4.02,0 -6.2,0.93 -6.2,3.102 0,1.546 1.24,2.476 4.96,2.476 4.66,0 8.38,0.633 11.16,1.242 6.2,1.239 8.07,6.512 8.99,15.512 1.56,13.018 1.56,37.518 1.56,67.588 v 54.57"
         style="fill:#ffffff;fill-opacity:1;fill-rule:nonzero;stroke:none"
         id="path70" />
      <path
         d="m 1538.41,1056.43 c 0,-30.14 0.03,-54.56 -1.56,-68.11 v 0 c -0.47,-6.23 -1.97,-12.582 -6.1,-16.449 v 0 c 8.63,0.25 16.98,0.551 21.28,0.551 v 0 c 4.93,0 13.37,-0.293 23.51,-0.551 v 0 c -5.01,3.899 -7.17,10.34 -7.41,16.18 v 0 c -1.28,13.819 -1.27,38.269 -1.27,68.379 v 0 54.56 c 0,47.11 0,55.86 0.62,66.03 v 0 c 0.03,7.48 2.17,14.39 7.02,18.54 v 0 c -8.11,-0.27 -16.02,-0.57 -20.61,-0.57 v 0 c -5.47,0 -14.53,0.33 -23.4,0.59 v 0 c 4.73,-3.98 7.11,-10.77 7.28,-18.54 v 0 c 0.64,-10.19 0.64,-18.94 0.64,-66.05 v 0 -54.56 z m 13.62,-93.989 c -6.87,0 -26.51,-0.921 -39.07,-0.921 v 0 c -2.41,0.019 -4.52,0.179 -6.79,1.218 v 0 c -2.28,0.852 -4.61,4 -4.42,6.852 v 0 c -0.21,2.121 1.46,5.219 3.68,6.219 v 0 c 2.09,1.101 4.01,1.242 6.28,1.261 v 0 c 4.21,0 7.53,0.578 10.16,1.168 v 0 c 2.85,0.551 3.83,1.992 5.02,11.184 v 0 c 1.5,12.398 1.55,36.988 1.55,67.008 v 0 54.56 h -0.03 c 0.03,47.15 0,55.78 -0.61,65.44 v 0 c -0.97,10.06 -2.54,11.61 -6.87,12.83 v 0 c -2.71,0.76 -6.39,1.08 -9.84,1.08 v 0 c -1.87,0.02 -3.78,0.04 -6.04,1.23 v 0 c -2.41,1.1 -4.12,4.44 -3.91,6.87 v 0 c -0.17,3.61 3.31,6.36 5.37,6.7 v 0 c 2.2,0.66 4.35,0.76 7.06,0.78 v 0 c 11.97,0 31.57,-0.93 40.32,-0.93 v 0 c 7.46,0 25.84,0.93 37.82,0.93 v 0 c 2.28,-0.02 4.28,-0.12 6.4,-0.82 v 0 c 1.98,-0.43 5.25,-3.11 5.1,-6.66 v 0 c 0.22,-2.43 -1.5,-5.77 -3.9,-6.87 v 0 c -2.29,-1.19 -4.17,-1.21 -6.03,-1.23 v 0 c -2.77,-0.02 -4.84,-0.25 -8.42,-0.85 v 0 c -5.79,-1.54 -6.17,-2.32 -7.38,-13.08 v 0 c -0.61,-9.64 -0.61,-18.27 -0.61,-65.42 v 0 -54.56 c 0,-30.04 0,-54.59 1.21,-67.371 v 0 c 1.52,-8.18 1.27,-9.36 8.13,-10.778 v 0 c 4.08,-0.582 10.87,-1.211 15.12,-1.211 v 0 c 2.14,-0.019 4.04,-0.199 6.07,-1.218 v 0 c 2.03,-0.872 4.04,-3.704 3.87,-6.262 v 0 c 0.13,-3.16 -2.37,-6.02 -4.48,-6.852 v 0 c -2.18,-1.008 -4.23,-1.199 -6.39,-1.218 v 0 c -20.6,0 -40.27,0.921 -48.37,0.921 v 0"
         style="fill:#ffffff;fill-opacity:1;fill-rule:nonzero;stroke:none"
         id="path72" />
      <path
         d="m 1706.1,1056.42 c 0,-39.69 0,-61.092 6.51,-66.658 5.27,-4.653 13.34,-6.832 37.52,-6.832 16.43,0 28.52,0.308 36.28,8.691 3.72,4.02 7.44,12.709 8.05,18.589 0.31,2.8 0.94,4.66 3.42,4.66 2.17,0 2.48,-1.55 2.48,-5.27 0,-3.41 -2.18,-26.67 -4.66,-35.651 -1.85,-6.828 -3.41,-8.379 -19.53,-8.379 -44.65,0 -65.11,1.86 -90.22,1.86 -7.13,0 -26.67,-0.93 -39.08,-0.93 -4.02,0 -6.2,0.93 -6.2,3.102 0,1.546 1.24,2.476 4.96,2.476 4.66,0 8.38,0.633 11.17,1.242 6.2,1.239 7.75,8.071 8.99,17.051 1.55,13.029 1.55,37.519 1.55,66.049 v 54.57 c 0,47.13 0,55.81 -0.62,65.73 -0.62,10.55 -3.1,15.51 -13.33,17.67 -2.48,0.63 -6.2,0.93 -10.24,0.93 -3.4,0 -5.26,0.63 -5.26,2.79 0,2.17 2.17,2.8 6.82,2.8 14.57,0 34.11,-0.93 42.48,-0.93 7.44,0 30.08,0.93 42.17,0.93 4.33,0 6.51,-0.63 6.51,-2.8 0,-2.16 -1.87,-2.79 -5.59,-2.79 -3.41,0 -8.37,-0.3 -12.09,-0.93 -8.37,-1.55 -10.85,-6.81 -11.47,-17.67 -0.62,-9.92 -0.62,-18.6 -0.62,-65.73 v -54.57"
         style="fill:#ffffff;fill-opacity:1;fill-rule:nonzero;stroke:none"
         id="path74" />
      <path
         d="m 1776.17,970.578 c 7.88,-0.066 11.97,0.57 12.97,1.141 v 0 c 0.69,0.429 0.67,0.09 1.74,3.551 v 0 c 1.07,3.769 2.17,11.289 3,18.339 v 0 c -1.16,-1.988 -2.44,-3.82 -3.81,-5.39 v 0 c -9.91,-10.399 -23.69,-10.18 -39.94,-10.289 v 0 c -24.24,0.019 -33.8,2.011 -40.79,8.031 v 0 c -9.69,10.109 -7.66,30.449 -8.25,70.469 v 0 54.56 c 0,47.11 0,55.86 0.62,66.03 v 0 c 0.03,7.45 2.15,14.34 6.96,18.49 v 0 c -8.83,-0.25 -17.33,-0.52 -21.48,-0.52 v 0 c -5.14,0 -14.08,0.33 -23.51,0.6 v 0 c 5.56,-4.15 8.11,-11.04 8.02,-18.55 v 0 c 0.63,-10.19 0.63,-18.94 0.63,-66.05 v 0 -54.56 c 0,-28.58 0.02,-52.99 -1.59,-66.739 v 0 c -0.94,-6.351 -1.87,-13.492 -6.46,-17.832 v 0 c 8.78,0.262 17.3,0.582 21.66,0.582 v 0 c 25.41,0 45.73,-1.863 90.23,-1.863 z m -90.23,-8.137 c -6.87,0 -26.51,-0.941 -39.08,-0.941 v 0 c -2.39,0.02 -4.51,0.199 -6.75,1.23 v 0 c -2.3,0.872 -4.62,4.008 -4.44,6.872 v 0 c -0.21,2.097 1.47,5.207 3.67,6.207 v 0 c 2.11,1.101 4.01,1.25 6.29,1.269 v 0 c 4.2,0 7.52,0.582 10.17,1.141 v 0 c 1.97,-0.11 3.82,3.461 5.01,12.742 v 0 c 1.5,12.419 1.52,36.979 1.52,65.469 v 0 54.56 c 0,47.14 0,55.77 -0.61,65.44 v 0 c -1.36,10.21 -0.94,10.57 -9.56,13.14 v 0 c -1.74,0.44 -5.26,0.78 -9.01,0.76 v 0 c -2.03,0.04 -3.87,0.06 -6.08,1.08 v 0 c -2.32,0.85 -4.42,4.19 -4.19,6.72 v 0 c -0.3,2.89 2.54,6.33 4.89,6.88 v 0 c 2.31,0.83 4.37,0.87 6.93,0.89 v 0 c 14.73,0 34.37,-0.91 42.49,-0.91 v 0 c 7.18,0 29.9,0.91 42.17,0.91 v 0 c 2.4,-0.02 4.41,-0.06 6.69,-0.91 v 0 c 2.32,-0.59 5.09,-3.97 4.8,-6.86 v 0 c 0.27,-2.55 -1.93,-5.96 -4.31,-6.77 v 0 c -2.24,-0.97 -4.13,-0.99 -6.27,-1.03 v 0 c -3.11,0 -7.99,-0.3 -11.17,-0.85 v 0 c -5.8,-1.53 -6.18,-2.31 -7.39,-13.08 v 0 c -0.62,-9.64 -0.62,-18.27 -0.62,-65.41 v 0 -54.56 c -0.59,-39.36 1.44,-61.821 4.81,-62.918 v 0 c 3.52,-3.231 10.12,-5.602 34.23,-5.582 v 0 c 16.61,-0.078 26.99,0.742 32.61,7.101 v 0 c 2.65,2.629 6.42,11.279 6.74,15.749 v 0 c 0.23,1.62 0.4,3.36 1.6,5.44 v 0 c 1.18,2.18 4.33,3.84 6.79,3.64 v 0 c 2.16,0.36 6,-1.79 6.7,-4.33 v 0 c 0.84,-2.3 0.74,-3.91 0.78,-5.92 v 0 c -0.07,-4.35 -2.12,-26.86 -4.83,-36.969 v 0 c -0.8,-3.379 -2.52,-7.891 -7.1,-9.961 v 0 c -4.28,-1.899 -9.03,-2.039 -17.25,-2.11 v 0 c -44.79,0 -65.4,1.871 -90.23,1.871 v 0"
         style="fill:#ffffff;fill-opacity:1;fill-rule:nonzero;stroke:none"
         id="path76" />
      <path
         d="m 2105.4,1077.81 c 0,69.46 -39.99,112.55 -90.84,112.55 -35.66,0 -76.28,-19.84 -76.28,-97.04 0,-64.49 35.66,-115.648 95.19,-115.648 21.71,0 71.93,10.527 71.93,100.138 z m -209.9,5.89 c 0,53.02 35.03,121.54 128.04,121.54 77.21,0 125.28,-44.95 125.28,-115.95 0,-71.01 -49.61,-127.13 -128.37,-127.13 -88.99,0 -124.95,66.67 -124.95,121.54"
         style="fill:#ffffff;fill-opacity:1;fill-rule:nonzero;stroke:none"
         id="path78" />
      <path
         d="m 1943.28,1093.33 c 0.27,-62.9 34.02,-110.619 90.18,-110.65 v 0 c 20.19,0.718 66.28,7.718 66.94,95.13 v 0 c -0.27,67.64 -38.15,107.46 -85.84,107.57 v 0 c -33.72,-0.67 -70.64,-16.77 -71.28,-92.05 z m -10.02,0 c -0.02,39.42 10.45,65.21 26.23,81 v 0 c 15.81,15.81 36.35,21.05 55.07,21.02 v 0 c 54,-0.1 95.73,-46.26 95.82,-117.54 v 0 c 0.06,-45.66 -12.89,-72.39 -29.45,-87.361 v 0 c -16.56,-14.98 -35.87,-17.769 -47.47,-17.769 v 0 c -62.92,0.101 -100.09,54.55 -100.2,120.65 z m -32.77,-9.62 c 0.32,-52.97 33.94,-116.421 119.95,-116.538 v 0 c 76.19,0.207 123.11,53.488 123.37,122.108 v 0 c -0.36,68.49 -45.03,110.54 -120.27,110.97 v 0 c -90.09,-0.15 -122.71,-65.44 -123.05,-116.54 v 0 z m 119.95,-126.538 c -45.73,-0.051 -78.65,17.308 -99.65,41.93 v 0 c -21.01,24.618 -30.28,56.098 -30.3,84.608 v 0 c 0.02,27.57 9.06,59.04 30.34,83.9 v 0 c 21.28,24.87 54.99,42.7 102.71,42.64 v 0 c 39.54,0.02 72.22,-11.55 94.98,-32.69 v 0 c 22.8,-21.12 35.33,-51.66 35.29,-88.28 v 0 c 0,-36.64 -12.83,-69.75 -36.07,-93.671 v 0 c -23.2,-23.89 -56.7,-38.437 -97.21,-38.437 v 0 c -0.03,0 -0.07,0 -0.09,0 v 0"
         style="fill:#ffffff;fill-opacity:1;fill-rule:nonzero;stroke:none"
         id="path80" />
      <path
         d="m 2246.44,1056.42 c 0,-29.77 0,-53.02 1.54,-66.049 0.94,-8.98 2.79,-15.812 12.09,-17.051 4.34,-0.609 11.17,-1.242 15.51,-1.242 4.03,0 5.27,-0.93 5.27,-2.476 0,-2.172 -2.17,-3.102 -6.83,-3.102 -19.53,0 -39.06,0.93 -47.13,0.93 -8.05,0 -27.58,-0.93 -39.37,-0.93 -4.35,0 -6.51,0.621 -6.51,3.102 0,1.546 1.24,2.476 4.64,2.476 4.66,0 8.38,0.633 11.18,1.242 6.19,1.239 7.74,8.071 8.98,17.051 1.55,13.029 1.55,36.279 1.55,66.049 v 54.57 c 0,47.13 0,55.81 -0.61,65.73 -0.63,10.55 -3.11,15.51 -13.34,17.67 -2.48,0.63 -7.76,0.93 -12.09,0.93 -3.11,0 -5.28,0.63 -5.28,2.48 0,2.48 2.48,3.11 7.13,3.11 16.14,0 35.67,-0.93 44.65,-0.93 11.79,0 74.73,0 81.86,0.3 5.9,0.32 9.62,0.32 12.71,1.24 1.87,0.63 3.42,1.87 4.96,1.87 1.24,0 2.17,-1.24 2.17,-2.79 0,-2.17 -1.54,-5.89 -2.48,-13.96 -0.3,-3.09 -0.93,-21.39 -1.54,-25.12 -0.31,-2.48 -0.94,-4.33 -3.11,-4.33 -2.17,0 -2.79,1.55 -3.09,4.96 0,2.48 0,7.44 -1.87,11.78 -2.17,4.34 -8.68,8.99 -20.46,9.3 l -47.75,0.93 c -1.86,0 -2.78,-0.93 -2.78,-4.34 v -77.52 c 0,-1.85 0.3,-2.79 2.16,-2.79 l 39.69,0.31 c 5.27,0 9.61,0 13.95,0.32 5.89,0.31 10.23,1.55 13.34,5.58 1.54,1.86 2.16,3.1 4.02,3.1 1.25,0 1.86,-0.93 1.86,-2.79 0,-1.86 -1.55,-9.61 -2.48,-19.22 -0.61,-6.2 -1.24,-20.47 -1.24,-22.64 0,-2.79 0,-5.89 -3.1,-5.89 -1.86,0 -2.48,2.17 -2.48,4.34 0,2.17 -0.62,5.9 -1.86,9.61 -1.55,4.34 -6.2,9.92 -15.81,11.17 -7.75,0.93 -40.61,0.93 -45.89,0.93 -1.55,0 -2.16,-0.63 -2.16,-2.8 v -25.11"
         style="fill:#ffffff;fill-opacity:1;fill-rule:nonzero;stroke:none"
         id="path82" />
      <path
         d="m 2211.73,1177.03 c 0.62,-10.2 0.62,-18.94 0.62,-66.04 v 0 -54.57 c 0,-29.79 0.02,-52.99 -1.6,-66.721 v 0 c -0.93,-6.359 -1.86,-13.508 -6.45,-17.859 v 0 c 8.81,0.262 17.66,0.582 22.59,0.582 v 0 c 4.86,0 13.49,-0.313 23.7,-0.563 v 0 c -5.45,4.321 -7.27,11.75 -7.59,17.93 v 0 c -1.6,13.641 -1.56,36.841 -1.56,66.631 v 0 25.12 c 0.03,1.49 0.03,3.28 1.62,5.37 v 0 c 1.71,2.11 4.24,2.47 5.54,2.41 v 0 c 5.41,0 37.85,0.05 46.53,-0.96 v 0 c 9.17,-1.15 15.11,-5.93 18.17,-10.92 v 0 c 0.21,3.66 0.45,7.32 0.7,9.85 v 0 c 0.41,4.22 0.95,8.25 1.42,11.49 v 0 c -3.82,-2.56 -8.4,-3.45 -12.82,-3.61 v 0 c -4.59,-0.35 -9.05,-0.35 -14.27,-0.35 v 0 l -39.73,-0.29 c -1.58,-0.11 -4.48,0.61 -5.94,2.94 v 0 c -1.35,2.17 -1.19,3.69 -1.22,4.84 v 0 77.51 c 0.03,2.13 0.12,4.12 1.6,6.33 v 0 c 1.55,2.35 4.56,3.14 6.27,3.01 v 0 l 47.78,-0.92 c 12.4,-0.36 20.61,-5.01 24.4,-11.39 v 0 c 0.23,4.6 0.43,8.86 0.57,10.37 v 0 c 0.48,3.99 1.11,7.21 1.61,9.49 v 0 c -4.15,-1.17 -8.03,-1.07 -13.79,-1.41 v 0 c -7.5,-0.32 -70.19,-0.32 -82.07,-0.32 v 0 c -5.43,0 -14.39,0.32 -24.11,0.59 v 0 c 5.56,-4.14 8.11,-11.02 8.03,-18.54 z m 15.16,-214.589 c -7.8,0 -27.4,-0.941 -39.38,-0.941 v 0 c -2.41,0.039 -4.45,0.07 -6.85,1.031 v 0 c -2.52,0.75 -4.95,4.34 -4.66,7.078 v 0 c -0.18,2.09 1.38,5.082 3.53,6.141 v 0 c 2.07,1.148 3.97,1.301 6.12,1.32 v 0 c 4.2,0.02 7.51,0.578 10.17,1.149 v 0 c 1.96,-0.117 3.82,3.461 5.02,12.761 v 0 c 1.48,12.4 1.51,35.72 1.51,65.44 v 0 54.57 c 0,47.14 0,55.78 -0.59,65.44 v 0 c -1.37,10.21 -0.97,10.58 -9.58,13.11 v 0 c -1.45,0.43 -6.85,0.81 -10.88,0.79 v 0 c -1.9,0.02 -3.68,0.11 -5.71,0.92 v 0 c -1.99,0.6 -4.73,3.45 -4.55,6.54 v 0 c -0.29,3.07 2.56,6.55 5.01,7.17 v 0 c 2.4,0.88 4.55,0.92 7.1,0.96 v 0 c 16.3,0 35.92,-0.94 44.66,-0.94 v 0 c 11.71,0 74.88,0.02 81.58,0.3 v 0 c 6.04,0.29 9.58,0.4 11.41,0.98 v 0 c 0.88,0.09 2.31,1.81 6.55,2.13 v 0 c 4.99,-0.19 7.16,-4.5 7.16,-7.8 v 0 c -0.21,-4.2 -1.64,-6.7 -2.51,-14.44 v 0 c -0.28,-2.75 -0.86,-20.83 -1.56,-25.25 v 0 c -0.22,-1.49 -0.42,-3.13 -1.53,-5.05 v 0 c -1.01,-2 -3.99,-3.81 -6.53,-3.64 v 0 c -2.21,-0.24 -5.52,1.45 -6.59,3.7 v 0 c -1.13,2.14 -1.28,3.87 -1.49,6.23 v 0 c 0.02,2.41 -0.11,6.74 -1.36,9.56 v 0 c -0.95,2.09 -5.55,6.28 -16.07,6.54 v 0 l -45.45,0.88 v -74.59 l 36.86,0.29 c 5.27,0 9.49,0 13.67,0.32 v 0 c 5.53,0.37 7.72,1.2 9.77,3.78 v 0 c 0.9,1 2.94,4.8 7.87,4.9 v 0 c 1.81,0.13 4.45,-1.04 5.57,-2.92 v 0 c 1.15,-1.79 1.28,-3.41 1.29,-4.88 v 0 c -0.08,-3.29 -1.6,-10.11 -2.5,-19.71 v 0 c -0.59,-5.82 -1.23,-20.38 -1.23,-22.13 v 0 c -0.02,-1.43 0.13,-3.24 -0.64,-5.63 v 0 c -0.49,-2.48 -4.11,-5.58 -7.44,-5.27 v 0 c -3.09,-0.13 -5.75,2.34 -6.46,4.2 v 0 c -0.88,1.9 -1,3.56 -1.02,5.14 v 0 c 0.02,1.31 -0.52,4.84 -1.58,7.94 v 0 c -1.05,2.71 -3.9,6.82 -11.68,7.89 v 0 c -6.1,0.75 -32.85,0.87 -42.48,0.89 v 0 -22.92 c 0,-29.72 0.03,-53.04 1.53,-65.529 v 0 c 1.39,-9.172 1.69,-11.551 7.8,-12.629 v 0 c 4.1,-0.563 10.92,-1.192 14.83,-1.192 v 0 c 2.39,-0.019 4.3,-0.148 6.46,-1.211 v 0 c 2.26,-0.937 4.02,-4.16 3.79,-6.25 v 0 c 0.23,-2.879 -2.26,-6.14 -4.63,-6.929 v 0 c -2.32,-1 -4.51,-1.141 -7.18,-1.18 v 0 c -19.66,0 -39.34,0.941 -47.13,0.941 v 0"
         style="fill:#ffffff;fill-opacity:1;fill-rule:nonzero;stroke:none"
         id="path84" />
      <path
         d="m 215.359,308.672 c 0.618,-24.192 4.563,-32.242 10.637,-34.41 5.164,-1.871 10.938,-2.184 15.801,-2.184 3.34,0 5.164,-0.617 5.164,-2.476 0,-2.481 -2.734,-3.102 -6.992,-3.102 -19.746,0 -31.895,0.93 -37.664,0.93 -2.735,0 -17.024,-0.93 -32.813,-0.93 -3.957,0 -6.691,0.32 -6.691,3.102 0,1.859 1.828,2.476 4.863,2.476 3.957,0 9.426,0.313 13.672,1.551 7.902,2.48 9.113,11.48 9.418,38.449 l 2.73,183.551 c 0,6.211 0.918,10.543 3.957,10.543 3.34,0 6.075,-4.024 11.239,-9.613 3.644,-4.02 49.824,-54.571 94.179,-99.528 20.657,-21.07 61.672,-65.722 66.836,-70.679 h 1.516 l -3.039,139.207 c -0.301,18.91 -3.035,24.8 -10.32,27.91 -4.559,1.851 -11.856,1.851 -16.106,1.851 -3.641,0 -4.863,0.93 -4.863,2.801 0,2.481 3.34,2.789 7.902,2.789 15.801,0 30.383,-0.93 36.758,-0.93 3.34,0 14.891,0.93 29.773,0.93 3.946,0 6.985,-0.308 6.985,-2.789 0,-1.871 -1.817,-2.801 -5.469,-2.801 -3.035,0 -5.469,0 -9.113,-0.929 -8.504,-2.481 -10.938,-8.993 -11.239,-26.352 l -3.339,-195.648 c 0,-6.821 -1.219,-9.61 -3.957,-9.61 -3.34,0 -6.981,3.41 -10.321,6.821 -19.14,18.597 -58.027,59.226 -89.629,91.16 -33.105,33.488 -66.836,72.25 -72.304,78.136 h -0.91 l 3.339,-130.226"
         style="fill:#ffffff;fill-opacity:1;fill-rule:nonzero;stroke:none"
         id="path86" />
      <path
         d="m 385.184,257.801 c -6.778,0.418 -10.313,4.961 -13.817,8.219 v 0 c -19.277,18.742 -58.137,59.339 -89.695,91.242 v 0 c -25.422,25.707 -51.242,54.547 -64.336,69.226 v 0 l 3.016,-117.679 -5,-0.118 -4.981,-0.152 -3.488,135.371 h 5.129 3.086 l 1.484,-1.601 c 5.625,-6.059 39.199,-44.637 72.195,-78.008 v 0 c 31.645,-31.981 70.559,-72.641 89.661,-91.192 v 0 c 1.992,-2.238 4.128,-3.89 5.457,-4.73 v 0 c 0.148,0.949 0.265,2.332 0.246,4.101 v 0 l 3.339,195.641 c 0.165,8.918 0.774,15.328 2.918,20.598 v 0 c 1.055,2.742 2.774,5.062 4.934,6.871 v 0 c -6.652,-0.27 -11.504,-0.59 -13.789,-0.602 v 0 c -3.762,0 -9.883,0.293 -17.285,0.551 v 0 c 6.512,-5.019 8.914,-14.309 8.906,-29.859 v 0 l 3.145,-144.321 h -5.11 -3.523 l -1.457,1.391 c -5.528,5.352 -46.317,49.762 -66.934,70.781 v 0 c -44.441,45.051 -90.625,95.629 -94.277,99.649 v 0 c -2.735,3.019 -4.91,5.5 -6.289,6.851 v 0 c -0.156,-1.14 -0.254,-2.691 -0.254,-4.453 v 0 L 195.73,312.039 c -0.164,-13.578 -0.476,-22.687 -1.953,-29.449 v 0 c -0.816,-4.301 -2.722,-8.11 -5.586,-10.711 v 0 c 7.043,0.262 12.278,0.551 14.114,0.562 v 0 c 3.758,0 9.609,-0.351 18.047,-0.621 v 0 c -6.836,5.258 -9.387,16.102 -9.981,36.719 v 0 l 4.981,0.152 5,0.118 c 0.515,-24.149 5.019,-29.547 7.332,-29.848 v 0 c 4.211,-1.52 9.464,-1.891 14.113,-1.871 v 0 c 1.98,-0.051 3.75,-0.09 5.859,-0.961 v 0 c 2.129,-0.668 4.539,-3.848 4.297,-6.527 v 0 c 0.242,-3.293 -2.773,-6.563 -5.109,-7.153 v 0 c -2.383,-0.847 -4.5,-0.918 -6.883,-0.937 v 0 c -19.844,0 -32.305,0.937 -37.656,0.937 v 0 c -2.258,0 -16.934,-0.937 -32.813,-0.937 v 0 c -2.129,0.019 -4.133,-0.024 -6.543,0.82 v 0 c -2.48,0.52 -5.488,4.129 -5.156,7.27 v 0 c -0.227,2.679 2.09,5.757 4.187,6.48 v 0 c 2.071,0.918 3.821,0.957 5.676,1.008 v 0 c 3.672,-0.02 8.875,0.332 12.18,1.332 v 0 c 2.059,0.84 2.762,1.098 4.156,6.359 v 0 c 1.172,5.078 1.613,13.957 1.762,27.391 v 0 l 2.723,183.457 c 0.027,3.383 0.195,6.34 1.082,9.18 v 0 c 0.625,2.601 3.507,6.461 7.882,6.363 v 0 c 7.821,-0.863 9.735,-6.223 14.922,-11.242 v 0 c 3.614,-3.981 49.774,-54.508 94.051,-99.379 v 0 c 16.399,-16.731 45.684,-48.371 59.543,-63.082 v 0 l -2.785,128.011 c -0.625,19.129 -2.606,21.239 -7.207,23.372 v 0 c -2.957,1.308 -10.086,1.527 -14.219,1.488 v 0 c -2.226,0.039 -4.207,0.148 -6.414,1.422 v 0 c -2.344,1.277 -3.633,4.437 -3.449,6.359 v 0 c -0.203,4 3.73,6.899 5.898,7.141 v 0 c 2.387,0.636 4.571,0.636 6.985,0.66 v 0 c 15.964,0 30.75,-0.942 36.777,-0.942 v 0 c 2.812,0 14.773,0.942 29.766,0.942 v 0 c 2.117,-0.024 4.14,-0.024 6.453,-0.703 v 0 c 2.187,-0.328 5.773,-3.449 5.531,-7.098 v 0 c 0.164,-2.633 -1.914,-5.652 -4.082,-6.551 v 0 c -2.152,-1.039 -4.133,-1.211 -6.391,-1.23 v 0 c -3.086,-0.02 -4.765,0 -7.703,-0.719 v 0 c -3.254,-1.109 -4.133,-1.859 -5.488,-4.742 v 0 c -1.27,-2.938 -2.043,-8.457 -2.168,-16.918 v 0 l -3.332,-195.57 c -0.039,-3.7 -0.25,-6.563 -1.336,-9.282 v 0 c -0.813,-2.621 -4.082,-5.32 -7.18,-5.32 v 0 c -0.136,0 -0.281,0 -0.429,0.012 v 0"
         style="fill:#ffffff;fill-opacity:1;fill-rule:nonzero;stroke:none"
         id="path88" />
      <path
         d="m 647.969,377.809 c 0,69.461 -39.192,112.55 -89.016,112.55 -34.93,0 -74.734,-19.839 -74.734,-97.039 0,-64.492 34.941,-115.648 93.269,-115.648 21.27,0 70.481,10.527 70.481,100.137 z m -205.672,5.89 c 0,53.02 34.332,121.539 125.465,121.539 75.656,0 122.746,-44.949 122.746,-115.949 0,-71.008 -48.613,-127.129 -125.781,-127.129 -87.188,0 -122.43,66.668 -122.43,121.539"
         style="fill:#ffffff;fill-opacity:1;fill-rule:nonzero;stroke:none"
         id="path90" />
      <path
         d="M 489.211,393.328 C 489.48,330.379 522.629,282.691 577.48,282.66 v 0 c 19.676,0.762 64.813,7.672 65.481,95.149 v 0 c -0.258,67.722 -37.434,107.472 -84.008,107.55 v 0 c -32.918,-0.621 -69.09,-16.66 -69.742,-92.031 z m -10.012,0 c 0,39.391 10.203,65.172 25.711,80.981 v 0 c 15.481,15.8 35.684,21.089 54.043,21.07 v 0 c 53.059,-0.129 93.918,-46.359 94.008,-117.57 v 0 C 652.996,332.18 640.34,305.48 624.09,290.48 v 0 c -16.238,-14.992 -35.211,-17.808 -46.61,-17.808 v 0 c -61.796,0.117 -98.164,54.629 -98.281,120.656 z m -31.914,-9.617 c 0.332,-53.039 33.289,-116.422 117.442,-116.539 v 0 c 74.511,0.199 120.515,53.43 120.769,122.129 v 0 c -0.379,68.558 -44.129,110.508 -117.742,110.949 v 0 C 479.629,500.129 447.617,434.879 447.285,383.711 v 0 z M 466.98,299.16 c -20.593,24.621 -29.675,56.059 -29.695,84.551 v 0 c 0.02,27.559 8.867,59.008 29.735,83.879 v 0 c 20.832,24.859 53.918,42.719 100.734,42.66 v 0 c 38.797,0.02 70.859,-11.57 93.172,-32.711 v 0 c 22.355,-21.141 34.582,-51.648 34.582,-88.238 v 0 c 0,-36.641 -12.57,-69.731 -35.34,-93.641 v 0 c -22.746,-23.941 -55.664,-38.512 -95.441,-38.488 v 0 c -0.079,0 -0.157,0 -0.247,0 v 0 c -44.746,0 -76.98,17.398 -97.5,41.988 v 0"
         style="fill:#ffffff;fill-opacity:1;fill-rule:nonzero;stroke:none"
         id="path92" />
      <path
         d="m 766.445,308.672 c 0.614,-24.192 4.559,-32.242 10.633,-34.41 5.168,-1.871 10.938,-2.184 15.801,-2.184 3.34,0 5.168,-0.617 5.168,-2.476 0,-2.481 -2.734,-3.102 -6.992,-3.102 -19.746,0 -31.895,0.93 -37.668,0.93 -2.735,0 -17.02,-0.93 -32.813,-0.93 -3.953,0 -6.687,0.32 -6.687,3.102 0,1.859 1.824,2.476 4.863,2.476 3.953,0 9.422,0.313 13.672,1.551 7.898,2.48 9.109,11.48 9.414,38.449 l 2.734,183.551 c 0,6.211 0.918,10.543 3.953,10.543 3.34,0 6.075,-4.024 11.243,-9.613 3.64,-4.02 49.824,-54.571 94.179,-99.528 20.653,-21.07 61.668,-65.722 66.836,-70.679 h 1.512 l -3.035,139.207 c -0.305,18.91 -3.039,24.8 -10.324,27.91 -4.559,1.851 -11.856,1.851 -16.102,1.851 -3.644,0 -4.863,0.93 -4.863,2.801 0,2.481 3.34,2.789 7.898,2.789 15.801,0 30.383,-0.93 36.758,-0.93 3.34,0 14.895,0.93 29.777,0.93 3.946,0 6.981,-0.308 6.981,-2.789 0,-1.871 -1.817,-2.801 -5.465,-2.801 -3.039,0 -5.473,0 -9.113,-0.929 -8.508,-2.481 -10.938,-8.993 -11.242,-26.352 l -3.34,-195.648 c 0,-6.821 -1.219,-9.61 -3.953,-9.61 -3.34,0 -6.985,3.41 -10.325,6.821 -19.14,18.597 -58.027,59.226 -89.629,91.16 -33.105,33.488 -66.836,72.25 -72.304,78.136 h -0.907 l 3.34,-130.226"
         style="fill:#ffffff;fill-opacity:1;fill-rule:nonzero;stroke:none"
         id="path94" />
      <path
         d="m 936.27,257.809 c -6.778,0.421 -10.305,4.953 -13.809,8.211 v 0 c -19.277,18.761 -58.145,59.332 -89.719,91.25 v 0 c -25.418,25.699 -51.23,54.531 -64.324,69.21 v 0 l 3.008,-117.66 -4.992,-0.148 -4.989,-0.133 -3.484,135.371 h 5.133 3.086 l 1.496,-1.609 c 5.625,-6.063 39.187,-44.641 72.176,-78 v 0 c 31.64,-31.992 70.566,-72.629 89.66,-91.192 v 0 c 1.992,-2.238 4.129,-3.89 5.468,-4.718 v 0 c 0.137,0.949 0.254,2.328 0.243,4.078 v 0 l 3.332,195.66 c 0.183,8.902 0.781,15.332 2.918,20.59 v 0 c 1.066,2.742 2.785,5.062 4.945,6.871 v 0 c -6.652,-0.258 -11.508,-0.578 -13.801,-0.602 v 0 c -3.75,0 -9.875,0.293 -17.265,0.551 v 0 c 6.503,-5.027 8.914,-14.328 8.894,-29.859 v 0 l 3.145,-144.309 h -5.098 -3.543 l -1.445,1.367 c -5.52,5.364 -46.34,49.762 -66.934,70.793 v 0 c -44.445,45.059 -90.625,95.61 -94.277,99.629 v 0 c -2.727,3.031 -4.903,5.512 -6.281,6.86 v 0 c -0.157,-1.141 -0.27,-2.68 -0.27,-4.43 v 0 l -2.727,-183.559 c -0.168,-13.551 -0.48,-22.679 -1.972,-29.441 v 0 c -0.801,-4.301 -2.715,-8.11 -5.578,-10.711 v 0 c 7.05,0.262 12.285,0.551 14.121,0.551 v 0 c 3.761,0 9.609,-0.34 18.039,-0.602 v 0 c -6.836,5.262 -9.375,16.113 -9.981,36.711 v 0 l 4.989,0.133 4.992,0.148 c 0.527,-24.172 5.039,-29.539 7.344,-29.851 v 0 c 4.218,-1.547 9.472,-1.899 14.101,-1.879 v 0 c 1.992,-0.039 3.758,-0.078 5.859,-0.969 v 0 c 2.137,-0.66 4.551,-3.832 4.297,-6.519 v 0 c 0.254,-3.293 -2.765,-6.563 -5.097,-7.133 v 0 c -2.375,-0.867 -4.492,-0.93 -6.887,-0.949 v 0 c -19.844,0 -32.305,0.921 -37.656,0.921 v 0 c -1.133,0.028 -5.371,-0.203 -11.309,-0.461 v 0 c -5.937,-0.23 -13.582,-0.46 -21.512,-0.46 v 0 c -2.121,0.019 -4.113,-0.02 -6.523,0.8 v 0 c -2.473,0.52 -5.5,4.141 -5.168,7.282 v 0 c -0.223,2.668 2.082,5.769 4.199,6.48 v 0 c 2.063,0.93 3.801,0.969 5.664,1.008 v 0 c 3.672,-0.02 8.879,0.332 12.18,1.32 v 0 c 2.051,0.871 2.762,1.11 4.168,6.371 v 0 c 1.172,5.09 1.625,13.957 1.738,27.367 v 0 l 2.735,183.493 c 0.019,3.359 0.187,6.339 1.086,9.148 v 0 c 0.613,2.621 3.503,6.473 7.871,6.383 v 0 c 7.832,-0.863 9.734,-6.211 14.941,-11.25 v 0 c 3.586,-3.961 49.773,-54.512 94.043,-99.363 v 0 c 16.395,-16.75 45.691,-48.399 59.543,-63.098 v 0 l -2.785,128.027 c -0.625,19.121 -2.629,21.242 -7.215,23.364 v 0 c -2.961,1.296 -10.102,1.546 -14.211,1.48 v 0 c -2.246,0.047 -4.219,0.148 -6.414,1.438 v 0 c -2.336,1.25 -3.637,4.421 -3.449,6.351 v 0 c -0.207,3.988 3.742,6.899 5.898,7.149 v 0 c 2.371,0.621 4.578,0.621 6.992,0.64 v 0 c 15.946,0 30.731,-0.93 36.758,-0.93 v 0 c 2.813,0 14.774,0.95 29.774,0.93 v 0 c 2.121,-0.019 4.152,0 6.445,-0.68 v 0 c 2.199,-0.332 5.762,-3.46 5.539,-7.109 v 0 c 0.168,-2.641 -1.914,-5.641 -4.094,-6.551 v 0 c -2.136,-1.039 -4.129,-1.211 -6.375,-1.238 v 0 c -3.086,0 -4.765,0 -7.707,-0.73 v 0 c -3.25,-1.09 -4.129,-1.852 -5.476,-4.723 v 0 c -1.282,-2.938 -2.051,-8.449 -2.18,-16.91 v 0 l -3.34,-195.578 c -0.019,-3.711 -0.254,-6.551 -1.336,-9.27 v 0 c -0.801,-2.633 -4.074,-5.332 -7.168,-5.332 v 0 c -0.136,0 -0.281,0 -0.429,0.02 v 0"
         style="fill:#ffffff;fill-opacity:1;fill-rule:nonzero;stroke:none"
         id="path96" />
      <path
         d="m 1023.46,410.988 c 0,47.133 0,55.813 -0.61,65.731 -0.6,10.551 -3.04,15.511 -13.07,17.672 -2.43,0.629 -7.58,0.929 -11.842,0.929 -3.34,0 -5.165,0.629 -5.165,2.801 0,2.16 2.129,2.789 6.688,2.789 16.099,0 35.239,-0.93 43.739,-0.93 12.46,0 30.08,0.93 44.06,0.93 37.97,0 51.65,-13.031 56.51,-17.68 6.68,-6.511 15.18,-20.46 15.18,-36.89 0,-44.039 -31.59,-75.039 -74.73,-75.039 -1.52,0 -4.86,0 -6.38,0.308 -1.52,0.313 -3.65,0.621 -3.65,2.789 0,2.481 2.13,3.411 8.51,3.411 17.02,0 40.71,19.531 40.71,51.16 0,10.23 -0.91,31.011 -17.92,46.511 -10.94,10.231 -23.4,12.098 -30.38,12.098 -4.56,0 -9.11,-0.308 -11.85,-1.25 -1.52,-0.617 -2.43,-2.476 -2.43,-5.887 V 356.422 c 0,-28.531 0,-53.024 1.51,-66.352 0.92,-8.679 2.74,-15.511 11.85,-16.75 4.26,-0.609 10.94,-1.242 15.5,-1.242 3.34,0 4.86,-0.93 4.86,-2.476 0,-2.172 -2.43,-3.102 -5.77,-3.102 -20.06,0 -39.19,0.93 -47.09,0.93 -6.99,0 -26.13,-0.93 -38.28,-0.93 -3.949,0 -6.074,0.93 -6.074,3.102 0,1.546 1.207,2.476 4.864,2.476 4.55,0 8.19,0.633 10.92,1.242 6.09,1.239 7.6,8.071 8.82,17.051 1.52,13.027 1.52,37.52 1.52,66.051 v 54.566"
         style="fill:#ffffff;fill-opacity:1;fill-rule:nonzero;stroke:none"
         id="path98" />
      <path
         d="m 1028.46,356.41 c -0.02,-28.558 0.02,-52.969 -1.58,-66.699 v 0 c -0.93,-6.359 -1.8,-13.492 -6.35,-17.852 v 0 c 8.56,0.262 16.89,0.582 21.16,0.582 v 0 c 4.73,0 13.07,-0.312 23.12,-0.57 v 0 c -5.36,4.309 -7.11,11.66 -7.44,17.641 v 0 c -1.57,13.929 -1.55,38.34 -1.55,66.898 v 0 124.039 c -0.04,3.992 1.05,8.531 5.8,10.61 v 0 c 3.94,1.293 8.64,1.5 13.49,1.519 v 0 c 7.79,0.024 21.63,-2.078 33.73,-13.398 v 0 c 18.69,-17.071 19.55,-39.7 19.55,-50.2 v 0 c -0.15,-24.531 -13.03,-42.609 -27.87,-50.98 v 0 c 31.86,6.691 53.26,32.621 53.42,68.34 v 0 c 0.09,14.66 -7.89,27.75 -13.63,33.289 v 0 c -4.6,4.199 -16.12,16.082 -53.05,16.269 v 0 C 1073.47,495.93 1055.88,495 1043.2,495 v 0 c -5.13,0 -13.79,0.309 -23.27,0.578 v 0 c 5.49,-4.148 7.99,-11.047 7.9,-18.539 v 0 c 0.63,-10.168 0.61,-18.918 0.63,-66.051 v 0 h -0.02 l 0.02,-54.578 z m 13.23,-93.961 c -6.73,0 -25.96,-0.929 -38.28,-0.929 v 0 c -2.38,0.019 -4.492,0.191 -6.73,1.242 v 0 c -2.285,0.886 -4.543,4.047 -4.356,6.84 v 0 c -0.187,2.058 1.395,5.16 3.621,6.199 v 0 c 2.102,1.109 3.996,1.258 6.245,1.289 v 0 c 4.1,0 7.32,0.551 9.93,1.129 v 0 c 1.81,-0.188 3.68,3.453 4.85,12.75 v 0 c 1.46,12.402 1.48,36.972 1.48,65.441 v 0 54.578 c 0,47.141 0,55.774 -0.61,65.461 v 0 c -1.33,10.242 -0.95,10.602 -9.32,13.121 v 0 c -1.38,0.399 -6.65,0.801 -10.582,0.762 v 0 c -1.993,0.039 -3.817,0.078 -6.036,1.098 v 0 c -2.332,0.871 -4.363,4.191 -4.14,6.691 v 0 c -0.293,2.879 2.48,6.32 4.836,6.867 v 0 c 2.293,0.84 4.336,0.903 6.863,0.934 v 0 c 16.229,0 35.469,-0.934 43.739,-0.934 v 0 c 12.24,0 29.89,0.934 44.06,0.934 v 0 c 39.01,0.199 54.82,-13.973 60,-19.102 v 0 c 7.56,-7.461 16.59,-22.25 16.69,-40.48 v 0 c -0.08,-46.551 -34.11,-79.942 -79.74,-80.02 v 0 c -0.29,0.02 -0.64,0.02 -1.01,0.02 v 0 c -1.73,0 -4.23,0 -6.37,0.379 v 0 c -0.66,0.16 -1.98,0.269 -3.76,1.191 v 0 c -1.82,0.738 -4.07,3.68 -3.88,6.5 v 0 c -0.33,2.738 2.25,6.551 4.97,7.262 v 0 c 2.59,1.008 5.09,1.109 8.53,1.148 v 0 c 6.61,-0.058 15.82,4.078 23.03,12.09 v 0 c 7.26,7.981 12.69,19.52 12.69,34.07 v 0 c 0,9.961 -0.98,28.879 -16.35,42.872 v 0 c -9.72,9.097 -20.79,10.738 -26.95,10.738 v 0 c -3.64,0.019 -7.35,-0.281 -9.19,-0.668 v 0 c -0.06,-0.34 -0.11,-0.832 -0.11,-1.473 v 0 l 0.02,-124.039 c -0.02,-28.469 0.02,-53.012 1.47,-65.801 v 0 c 1.37,-8.879 1.7,-11.328 7.59,-12.328 v 0 c 4,-0.582 10.65,-1.191 14.79,-1.191 v 0 c 2.15,-0.031 4.03,-0.219 6.03,-1.238 v 0 c 2.04,-0.911 3.98,-3.75 3.83,-6.25 v 0 c 0.13,-3.122 -2.31,-6 -4.43,-6.84 v 0 c -2.15,-1.024 -4.21,-1.223 -6.34,-1.242 v 0 c -20.17,0 -39.47,0.929 -47.08,0.929 v 0"
         style="fill:#ffffff;fill-opacity:1;fill-rule:nonzero;stroke:none"
         id="path100" />
      <path
         d="m 1249.19,386.488 c 0,-3.398 0.6,-4.636 2.73,-5.566 6.38,-2.184 15.49,-3.113 23.09,-3.113 12.15,0 16.1,1.242 21.57,5.281 9.11,6.808 17.92,21.082 17.92,46.5 0,44.031 -28.55,56.738 -46.48,56.738 -7.59,0 -13.06,-0.297 -16.1,-1.226 -2.13,-0.633 -2.73,-1.872 -2.73,-4.352 z m -35.85,24.5 c 0,47.133 0,55.813 -0.62,65.731 -0.6,10.551 -3.03,15.511 -13.05,17.672 -2.43,0.629 -7.6,0.929 -11.85,0.929 -3.35,0 -5.16,0.629 -5.16,2.801 0,2.16 2.11,2.789 6.68,2.789 16.1,0 35.24,-0.93 41.62,-0.93 10.33,0 33.41,0.93 42.83,0.93 19.14,0 39.5,-1.871 55.91,-13.332 8.5,-5.898 20.65,-21.707 20.65,-42.476 0,-22.954 -9.41,-44.043 -40.1,-69.461 27.03,-34.719 48,-62.321 65.92,-81.539 17.01,-17.993 29.47,-20.153 34.03,-21.09 3.34,-0.621 6.08,-0.934 8.51,-0.934 2.43,0 3.64,-0.93 3.64,-2.476 0,-2.481 -2.13,-3.102 -5.77,-3.102 h -28.87 c -17.01,0 -24.6,1.551 -32.5,5.891 -13.06,7.129 -24.6,21.711 -41.62,45.578 -12.15,17.051 -26.13,38.14 -30.07,42.793 -1.53,1.859 -3.34,2.168 -5.47,2.168 l -26.44,0.621 c -1.51,0 -2.42,-0.621 -2.42,-2.481 v -4.34 c 0,-28.839 0,-53.332 1.51,-66.359 0.91,-8.98 2.74,-15.812 11.85,-17.051 4.56,-0.609 11.24,-1.242 14.89,-1.242 2.43,0 3.64,-0.93 3.64,-2.476 0,-2.172 -2.13,-3.102 -6.07,-3.102 -17.62,0 -40.11,0.93 -44.66,0.93 -5.77,0 -24.91,-0.93 -37.07,-0.93 -3.94,0 -6.07,0.93 -6.07,3.102 0,1.546 1.22,2.476 4.86,2.476 4.56,0 8.2,0.633 10.94,1.242 6.07,1.239 7.6,8.071 8.81,17.051 1.52,13.027 1.52,37.52 1.52,66.051 v 54.566"
         style="fill:#ffffff;fill-opacity:1;fill-rule:nonzero;stroke:none"
         id="path102" />
      <path
         d="m 1253.32,480.301 v 0.031 c 0,-0.012 0,-0.023 0,-0.031 z m 21.69,-97.481 c 12.11,0.168 13.71,0.891 18.56,4.282 v 0 c 7.64,5.738 15.87,18.187 15.91,42.488 v 0 c -0.27,41.519 -25.65,51.351 -41.47,51.75 v 0 c -6.51,0.019 -11.46,-0.301 -13.84,-0.809 v 0 -94.043 c 0,-0.437 0.02,-0.777 0.04,-1.039 v 0 c 5.48,-1.758 13.9,-2.648 20.8,-2.629 z m 0,-10 c -8.04,0.02 -17.4,0.91 -25.08,3.532 v 0 c -3.91,1.16 -6.31,6.687 -5.74,10.136 v 0 94.262 c -0.64,2.949 2.22,8.551 6.27,9.129 v 0 c 4.24,1.25 9.76,1.422 17.55,1.461 v 0 c 10.08,-0.02 22.87,-3.531 33.37,-13.192 v 0 c 10.48,-9.648 18.16,-25.468 18.1,-48.558 v 0 c 0.06,-26.531 -9.32,-42.61 -19.94,-50.531 v 0 c -5.79,-4.45 -11.81,-6.25 -22.98,-6.25 v 0 c -0.51,0 -1.02,0 -1.55,0.011 z m 12.3,-8.82 c 4.47,-5.34 18.16,-26.07 30.34,-43.121 v 0 c 16.94,-23.84 28.35,-37.84 39.95,-44.078 v 0 c 7.05,-3.821 13.23,-5.242 30.1,-5.289 v 0 h 10.45 c -6.74,2.968 -15.68,8.519 -25.65,19.179 v 0 c -18.19,19.539 -39.18,47.168 -66.2,81.899 v 0 l -2.98,3.84 3.73,3.082 c 30.05,25.058 38.16,44.168 38.29,65.59 v 0 c 0.13,18.707 -11.35,33.488 -18.51,38.398 v 0 c -14.95,10.469 -34.18,12.441 -53.04,12.422 v 0 c -9.22,0 -32.33,-0.934 -42.83,-0.934 v 0 c -3.89,0 -11.94,0.313 -21.13,0.582 v 0 c 5.47,-4.148 7.95,-11.05 7.88,-18.531 v 0 c 0.62,-10.187 0.62,-18.937 0.62,-66.051 v 0 -54.558 c 0,-28.571 0.02,-52.989 -1.56,-66.719 v 0 c -0.94,-6.359 -1.81,-13.492 -6.36,-17.84 v 0 c 8.41,0.258 16.39,0.578 19.94,0.578 v 0 c 2.91,0 12.14,-0.34 22.86,-0.597 v 0 c -5.41,4.328 -7.17,11.777 -7.48,17.949 v 0 c -1.58,13.64 -1.54,38.058 -1.54,66.929 v 0 4.34 c -0.04,1.66 0.44,3.95 2.22,5.61 v 0 c 1.78,1.629 3.81,1.879 5.31,1.879 v 0 l 26.33,-0.629 c 0.18,0.011 0.39,0.019 0.59,0.019 v 0 c 2.46,0 6.29,-0.871 8.67,-3.949 z m 65.5,-95.98 c -14.53,8.019 -26.2,23.16 -43.29,47.058 v 0 c -12.15,17.051 -26.41,38.481 -29.87,42.531 v 0 c -0.42,0.321 0.21,0.192 -1.73,0.34 v 0 l -23.74,0.563 0.01,-1.782 c -0.02,-28.781 0.02,-53.359 1.47,-65.839 v 0 c 1.38,-9.18 1.71,-11.61 7.56,-12.602 v 0 c 4.35,-0.59 11.05,-1.219 14.22,-1.199 v 0 c 1.83,-0.02 3.73,-0.289 5.61,-1.559 v 0 c 1.9,-1.25 3.12,-3.859 3.01,-5.929 v 0 c 0.19,-2.801 -2.07,-5.954 -4.34,-6.84 v 0 c -2.24,-1.051 -4.35,-1.223 -6.71,-1.242 v 0 c -17.73,0 -40.42,0.929 -44.66,0.929 v 0 c -5.49,0 -24.74,-0.929 -37.07,-0.929 v 0 c -2.38,0.019 -4.49,0.191 -6.73,1.242 v 0 c -2.27,0.886 -4.55,4.039 -4.34,6.84 v 0 c -0.21,2.07 1.41,5.168 3.61,6.199 v 0 c 2.08,1.109 4,1.238 6.24,1.289 v 0 c 4.11,0 7.32,0.551 9.93,1.129 v 0 c 1.8,-0.18 3.7,3.472 4.86,12.75 v 0 c 1.45,12.402 1.48,36.98 1.48,65.461 v 0 54.558 c 0,47.16 0,55.782 -0.62,65.461 v 0 c -1.32,10.25 -0.94,10.59 -9.3,13.121 v 0 c -1.37,0.399 -6.66,0.801 -10.59,0.762 v 0 c -2,0.039 -3.84,0.078 -6.05,1.098 v 0 c -2.33,0.879 -4.37,4.211 -4.11,6.691 v 0 c -0.31,2.859 2.46,6.301 4.8,6.867 v 0 c 2.31,0.864 4.35,0.891 6.88,0.934 v 0 c 16.23,0 35.52,-0.934 41.62,-0.934 v 0 c 10.12,0 33.19,0.934 42.83,0.934 v 0 c 19.4,-0.024 40.88,-1.801 58.75,-14.223 v 0 c 9.85,-6.918 22.67,-23.75 22.8,-46.597 v 0 c 0.13,-23.481 -9.73,-45.661 -38.2,-70.172 v 0 c 25.62,-32.961 45.68,-59.211 62.65,-77.379 v 0 c 16.5,-17.242 27.07,-18.641 31.31,-19.621 v 0 c 3.17,-0.59 5.61,-0.84 7.6,-0.84 v 0 c 1.83,-0.02 3.73,-0.289 5.61,-1.559 v 0 c 1.92,-1.25 3.12,-3.859 3.03,-5.929 v 0 c 0.26,-2.68 -1.96,-6.122 -4.38,-7 v 0 c -2.33,-1.02 -4.29,-1.063 -6.38,-1.082 v 0 h -28.88 c -0.21,-0.008 -0.42,-0.008 -0.62,-0.008 v 0 c -16.75,0 -25.62,1.687 -34.27,6.508 v 0"
         style="fill:#ffffff;fill-opacity:1;fill-rule:nonzero;stroke:none"
         id="path104" />
      <path
         d="m 1607.67,377.809 c 0,69.461 -39.19,112.55 -89.02,112.55 -34.94,0 -74.73,-19.839 -74.73,-97.039 0,-64.492 34.93,-115.648 93.26,-115.648 21.27,0 70.49,10.527 70.49,100.137 z m -205.68,5.89 c 0,53.02 34.33,121.539 125.47,121.539 75.65,0 122.73,-44.949 122.73,-115.949 0,-71.008 -48.6,-127.129 -125.77,-127.129 -87.19,0 -122.43,66.668 -122.43,121.539"
         style="fill:#ffffff;fill-opacity:1;fill-rule:nonzero;stroke:none"
         id="path106" />
      <path
         d="m 1448.92,393.32 c 0.27,-62.949 33.39,-110.629 88.25,-110.648 v 0 c 19.69,0.738 64.83,7.668 65.49,95.137 v 0 c -0.26,67.722 -37.45,107.48 -84.01,107.55 v 0 c -32.93,-0.629 -69.1,-16.668 -69.73,-92.039 z m -10.01,0 c -0.02,39.399 10.19,65.18 25.7,80.981 v 0 c 15.49,15.82 35.66,21.078 54.04,21.078 v 0 c 53.06,-0.129 93.91,-46.34 94.02,-117.57 v 0 c 0.02,-45.637 -12.64,-72.34 -28.88,-87.34 v 0 c -16.25,-14.989 -35.23,-17.797 -46.62,-17.797 v 0 c -61.79,0.117 -98.16,54.629 -98.26,120.648 z m -31.92,-9.629 c 0.31,-53.011 33.27,-116.402 117.42,-116.531 v 0 c 74.53,0.211 120.51,53.442 120.77,122.141 v 0 c -0.39,68.558 -44.11,110.519 -117.73,110.949 v 0 c -88.11,-0.121 -120.13,-65.371 -120.46,-116.559 v 0 z M 1524.41,257.16 c -44.87,-0.039 -77.19,17.36 -97.75,41.988 v 0 c -20.59,24.622 -29.66,56.071 -29.68,84.543 v 0 c 0.02,27.59 8.87,59.02 29.75,83.899 v 0 c 20.83,24.879 53.89,42.711 100.72,42.66 v 0 c 38.78,0.02 70.85,-11.57 93.16,-32.719 v 0 c 22.37,-21.133 34.59,-51.652 34.59,-88.23 v 0 c 0,-36.629 -12.58,-69.723 -35.35,-93.653 v 0 c -22.72,-23.898 -55.6,-38.488 -95.36,-38.488 v 0 c -0.02,0 -0.06,0 -0.08,0 v 0"
         style="fill:#ffffff;fill-opacity:1;fill-rule:nonzero;stroke:none"
         id="path108" />
      <path
         d="m 1744.36,356.422 c 0,-29.774 0,-53.024 1.53,-66.051 0.91,-8.98 2.73,-15.812 11.84,-17.051 4.25,-0.609 10.94,-1.242 15.19,-1.242 3.95,0 5.17,-0.93 5.17,-2.476 0,-2.172 -2.13,-3.102 -6.68,-3.102 -19.14,0 -38.29,0.93 -46.19,0.93 -7.9,0 -27.04,-0.93 -38.58,-0.93 -4.25,0 -6.38,0.621 -6.38,3.102 0,1.546 1.21,2.476 4.56,2.476 4.55,0 8.2,0.633 10.93,1.242 6.09,1.239 7.6,8.071 8.82,17.051 1.51,13.027 1.51,36.277 1.51,66.051 v 54.566 c 0,47.133 0,55.813 -0.6,65.731 -0.61,10.551 -3.04,15.511 -13.07,17.672 -2.43,0.629 -7.59,0.929 -11.84,0.929 -3.04,0 -5.17,0.629 -5.17,2.481 0,2.48 2.43,3.109 6.99,3.109 15.79,0 34.93,-0.93 43.74,-0.93 11.56,0 73.23,0 80.21,0.301 5.77,0.321 9.42,0.321 12.46,1.239 1.81,0.628 3.34,1.871 4.86,1.871 1.21,0 2.12,-1.243 2.12,-2.789 0,-2.172 -1.51,-5.891 -2.43,-13.961 -0.3,-3.102 -0.91,-21.391 -1.51,-25.121 -0.31,-2.481 -0.91,-4.329 -3.04,-4.329 -2.13,0 -2.74,1.547 -3.04,4.957 0,2.481 0,7.442 -1.82,11.782 -2.13,4.34 -8.51,8.992 -20.05,9.3 l -46.79,0.93 c -1.83,0 -2.74,-0.93 -2.74,-4.34 v -77.519 c 0,-1.852 0.31,-2.789 2.13,-2.789 l 38.89,0.308 c 5.17,0 9.41,0 13.67,0.321 5.77,0.308 10.02,1.55 13.06,5.578 1.52,1.859 2.13,3.101 3.95,3.101 1.21,0 1.82,-0.929 1.82,-2.789 0,-1.859 -1.51,-9.609 -2.42,-19.222 -0.62,-6.2 -1.22,-20.469 -1.22,-22.637 0,-2.793 0,-5.891 -3.04,-5.891 -1.83,0 -2.43,2.168 -2.43,4.34 0,2.168 -0.61,5.899 -1.82,9.609 -1.52,4.34 -6.08,9.918 -15.5,11.168 -7.59,0.93 -39.79,0.93 -44.96,0.93 -1.52,0 -2.13,-0.629 -2.13,-2.797 v -25.109"
         style="fill:#ffffff;fill-opacity:1;fill-rule:nonzero;stroke:none"
         id="path110" />
      <path
         d="m 1710.46,477.031 c 0.61,-10.172 0.61,-18.91 0.61,-66.031 v 0 -54.578 c 0,-29.793 0.02,-52.973 -1.55,-66.711 v 0 c -0.94,-6.371 -1.82,-13.512 -6.39,-17.871 v 0 c 8.61,0.269 17.26,0.59 22.08,0.59 v 0 c 4.77,0 13.21,-0.309 23.19,-0.578 v 0 c -5.41,4.328 -7.17,11.757 -7.48,17.937 v 0 c -1.59,13.66 -1.56,36.84 -1.56,66.633 v 0 25.109 c 0.03,1.508 0.03,3.258 1.58,5.34 v 0 c 1.7,2.117 4.26,2.52 5.55,2.469 v 0 c 5.33,-0.02 37.1,0.031 45.62,-0.981 v 0 c 8.84,-1.109 14.63,-5.73 17.68,-10.609 v 0 c 0.21,3.559 0.43,7.07 0.68,9.539 v 0 c 0.4,4.172 0.93,8.172 1.39,11.391 v 0 c -3.73,-2.481 -8.18,-3.348 -12.46,-3.508 v 0 c -4.49,-0.352 -8.85,-0.332 -13.99,-0.332 v 0 l -38.92,-0.309 c -1.59,-0.133 -4.51,0.66 -5.95,2.969 v 0 c -1.29,2.16 -1.13,3.66 -1.18,4.801 v 0 77.519 c 0.03,2.121 0.12,4.078 1.56,6.301 v 0 c 1.52,2.359 4.58,3.18 6.28,3.051 v 0 l 46.81,-0.934 c 11.99,-0.34 20.04,-4.879 23.81,-11.09 v 0 c 0.23,4.481 0.42,8.582 0.56,10.063 v 0 c 0.48,3.988 1.09,7.199 1.58,9.469 v 0 c -4.04,-1.141 -7.86,-1.051 -13.42,-1.379 v 0 C 1799.17,494.98 1737.76,495 1726.12,495 v 0 c -5.32,0 -14.08,0.309 -23.55,0.578 v 0 c 5.49,-4.148 7.98,-11.047 7.89,-18.547 z M 1683.62,267 l -0.01,0.031 c 0,0 0,-0.011 0.01,-0.031 z m 41.59,-4.551 c -7.63,0 -26.85,-0.937 -38.58,-0.937 v 0 c -2.37,0.039 -4.4,0.07 -6.78,1.039 v 0 c -2.51,0.769 -4.88,4.371 -4.6,7.058 v 0 c -0.17,2.039 1.33,5.032 3.48,6.129 v 0 c 2.07,1.16 3.96,1.313 6.08,1.352 v 0 c 4.09,0 7.34,0.558 9.95,1.129 v 0 c 1.79,-0.188 3.68,3.453 4.82,12.742 v 0 c 1.46,12.418 1.51,35.738 1.51,65.461 v 0 L 1701.06,411 c 0.03,47.141 0,55.77 -0.58,65.441 v 0 c -1.34,10.25 -0.96,10.61 -9.33,13.11 v 0 c -1.38,0.41 -6.66,0.808 -10.58,0.789 v 0 c -1.89,0.019 -3.67,0.109 -5.7,0.93 v 0 c -2,0.609 -4.65,3.48 -4.47,6.531 v 0 c -0.3,3.008 2.47,6.508 4.93,7.14 v 0 c 2.4,0.887 4.52,0.938 7.06,0.981 v 0 c 15.94,0 35.19,-0.934 43.73,-0.934 v 0 c 11.47,0 73.39,0 79.93,0.293 v 0 c 5.92,0.297 9.38,0.399 11.12,0.981 v 0 c 0.82,0.058 2.22,1.828 6.48,2.136 v 0 c 5.07,-0.238 7.12,-4.558 7.12,-7.796 v 0 c -0.2,-4.153 -1.61,-6.704 -2.45,-14.442 v 0 c -0.3,-2.75 -0.85,-20.84 -1.53,-25.238 v 0 c -0.21,-1.492 -0.4,-3.102 -1.49,-5.024 v 0 c -0.97,-1.988 -3.96,-3.867 -6.5,-3.687 v 0 c -2.23,-0.242 -5.56,1.5 -6.57,3.75 v 0 c -1.13,2.117 -1.25,3.828 -1.47,6.187 v 0 c 0.02,2.411 -0.11,6.743 -1.33,9.582 v 0 c -0.95,2.098 -5.39,6.25 -15.67,6.532 v 0 l -44.4,0.859 v -74.59 l 36.01,0.301 c 5.18,0 9.29,0 13.4,0.316 v 0 c 5.38,0.383 7.44,1.161 9.47,3.75 v 0 c 0.87,0.973 2.84,4.793 7.82,4.922 v 0 c 1.85,0.141 4.48,-1.109 5.53,-2.968 v 0 c 1.13,-1.782 1.26,-3.372 1.28,-4.813 v 0 c -0.09,-3.269 -1.55,-10.09 -2.44,-19.711 v 0 c -0.6,-5.828 -1.21,-20.398 -1.21,-22.156 v 0 c -0.02,-1.422 0.11,-3.223 -0.64,-5.582 v 0 c -0.44,-2.43 -4.02,-5.629 -7.39,-5.289 v 0 c -3.11,-0.129 -5.77,2.39 -6.42,4.238 v 0 c -0.85,1.883 -0.98,3.531 -1,5.09 v 0 c 0.02,1.312 -0.51,4.851 -1.54,7.949 v 0 c -1.05,2.731 -3.84,6.801 -11.39,7.863 v 0 c -5.92,0.77 -31.96,0.887 -41.48,0.911 v 0 -22.93 c 0,-29.723 0.01,-53.043 1.5,-65.524 v 0 c 1.36,-9.207 1.7,-11.617 7.59,-12.617 v 0 c 3.98,-0.59 10.66,-1.191 14.46,-1.191 v 0 c 2.37,-0.039 4.28,-0.168 6.42,-1.25 v 0 c 2.27,-0.969 3.96,-4.168 3.75,-6.231 v 0 c 0.21,-2.808 -2.2,-6.097 -4.56,-6.898 v 0 c -2.31,-1.031 -4.52,-1.16 -7.12,-1.199 v 0 c -19.27,0 -38.56,0.937 -46.19,0.937 v 0"
         style="fill:#ffffff;fill-opacity:1;fill-rule:nonzero;stroke:none"
         id="path112" />
      <path
         d="m 1885.94,410.988 c 0,47.133 0,55.813 -0.62,65.731 -0.6,10.551 -3.64,15.82 -10.32,17.363 -3.34,0.938 -7.3,1.238 -10.94,1.238 -3.04,0 -4.86,0.629 -4.86,3.11 0,1.851 2.43,2.48 7.29,2.48 11.55,0 30.69,-0.93 39.5,-0.93 7.59,0 25.51,0.93 37.06,0.93 3.95,0 6.38,-0.629 6.38,-2.48 0,-2.481 -1.82,-3.11 -4.86,-3.11 -3.04,0 -5.47,-0.3 -9.11,-0.929 -8.2,-1.551 -10.64,-6.813 -11.25,-17.672 -0.61,-9.918 -0.61,-18.598 -0.61,-65.731 v -54.566 c 0,-30.07 0,-54.57 1.22,-67.902 0.91,-8.372 3.04,-13.961 12.15,-15.2 4.26,-0.609 10.94,-1.242 15.5,-1.242 3.34,0 4.86,-0.93 4.86,-2.476 0,-2.172 -2.43,-3.102 -5.77,-3.102 -20.06,0 -39.2,0.93 -47.4,0.93 -6.98,0 -26.12,-0.93 -38.28,-0.93 -3.95,0 -6.08,0.93 -6.08,3.102 0,1.546 1.22,2.476 4.87,2.476 4.56,0 8.2,0.633 10.94,1.242 6.07,1.239 7.9,6.512 8.8,15.508 1.53,13.024 1.53,37.524 1.53,67.594 v 54.566"
         style="fill:#ffffff;fill-opacity:1;fill-rule:nonzero;stroke:none"
         id="path114" />
      <path
         d="m 1890.94,356.41 c -0.02,-30.101 0.02,-54.519 -1.56,-68.09 v 0 c -0.47,-6.23 -1.9,-12.558 -5.98,-16.449 v 0 c 8.43,0.258 16.55,0.57 20.76,0.57 v 0 c 4.82,0 13.08,-0.3 22.97,-0.57 v 0 c -4.95,3.918 -7.07,10.367 -7.3,16.199 v 0 c -1.26,13.801 -1.23,38.258 -1.23,68.34 v 0 l -0.03,54.59 c 0.03,47.109 0,55.859 0.62,66 v 0 c 0.03,7.488 2.12,14.41 6.91,18.559 v 0 C 1918.19,495.301 1910.47,495 1905.99,495 v 0 c -5.36,0 -14.19,0.32 -22.88,0.59 v 0 c 4.69,-4 7.01,-10.789 7.19,-18.551 v 0 c 0.64,-10.18 0.62,-18.93 0.64,-66.039 v 0 h -0.02 l 0.02,-54.59 z m 13.22,-93.969 c -6.71,0 -25.96,-0.929 -38.3,-0.929 v 0 c -2.35,0.019 -4.47,0.187 -6.71,1.25 v 0 c -2.29,0.886 -4.54,4.039 -4.35,6.84 v 0 c -0.19,2.078 1.42,5.179 3.61,6.199 v 0 c 2.11,1.097 4.01,1.25 6.25,1.289 v 0 c 4.11,0 7.32,0.558 9.93,1.129 v 0 c 2.64,0.511 3.69,1.992 4.84,11.211 v 0 c 1.47,12.398 1.51,36.961 1.51,66.98 v 0 54.59 h -0.02 c 0.02,47.141 0,55.77 -0.6,65.449 v 0 c -0.96,10.102 -2.53,11.66 -6.69,12.84 v 0 c -2.62,0.75 -6.22,1.043 -9.57,1.043 v 0 c -1.85,0.039 -3.74,0.066 -6.01,1.25 v 0 c -2.4,1.148 -4.06,4.457 -3.86,6.859 v 0 c -0.18,3.547 3.27,6.348 5.3,6.688 v 0 c 2.21,0.68 4.34,0.769 6.98,0.793 v 0 c 11.75,0 30.94,-0.942 39.52,-0.942 v 0 c 7.3,0 25.31,0.942 37.05,0.942 v 0 c 2.24,-0.024 4.23,-0.113 6.32,-0.832 v 0 c 2,-0.43 5.2,-3.168 5.05,-6.649 v 0 c 0.2,-2.402 -1.44,-5.711 -3.86,-6.859 v 0 c -2.25,-1.184 -4.13,-1.211 -5.99,-1.25 v 0 c -2.7,0 -4.69,-0.254 -8.17,-0.852 v 0 c -5.58,-1.48 -6.01,-2.269 -7.2,-13.05 v 0 c -0.59,-9.66 -0.59,-18.289 -0.59,-65.43 v 0 -54.59 c 0,-30.019 0,-54.582 1.18,-67.34 v 0 c 1.49,-8.218 1.3,-9.41 7.91,-10.789 v 0 c 3.99,-0.59 10.63,-1.191 14.77,-1.191 v 0 c 2.13,-0.02 4.03,-0.219 6.04,-1.25 v 0 c 2.05,-0.891 3.98,-3.731 3.81,-6.238 v 0 c 0.15,-3.133 -2.29,-5.993 -4.41,-6.84 v 0 c -2.17,-1.012 -4.21,-1.231 -6.35,-1.25 v 0 c -20.17,0 -39.47,0.929 -47.39,0.929 v 0"
         style="fill:#ffffff;fill-opacity:1;fill-rule:nonzero;stroke:none"
         id="path116" />
      <path
         d="m 2060.61,483.539 -45.26,-1.238 c -17.62,-0.621 -24.91,-2.16 -29.46,-8.992 -3.05,-4.649 -4.56,-8.368 -5.17,-10.848 -0.61,-2.481 -1.52,-3.723 -3.34,-3.723 -2.13,0 -2.73,1.551 -2.73,4.961 0,4.961 5.77,33.172 6.37,35.66 0.91,4.032 1.82,5.879 3.65,5.879 2.43,0 5.47,-3.09 13.06,-3.718 8.81,-0.918 20.36,-1.54 30.38,-1.54 h 120.31 c 19.44,0 26.74,3.098 29.17,3.098 2.12,0 2.42,-1.867 2.42,-6.519 0,-6.5 -0.91,-27.899 -0.91,-35.957 -0.3,-3.102 -0.91,-4.973 -2.73,-4.973 -2.43,0 -3.04,1.562 -3.34,6.211 l -0.31,3.41 c -0.6,8.059 -8.8,16.738 -35.85,17.371 l -38.28,0.918 V 356.422 c 0,-28.531 0,-53.024 1.53,-66.352 0.9,-8.679 2.73,-15.511 11.84,-16.75 4.26,-0.609 10.94,-1.242 15.5,-1.242 3.34,0 4.85,-0.93 4.85,-2.476 0,-2.172 -2.43,-3.102 -5.77,-3.102 -20.05,0 -39.19,0.93 -47.69,0.93 -6.99,0 -26.13,-0.93 -38.28,-0.93 -3.95,0 -6.08,0.93 -6.08,3.102 0,1.546 1.22,2.476 4.87,2.476 4.55,0 8.2,0.633 10.93,1.242 6.08,1.239 7.9,8.071 8.81,17.051 1.51,13.027 1.51,37.52 1.51,66.051 v 127.117"
         style="fill:#ffffff;fill-opacity:1;fill-rule:nonzero;stroke:none"
         id="path118" />
      <path
         d="m 2065.61,356.43 c 0,-28.571 0.02,-52.981 -1.53,-66.551 v 0 c -0.71,-6.52 -1.76,-13.68 -6.33,-18.02 v 0 c 8.55,0.262 16.84,0.571 21.1,0.571 v 0 c 5.08,0 13.59,-0.301 23.73,-0.559 v 0 c -5.37,4.309 -7.11,11.668 -7.44,17.629 v 0 c -1.59,13.93 -1.56,38.359 -1.56,66.93 v 0 132.25 l 43.4,-1.059 c 20.19,-0.269 32.1,-5.531 37.42,-12.973 v 0 c 0.27,8.672 0.6,18.114 0.6,21.922 v 0 c 0,0.352 0,0.68 0,0.981 v 0 c -1.26,-0.281 -2.99,-0.653 -5.18,-1 v 0 c -4.82,-0.813 -11.98,-1.59 -21.4,-1.571 v 0 L 2028.11,495 c -10.22,0 -21.89,0.621 -30.79,1.551 v 0 c -5.11,0.39 -8.99,1.98 -11.13,2.949 v 0 c -0.11,-0.391 -0.21,-0.828 -0.32,-1.328 v 0 c -0.31,-1.133 -2.72,-12.961 -4.44,-22.524 v 0 c 0.09,0.153 0.19,0.301 0.29,0.454 v 0 c 6.2,9.148 16.05,10.636 33.48,11.207 v 0 l 45.26,1.242 5.15,0.148 V 356.43 Z m 13.24,-93.981 c -6.73,0 -25.95,-0.937 -38.29,-0.937 v 0 c -2.37,0.019 -4.48,0.187 -6.71,1.25 v 0 c -2.3,0.879 -4.55,4.027 -4.37,6.84 v 0 c -0.18,2.07 1.44,5.179 3.63,6.187 v 0 c 2.08,1.109 4,1.262 6.24,1.301 v 0 c 4.1,0 7.32,0.558 9.94,1.129 v 0 c 1.89,-0.098 3.95,3.543 4.82,12.73 v 0 c 1.48,12.43 1.5,37 1.5,65.481 v 0 122 l -40.08,-1.121 c -17.86,-0.661 -22.59,-2.27 -25.46,-6.719 v 0 c -2.8,-4.262 -4.07,-7.539 -4.51,-9.328 v 0 c -0.27,-2.782 -3.32,-7.711 -8.18,-7.512 v 0 c -2.21,-0.23 -5.62,1.512 -6.62,3.922 v 0 c -1.09,2.25 -1.09,4.039 -1.11,6.039 v 0 c 0.12,6.641 5.81,33.687 6.49,36.758 v 0 c 0.51,2.203 0.98,4 2.04,5.883 v 0 c 0.88,1.847 3.68,4.058 6.48,3.886 v 0 c 6.35,-0.789 6.78,-3.258 13.58,-3.726 v 0 c 8.6,-0.903 20.03,-1.532 29.87,-1.532 v 0 h 120.31 c 19.4,0.071 24.28,2.829 29.16,3.09 v 0 c 2.61,0.45 6.44,-2.57 6.77,-4.949 v 0 c 0.65,-2.262 0.61,-4.101 0.65,-6.551 v 0 c 0,-6.75 -0.91,-28.109 -0.93,-36.449 v 0 c -0.19,-1.801 -0.39,-3.43 -1.28,-5.351 v 0 c -0.7,-1.938 -3.66,-4.321 -6.43,-4.129 v 0 c -2.15,-0.282 -5.91,1.507 -6.94,4.089 v 0 c -1.1,2.36 -1.19,4.27 -1.38,6.692 v 0 l -0.32,3.457 c -0.21,4.191 -4.49,11.859 -30.97,12.75 v 0 l -33.17,0.812 V 356.43 c 0,-28.481 0.02,-53.051 1.5,-65.809 v 0 c 1.36,-8.883 1.7,-11.332 7.6,-12.34 v 0 c 4,-0.59 10.64,-1.191 14.77,-1.191 v 0 c 2.12,-0.02 4.01,-0.211 6.05,-1.25 v 0 c 2.04,-0.899 3.95,-3.75 3.8,-6.238 v 0 c 0.13,-3.114 -2.3,-6.012 -4.43,-6.84 v 0 c -2.15,-1.012 -4.21,-1.231 -6.34,-1.25 v 0 c -20.18,0 -39.46,0.937 -47.68,0.937 v 0"
         style="fill:#ffffff;fill-opacity:1;fill-rule:nonzero;stroke:none"
         id="path120" />
      <path
         d="m 2210.09,270.219 c -4.87,2.172 -5.77,3.73 -5.77,10.543 0,17.047 1.21,35.668 1.51,40.629 0.31,4.648 1.22,8.05 3.65,8.05 2.74,0 3.04,-2.793 3.04,-5.269 0,-4.031 1.21,-10.543 2.73,-15.813 6.68,-22.949 24.61,-31.32 43.44,-31.32 27.34,0 40.71,18.922 40.71,35.352 0,15.187 -4.56,29.769 -29.77,49.609 l -13.98,11.16 c -33.41,26.66 -44.96,48.371 -44.96,73.481 0,34.109 27.95,58.597 70.18,58.597 19.75,0 32.51,-3.09 40.41,-5.258 2.73,-0.621 4.25,-1.55 4.25,-3.73 0,-4.02 -1.21,-13.02 -1.21,-37.211 0,-6.809 -0.91,-9.289 -3.34,-9.289 -2.13,0 -3.04,1.852 -3.04,5.582 0,2.789 -1.52,12.398 -7.9,20.457 -4.56,5.891 -13.37,15.199 -33.12,15.199 -22.48,0 -36.15,-13.328 -36.15,-31.949 0,-14.25 6.98,-25.098 32.21,-44.648 l 8.5,-6.5 c 36.46,-28.84 49.83,-49.61 49.83,-79.063 0,-17.988 -6.69,-39.387 -28.57,-53.957 -15.18,-9.922 -32.19,-12.711 -48.3,-12.711 -17.61,0 -31.29,2.18 -44.35,8.059"
         style="fill:#ffffff;fill-opacity:1;fill-rule:nonzero;stroke:none"
         id="path122" />
      <path
         d="m 2254.43,267.18 c 15.55,0 31.51,2.691 45.53,11.859 v 0 c 20.26,13.563 26.28,32.961 26.34,49.789 v 0 c -0.15,27.633 -11.79,46.363 -47.85,75.113 v 0 l -8.56,6.52 c -25.33,19.449 -34.2,32.18 -34.13,48.598 v 0 c -0.03,10.511 3.97,20.023 11.28,26.652 v 0 c 7.32,6.629 17.66,10.309 29.87,10.289 v 0 c 21.39,0.16 32.27,-10.691 37.04,-17.09 v 0 c 2.37,-3.051 4.14,-6.191 5.44,-9.14 v 0 c 0.25,14.5 0.95,21.851 1.1,25.281 v 0 c -0.15,0.039 -0.32,0.09 -0.55,0.14 v 0 c -7.71,2.09 -19.82,5.039 -39.08,5.059 v 0 c -40.39,-0.289 -65.04,-22.57 -65.19,-53.602 v 0 c 0.1,-23.347 10.22,-43.16 43.1,-69.558 v 0 l 13.94,-11.149 c 25.93,-20.089 31.9,-37.171 31.69,-53.55 v 0 c -0.04,-19.039 -15.85,-40.301 -45.72,-40.321 v 0 c -20.17,-0.281 -41.07,9.66 -48.23,34.899 v 0 c -0.13,0.441 -0.26,0.883 -0.37,1.332 v 0 c -0.39,-7.86 -0.78,-17.969 -0.78,-27.539 v 0 c 0.87,-6.942 -1.05,-3.321 2.81,-5.973 v 0 l -2.03,-4.559 2.05,4.559 c 12.28,-5.519 25.08,-7.609 42.3,-7.609 z m 0,-10 c -17.99,-0.02 -32.56,2.242 -46.41,8.48 v 0 0.012 c -5.83,1.687 -9.58,8.43 -8.7,15.09 v 0 c 0,17.277 1.21,35.976 1.51,40.968 v 0 c 0.19,2.579 0.47,4.93 1.37,7.29 v 0 c 0.7,2.152 3.32,5.48 7.28,5.421 v 0 c 3.19,0.258 6.51,-2.5 7.15,-4.781 v 0 c 0.9,-2.238 0.85,-4.031 0.87,-5.48 v 0 c -0.02,-3.141 1.11,-9.571 2.54,-14.41 v 0 c 6.21,-20.668 21.15,-27.469 38.64,-27.731 v 0 c 24.83,0.141 35.55,16.551 35.71,30.352 v 0 c -0.2,14.007 -3.37,26.097 -27.89,45.718 v 0 l -13.98,11.153 c -33.95,26.91 -46.93,50.539 -46.86,77.386 v 0 c 0.09,37.211 31.15,63.551 75.2,63.602 v 0 c 20.25,0.031 33.65,-3.211 41.53,-5.391 v 0 c 2.9,-0.23 8.32,-3.257 8.13,-8.609 v 0 c -0.02,-4.738 -1.21,-13.059 -1.21,-37.191 v 0 c -0.02,-3.649 -0.17,-6.297 -1.05,-8.911 v 0 c -0.57,-2.609 -4.16,-5.718 -7.29,-5.367 v 0 c -2.54,-0.222 -5.74,1.739 -6.74,4.02 v 0 c -1.13,2.238 -1.26,4.269 -1.3,6.551 v 0 c 0.09,1.488 -1.37,10.66 -6.85,17.386 v 0 c -4.32,5.34 -11.06,13.102 -29.17,13.25 v 0 c -20.49,-0.347 -30.88,-11.027 -31.15,-26.929 v 0 c 0.08,-12.098 5.18,-21.09 30.24,-40.688 v 0 l 8.57,-6.543 c 36.78,-28.898 51.87,-51.707 51.73,-83 v 0 c 0.07,-19.117 -7.32,-42.519 -30.83,-58.129 v 0 c -16.24,-10.597 -34.25,-13.519 -50.85,-13.519 v 0 c -0.06,0 -0.13,0 -0.19,0 v 0"
         style="fill:#ffffff;fill-opacity:1;fill-rule:nonzero;stroke:none"
         id="path124" />
      <path
         d="m 186.484,1524.86 h 721.114 v -95.35 H 852.383 V 1468 h -665.91 l 0.011,56.86"
         style="fill:#ffffff;fill-opacity:1;fill-rule:nonzero;stroke:none"
         id="path126" />
      <path
         d="m 186.473,1397.34 h 537.785 l -0.039,-56.9 H 186.473 v 56.9"
         style="fill:#ffffff;fill-opacity:1;fill-rule:nonzero;stroke:none"
         id="path128" />
      <path
         d="M 941.602,1524.84 H 2332.85 v -56.82 H 941.602 v 56.82"
         style="fill:#ffffff;fill-opacity:1;fill-rule:nonzero;stroke:none"
         id="path130" />
      <path
         d="M 2332.82,1340.44 H 757.832 v 95.19 h 55.234 v -38.49 H 2332.82 v -56.7"
         style="fill:#ffffff;fill-opacity:1;fill-rule:nonzero;stroke:none"
         id="path132" />
      <path
         d="m 2332.84,646.309 h -721.11 v 95.339 h 55.21 V 703.16 h 665.91 l -0.01,-56.851"
         style="fill:#ffffff;fill-opacity:1;fill-rule:nonzero;stroke:none"
         id="path134" />
      <path
         d="m 2332.85,773.828 h -537.78 l 0.04,56.891 h 537.74 v -56.891"
         style="fill:#ffffff;fill-opacity:1;fill-rule:nonzero;stroke:none"
         id="path136" />
      <path
         d="M 1577.72,646.328 H 186.473 v 56.813 H 1577.72 v -56.813"
         style="fill:#ffffff;fill-opacity:1;fill-rule:nonzero;stroke:none"
         id="path138" />
      <path
         d="M 186.504,830.719 H 1761.49 v -95.18 h -55.23 V 774.02 H 186.504 v 56.699"
         style="fill:#ffffff;fill-opacity:1;fill-rule:nonzero;stroke:none"
         id="path140" />
    </g>
  </g>
</svg>
