<?xml version="1.0" encoding="UTF-8" standalone="no"?>
<!-- Created with Inkscape (http://www.inkscape.org/) -->

<svg
   width="47.817818mm"
   height="38.4571mm"
   viewBox="0 0 47.817818 38.4571"
   version="1.1"
   id="svg5"
   inkscape:version="1.2.2 (732a01da63, 2022-12-09)"
   sodipodi:docname="mc-logo.svg"
   inkscape:export-filename="mc-logo.svg"
   inkscape:export-xdpi="96"
   inkscape:export-ydpi="96"
   xmlns:inkscape="http://www.inkscape.org/namespaces/inkscape"
   xmlns:sodipodi="http://sodipodi.sourceforge.net/DTD/sodipodi-0.dtd"
   xmlns="http://www.w3.org/2000/svg"
   xmlns:svg="http://www.w3.org/2000/svg">
  <sodipodi:namedview
     id="namedview7"
     pagecolor="#ffffff"
     bordercolor="#000000"
     borderopacity="0.25"
     inkscape:showpageshadow="2"
     inkscape:pageopacity="0.0"
     inkscape:pagecheckerboard="0"
     inkscape:deskcolor="#d1d1d1"
     inkscape:document-units="mm"
     showgrid="false"
     showguides="true"
     inkscape:zoom="2.0510461"
     inkscape:cx="329.58791"
     inkscape:cy="350.7966"
     inkscape:window-width="1920"
     inkscape:window-height="1001"
     inkscape:window-x="-9"
     inkscape:window-y="-9"
     inkscape:window-maximized="1"
     inkscape:current-layer="layer1">
    <sodipodi:guide
       position="-0.036916613,-0.94672335"
       orientation="1,0"
       id="guide7075"
       inkscape:locked="false" />
    <sodipodi:guide
       position="47.942812,3.6140866"
       orientation="1,0"
       id="guide7077"
       inkscape:locked="false" />
    <sodipodi:guide
       position="23.809521,12.700967"
       orientation="1,0"
       id="guide9257"
       inkscape:locked="false" />
    <sodipodi:guide
       position="18.133557,32.179847"
       orientation="0,-1"
       id="guide2430"
       inkscape:locked="false" />
    <sodipodi:guide
       position="22.777529,6.8959966"
       orientation="0,-1"
       id="guide2432"
       inkscape:locked="false" />
  </sodipodi:namedview>
  <defs
     id="defs2" />
  <g
     inkscape:label="Layer 1"
     inkscape:groupmode="layer"
     id="layer1"
     transform="translate(-54.492997,-59.383337)">
    <g
       aria-label="matt"
       id="text2428"
       style="font-size:9.17222px;font-family:Roboto;-inkscape-font-specification:Roboto;display:inline;fill:#462940;stroke-width:0.264999;stroke-miterlimit:0;stroke-dasharray:6.36, 0.264999;stroke-dashoffset:0.291499"
       transform="translate(0,-4.2333335)">
      <path
         d="m 61.003929,64.79007 0.02239,0.537435 q 0.532956,-0.627007 1.437638,-0.627007 1.016647,0 1.383894,0.77928 0.241846,-0.349332 0.627008,-0.564306 0.38964,-0.214974 0.918117,-0.214974 1.59439,0 1.621262,1.688441 v 3.247002 h -0.828545 v -3.197737 q 0,-0.519521 -0.237367,-0.774802 -0.237367,-0.25976 -0.797195,-0.25976 -0.461298,0 -0.765845,0.277674 -0.304546,0.273196 -0.353811,0.738973 v 3.215652 h -0.833024 v -3.175344 q 0,-1.056955 -1.034562,-1.056955 -0.815109,0 -1.115177,0.694186 v 3.538113 H 60.22017 V 64.79007 Z"
         style="stroke-width:0.265"
         id="path9041" />
      <path
         d="m 71.255497,69.635941 q -0.07166,-0.143316 -0.116444,-0.510563 -0.577743,0.600135 -1.379416,0.600135 -0.71658,0 -1.177878,-0.403076 -0.45682,-0.407555 -0.45682,-1.030083 0,-0.756888 0.573264,-1.1734 0.577742,-0.42099 1.621262,-0.42099 h 0.806152 v -0.380683 q 0,-0.434427 -0.25976,-0.689708 -0.259761,-0.25976 -0.765845,-0.25976 -0.443384,0 -0.743451,0.223931 -0.300068,0.223931 -0.300068,0.541913 h -0.833024 q 0,-0.362768 0.255281,-0.698665 0.259761,-0.340375 0.698666,-0.537435 0.443383,-0.197059 0.971861,-0.197059 0.837502,0 1.312236,0.42099 0.474735,0.416512 0.492649,1.151007 v 2.230354 q 0,0.667315 0.170188,1.061434 v 0.07166 z m -1.374938,-0.631486 q 0.389641,0 0.738973,-0.201538 0.349333,-0.201538 0.506085,-0.523999 v -0.994255 h -0.649401 q -1.522731,0 -1.522731,0.891246 0,0.389641 0.25976,0.609093 0.25976,0.219453 0.667314,0.219453 z"
         style="stroke-width:0.265"
         id="path9043" />
      <path
         d="m 74.377097,63.616671 v 1.173399 h 0.904682 v 0.640443 h -0.904682 v 3.005157 q 0,0.29111 0.120923,0.438905 0.120923,0.143316 0.412033,0.143316 0.143316,0 0.394119,-0.05374 v 0.671794 q -0.326939,0.08957 -0.635964,0.08957 -0.55535,0 -0.837503,-0.335897 Q 73.548552,69.05372 73.548552,68.43567 V 65.430513 H 72.666263 V 64.79007 h 0.882289 v -1.173399 z"
         style="stroke-width:0.265"
         id="path9045" />
      <path
         d="m 77.373296,63.616671 v 1.173399 h 0.904682 v 0.640443 h -0.904682 v 3.005157 q 0,0.29111 0.120923,0.438905 0.120923,0.143316 0.412033,0.143316 0.143316,0 0.394119,-0.05374 v 0.671794 q -0.32694,0.08957 -0.635965,0.08957 -0.555349,0 -0.837502,-0.335897 Q 76.544751,69.05372 76.544751,68.43567 V 65.430513 H 75.662462 V 64.79007 h 0.882289 v -1.173399 z"
         style="stroke-width:0.265"
         id="path9047" />
    </g>
    <text
       xml:space="preserve"
       style="font-style:normal;font-variant:normal;font-weight:normal;font-stretch:normal;font-size:31.5499px;font-family:'Eras Medium ITC';-inkscape-font-specification:'Eras Medium ITC';opacity:1;fill:#462940;fill-opacity:1;stroke-width:0.296245;stroke-miterlimit:0;stroke-dasharray:7.10991, 0.296245;stroke-dashoffset:0.32587"
       x="52.382484"
       y="87.583092"
       id="text7042"><tspan
         sodipodi:role="line"
         id="tspan7040"
         style="font-style:normal;font-variant:normal;font-weight:normal;font-stretch:normal;font-size:31.5499px;font-family:Consolas;-inkscape-font-specification:Consolas;fill:#462940;fill-opacity:1;stroke-width:0.296246"
         x="52.382484"
         y="87.583092">&lt;/&gt;</tspan></text>
    <g
       aria-label="chriest"
       id="text7042-8"
       style="font-size:9.17222px;font-family:'Segoe UI';-inkscape-font-specification:'Segoe UI';fill:#462940;stroke-width:0.264999;stroke-miterlimit:0;stroke-dasharray:6.36, 0.264999;stroke-dashoffset:0.291499"
       transform="translate(0,2.6458332)">
      <path
         d="m 76.874128,94.518327 q 0.443384,0 0.774802,-0.268718 0.331418,-0.268717 0.367247,-0.671793 h 0.783759 q -0.02239,0.416512 -0.286632,0.792716 -0.264239,0.376204 -0.707623,0.600136 -0.438905,0.223931 -0.931553,0.223931 -0.989776,0 -1.576476,-0.658358 -0.582221,-0.662836 -0.582221,-1.809364 V 92.58804 q 0,-0.707622 0.259761,-1.258493 0.25976,-0.550871 0.743451,-0.855417 0.48817,-0.304546 1.151006,-0.304546 0.81511,0 1.352544,0.488169 0.541914,0.48817 0.577743,1.267451 h -0.783759 q -0.03583,-0.470256 -0.35829,-0.770323 -0.317982,-0.304547 -0.788238,-0.304547 -0.631486,0 -0.980818,0.45682 -0.344854,0.452341 -0.344854,1.312236 v 0.156752 q 0,0.837503 0.344854,1.289844 0.344854,0.452341 0.985297,0.452341 z"
         style="font-family:Roboto;-inkscape-font-specification:Roboto;stroke-width:0.265"
         id="path9050" />
      <path
         d="m 80.560035,90.845856 q 0.55087,-0.676272 1.433159,-0.676272 1.536168,0 1.549604,1.733227 v 3.202215 h -0.828546 v -3.206694 q -0.0045,-0.523999 -0.241845,-0.774802 -0.232889,-0.250803 -0.730016,-0.250803 -0.403076,0 -0.707622,0.214974 -0.304547,0.214974 -0.474734,0.564307 v 3.453018 h -0.828546 v -6.879165 h 0.828546 z"
         style="font-family:Roboto;-inkscape-font-specification:Roboto;stroke-width:0.265"
         id="path9052" />
      <path
         d="m 87.125696,91.002607 q -0.188102,-0.03135 -0.407554,-0.03135 -0.81511,0 -1.10622,0.694187 v 3.439582 h -0.828546 v -4.84587 h 0.806153 l 0.01344,0.559828 q 0.407555,-0.6494 1.155485,-0.6494 0.241846,0 0.367247,0.0627 z"
         style="font-family:Roboto;-inkscape-font-specification:Roboto;stroke-width:0.265"
         id="path9054" />
      <path
         d="m 88.787266,95.105026 h -0.828545 v -4.84587 h 0.828545 z m -0.895725,-6.131235 q 0,-0.201538 0.120923,-0.340375 0.125402,-0.138838 0.367247,-0.138838 0.241846,0 0.367247,0.138838 0.125402,0.138837 0.125402,0.340375 0,0.201538 -0.125402,0.335897 -0.125401,0.134359 -0.367247,0.134359 -0.241845,0 -0.367247,-0.134359 -0.120923,-0.134359 -0.120923,-0.335897 z"
         style="font-family:Roboto;-inkscape-font-specification:Roboto;stroke-width:0.265"
         id="path9056" />
      <path
         d="m 92.123839,95.194599 q -0.985297,0 -1.603347,-0.644922 -0.61805,-0.6494 -0.61805,-1.733227 v -0.152273 q 0,-0.721059 0.273196,-1.285365 0.277675,-0.568785 0.770324,-0.886768 0.497127,-0.32246 1.074869,-0.32246 0.94499,0 1.468989,0.622528 0.523998,0.622529 0.523998,1.782492 v 0.344854 h -3.28283 q 0.01791,0.71658 0.416512,1.159964 0.403076,0.438905 1.021126,0.438905 0.438905,0 0.743451,-0.179145 0.304547,-0.179145 0.532956,-0.474734 l 0.506085,0.394118 q -0.609093,0.936033 -1.827279,0.936033 z m -0.103008,-4.344265 q -0.501606,0 -0.841981,0.367247 -0.340375,0.362769 -0.420991,1.021126 h 2.427414 v -0.0627 q -0.03583,-0.631486 -0.340375,-0.97634 -0.304547,-0.349333 -0.824067,-0.349333 z"
         style="font-family:Roboto;-inkscape-font-specification:Roboto;stroke-width:0.265"
         id="path9058" />
      <path
         d="m 97.793778,93.819661 q 0,-0.335896 -0.255282,-0.51952 -0.250803,-0.188102 -0.882289,-0.322461 -0.627007,-0.134358 -0.998733,-0.322461 -0.367247,-0.188102 -0.546392,-0.447862 -0.174666,-0.25976 -0.174666,-0.61805 0,-0.595657 0.501606,-1.00769 0.506084,-0.412033 1.289843,-0.412033 0.824067,0 1.33463,0.425469 0.515042,0.425469 0.515042,1.088305 h -0.833024 q 0,-0.340375 -0.291111,-0.586699 -0.286632,-0.246325 -0.725537,-0.246325 -0.452341,0 -0.707622,0.19706 -0.255282,0.197059 -0.255282,0.515041 0,0.300068 0.237367,0.452341 0.237367,0.152273 0.855417,0.291111 0.622529,0.138837 1.007691,0.331418 0.385161,0.192581 0.568785,0.465777 0.188102,0.268717 0.188102,0.658357 0,0.649401 -0.51952,1.043519 -0.519521,0.389641 -1.348066,0.389641 -0.582221,0 -1.030083,-0.206017 -0.447863,-0.206017 -0.703144,-0.573264 -0.250803,-0.371725 -0.250803,-0.801673 h 0.828545 q 0.02239,0.416512 0.331418,0.662836 0.313504,0.241846 0.824067,0.241846 0.470255,0 0.752409,-0.188103 0.286632,-0.19258 0.286632,-0.510563 z"
         style="font-family:Roboto;-inkscape-font-specification:Roboto;stroke-width:0.265"
         id="path9060" />
      <path
         d="m 100.8258,89.085757 v 1.173399 h 0.90469 v 0.640443 h -0.90469 v 3.005156 q 0,0.291111 0.12093,0.438905 0.12092,0.143316 0.41203,0.143316 0.14332,0 0.39412,-0.05374 v 0.671793 q -0.32694,0.08957 -0.63596,0.08957 -0.55535,0 -0.83751,-0.335897 -0.28215,-0.335897 -0.28215,-0.953947 v -3.005156 h -0.882289 v -0.640443 h 0.882289 v -1.173399 z"
         style="font-family:Roboto;-inkscape-font-specification:Roboto;stroke-width:0.265"
         id="path9062" />
    </g>
  </g>
</svg>
