<?xml version="1.0" encoding="UTF-8" standalone="no"?>
<!-- Created with Inkscape (http://www.inkscape.org/) -->

<svg
   width="25.48587mm"
   height="11.689072mm"
   viewBox="0 0 25.48587 11.689072"
   version="1.1"
   id="svg5"
   sodipodi:docname="logo.svg"
   inkscape:version="1.2.2 (732a01da63, 2022-12-09)"
   xmlns:inkscape="http://www.inkscape.org/namespaces/inkscape"
   xmlns:sodipodi="http://sodipodi.sourceforge.net/DTD/sodipodi-0.dtd"
   xmlns="http://www.w3.org/2000/svg"
   xmlns:svg="http://www.w3.org/2000/svg">
  <sodipodi:namedview
     id="namedview7"
     pagecolor="#ffffff"
     bordercolor="#000000"
     borderopacity="0.25"
     inkscape:showpageshadow="2"
     inkscape:pageopacity="0.0"
     inkscape:pagecheckerboard="0"
     inkscape:deskcolor="#d1d1d1"
     inkscape:document-units="mm"
     showgrid="false"
     showguides="true"
     inkscape:zoom="12.489028"
     inkscape:cx="70.94227"
     inkscape:cy="16.734689"
     inkscape:window-width="2560"
     inkscape:window-height="1377"
     inkscape:window-x="1912"
     inkscape:window-y="-8"
     inkscape:window-maximized="1"
     inkscape:current-layer="layer1">
    <sodipodi:guide
       position="-0.045377483,2.9022892"
       orientation="1,0"
       id="guide568"
       inkscape:locked="false" />
    <sodipodi:guide
       position="25.297439,-2.3589409"
       orientation="1,0"
       id="guide570"
       inkscape:locked="false" />
    <sodipodi:guide
       position="18.388808,11.477219"
       orientation="0,-1"
       id="guide584"
       inkscape:locked="false" />
    <sodipodi:guide
       position="17.774435,6.5622383"
       orientation="0,-1"
       id="guide586"
       inkscape:locked="false" />
  </sodipodi:namedview>
  <defs
     id="defs2" />
  <g
     inkscape:label="Layer 1"
     inkscape:groupmode="layer"
     id="layer1"
     transform="translate(-77.333551,-99.846448)">
    <g
       aria-label="matt "
       id="text344"
       style="font-size:7.40833px;line-height:1.5;font-family:Whitman-RomanLF;-inkscape-font-specification:Whitman-RomanLF;stroke-width:0.264583">
      <path
         d="m 77.333556,104.92814 v -0.45579 l 0.589628,-0.10128 v -2.79621 l -0.589628,-0.10129 v -0.4594 h 1.229899 l 0.04702,0.51004 q 0.188102,-0.27853 0.484725,-0.43046 0.296622,-0.15193 0.687296,-0.15193 0.390674,0 0.669209,0.18087 0.282154,0.18087 0.42323,0.5426 0.184485,-0.3328 0.488342,-0.52813 0.303858,-0.19534 0.709001,-0.19534 0.60048,0 0.947745,0.41238 0.347265,0.40876 0.347265,1.23351 v 1.78336 l 0.589628,0.10128 v 0.45579 h -1.89549 v -0.45579 l 0.589627,-0.10128 v -1.79059 q 0,-0.57878 -0.198954,-0.81752 -0.198954,-0.24236 -0.589628,-0.24236 -0.372586,0 -0.600479,0.26406 -0.224276,0.26045 -0.26045,0.65836 v 1.92805 l 0.589628,0.10128 v 0.45579 h -1.891873 v -0.45579 l 0.589628,-0.10128 v -1.79059 q 0,-0.54984 -0.206189,-0.80305 -0.202572,-0.25683 -0.589628,-0.25683 -0.325561,0 -0.535367,0.13384 -0.209807,0.13384 -0.321945,0.3762 v 2.34043 l 0.589628,0.10128 v 0.45579 z"
         style="fill:#ffffff"
         id="path2242" />
      <path
         d="m 85.751126,105.0041 q -0.611332,0 -0.929658,-0.29662 -0.318327,-0.30024 -0.318327,-0.84284 0,-0.37259 0.202572,-0.64751 0.206188,-0.27853 0.593245,-0.43046 0.387056,-0.15555 0.926041,-0.15555 h 0.698148 v -0.38344 q 0,-0.3545 -0.217041,-0.54983 -0.213423,-0.19534 -0.604097,-0.19534 -0.24598,0 -0.426847,0.0615 -0.180867,0.0579 -0.329179,0.16279 l -0.07596,0.54621 h -0.549837 v -0.8971 q 0.264066,-0.21342 0.614949,-0.32194 0.350883,-0.11214 0.77773,-0.11214 0.712618,0 1.117761,0.34003 0.405143,0.34003 0.405143,0.97307 v 1.88464 q 0,0.076 0,0.14831 0.0036,0.0724 0.01085,0.14469 l 0.379822,0.0398 v 0.45579 h -1.02371 q -0.03256,-0.15916 -0.05064,-0.28577 -0.01809,-0.12661 -0.02532,-0.25322 -0.206189,0.26407 -0.517281,0.44132 -0.307475,0.17363 -0.658358,0.17363 z m 0.104903,-0.59686 q 0.354501,0 0.647506,-0.17001 0.293005,-0.17002 0.419612,-0.40877 v -0.709 h -0.723469 q -0.49196,0 -0.73794,0.23513 -0.245979,0.23513 -0.245979,0.52452 0,0.25683 0.159163,0.39429 0.159163,0.13384 0.481107,0.13384 z"
         style="fill:#ffffff"
         id="path2244" />
      <path
         d="m 89.96172,104.98963 q -0.434082,0 -0.690913,-0.25321 -0.253215,-0.25683 -0.253215,-0.81752 v -2.3766 h -0.618567 v -0.52813 h 0.618567 v -0.94413 h 0.712618 v 0.94413 h 0.850077 v 0.52813 H 89.73021 v 2.3766 q 0,0.28215 0.112138,0.41599 0.112137,0.13385 0.30024,0.13385 0.126607,0 0.282153,-0.0217 0.155546,-0.0253 0.242362,-0.0434 l 0.09767,0.46664 q -0.155546,0.047 -0.383438,0.0832 -0.224276,0.0362 -0.419613,0.0362 z"
         style="fill:#ffffff"
         id="path2246" />
      <path
         d="m 92.602384,104.98963 q -0.434082,0 -0.690913,-0.25321 -0.253215,-0.25683 -0.253215,-0.81752 v -2.3766 H 91.03969 v -0.52813 h 0.618566 v -0.94413 h 0.712618 v 0.94413 h 0.850077 v 0.52813 h -0.850077 v 2.3766 q 0,0.28215 0.112138,0.41599 0.112138,0.13385 0.30024,0.13385 0.126607,0 0.282153,-0.0217 0.155546,-0.0253 0.242362,-0.0434 l 0.09767,0.46664 q -0.155546,0.047 -0.383439,0.0832 -0.224276,0.0362 -0.419613,0.0362 z"
         style="fill:#ffffff"
         id="path2248" />
    </g>
    <g
       aria-label="chriest"
       id="text562"
       style="font-size:7.40833px;line-height:1.5;font-family:'Roboto Slab';-inkscape-font-specification:'Roboto Slab';stroke-width:0.264583">
      <path
         d="m 80.584465,111.53552 q -0.531751,0 -0.926042,-0.24598 -0.394291,-0.2496 -0.611332,-0.69091 -0.21704,-0.44132 -0.21704,-1.02009 v -0.15193 q 0,-0.55708 0.209806,-0.99839 0.209806,-0.44132 0.604097,-0.69815 0.394291,-0.25683 0.940511,-0.25683 0.473872,0 0.828372,0.15554 0.358118,0.15555 0.60048,0.42685 l 0.01809,0.94051 h -0.557072 l -0.122989,-0.68368 q -0.12299,-0.1266 -0.307475,-0.20257 -0.184485,-0.076 -0.434082,-0.076 -0.318327,0 -0.560689,0.1881 -0.238745,0.1881 -0.372587,0.50281 -0.133842,0.31471 -0.133842,0.70177 v 0.15193 q 0,0.42684 0.12299,0.74155 0.126607,0.31471 0.358118,0.48834 0.235127,0.17002 0.557071,0.17002 0.361735,0 0.60048,-0.19895 0.238745,-0.19896 0.293005,-0.54622 h 0.640271 l 0.0072,0.0217 q -0.01809,0.33641 -0.198954,0.62942 -0.180868,0.293 -0.517281,0.47387 -0.332796,0.17725 -0.821138,0.17725 z"
         style="fill:#ffffff"
         id="path2227" />
      <path
         d="m 82.584858,111.45956 v -0.45579 l 0.589628,-0.10129 v -4.5253 l -0.589628,-0.10128 v -0.45941 h 1.302246 v 2.24999 q 0.202571,-0.28215 0.495577,-0.4377 0.293005,-0.15554 0.651122,-0.15554 0.629419,0 0.976684,0.3762 0.347266,0.37621 0.347266,1.15755 v 1.89549 l 0.589628,0.10129 v 0.45579 h -1.891874 v -0.45579 l 0.589628,-0.10129 v -1.90272 q 0,-0.48473 -0.209806,-0.71624 -0.206189,-0.23151 -0.618567,-0.23151 -0.293005,0 -0.535367,0.14108 -0.238745,0.13746 -0.394291,0.37621 v 2.33318 l 0.589628,0.10129 v 0.45579 z"
         style="fill:#ffffff"
         id="path2229" />
      <path
         d="m 87.424871,111.45956 v -0.45579 l 0.589628,-0.10129 v -2.79621 l -0.589628,-0.10128 v -0.4594 h 1.226281 l 0.0615,0.49919 0.0072,0.0687 q 0.166398,-0.30024 0.40876,-0.47026 0.24598,-0.17001 0.560689,-0.17001 0.112138,0 0.227893,0.0217 0.119373,0.0181 0.170016,0.0362 l -0.09405,0.66197 -0.495577,-0.0289 q -0.282153,-0.0181 -0.473873,0.13023 -0.191719,0.14469 -0.296622,0.39067 v 2.21743 l 0.589627,0.10129 v 0.45579 z"
         style="fill:#ffffff"
         id="path2231" />
      <path
         d="m 90.496,111.45956 v -0.45579 l 0.589627,-0.10129 v -2.79621 L 90.496,108.00499 v -0.4594 h 1.302245 v 3.35689 l 0.589628,0.10129 v 0.45579 z m 0.553454,-4.87981 v -0.76326 h 0.748791 v 0.76326 z"
         style="fill:#ffffff"
         id="path2233" />
      <path
         d="m 94.663185,111.53552 q -0.542602,0 -0.944128,-0.24598 -0.401526,-0.2496 -0.622184,-0.69091 -0.217041,-0.44132 -0.217041,-1.02009 v -0.15917 q 0,-0.55707 0.227893,-0.99477 0.23151,-0.44132 0.611332,-0.69453 0.383439,-0.25683 0.835607,-0.25683 0.528133,0 0.882634,0.21704 0.358117,0.21704 0.538984,0.61133 0.180868,0.39067 0.180868,0.92243 v 0.44493 h -2.539379 l -0.01085,0.0181 q 0.0072,0.3762 0.130225,0.66921 0.126607,0.28938 0.361735,0.45578 0.235127,0.1664 0.564306,0.1664 0.361735,0 0.633036,-0.10129 0.274918,-0.1049 0.473873,-0.28577 l 0.278535,0.46302 q -0.209806,0.20258 -0.557071,0.34365 -0.343648,0.13746 -0.828373,0.13746 z m -1.02371,-2.42362 h 1.805057 v -0.0941 q 0,-0.28216 -0.101286,-0.50282 -0.09767,-0.22427 -0.296622,-0.35088 -0.195337,-0.13022 -0.49196,-0.13022 -0.238745,0 -0.434081,0.14107 -0.195337,0.13746 -0.321944,0.37621 -0.126608,0.23874 -0.166398,0.5426 z"
         style="fill:#ffffff"
         id="path2235" />
      <path
         d="m 98.313091,111.53552 q -0.394291,0 -0.73794,-0.0796 -0.343648,-0.0796 -0.730704,-0.24598 l -0.0072,-0.92966 h 0.538985 l 0.133842,0.56069 q 0.202572,0.0832 0.390674,0.12299 0.191719,0.0362 0.412378,0.0362 0.434081,0 0.622184,-0.16639 0.188102,-0.1664 0.188102,-0.41238 0,-0.23151 -0.19172,-0.39068 -0.188102,-0.16278 -0.687296,-0.27491 -0.709,-0.16279 -1.045414,-0.43409 -0.332796,-0.27491 -0.332796,-0.7307 0,-0.31833 0.184485,-0.56792 0.184485,-0.25322 0.513663,-0.40153 0.329179,-0.14831 0.766878,-0.14831 0.444934,0 0.759644,0.10128 0.318326,0.10129 0.553454,0.27131 l 0.03617,0.89348 h -0.535367 l -0.115755,-0.5209 q -0.126608,-0.0941 -0.30024,-0.14469 -0.173633,-0.0506 -0.397909,-0.0506 -0.332796,0 -0.542602,0.15554 -0.206189,0.15555 -0.206189,0.39068 0,0.13745 0.05788,0.23874 0.06149,0.10129 0.23151,0.18448 0.170015,0.0796 0.499194,0.15917 0.817521,0.19172 1.139465,0.48834 0.325561,0.29662 0.325561,0.7307 0,0.49558 -0.368969,0.83199 -0.365352,0.3328 -1.153934,0.3328 z"
         style="fill:#ffffff"
         id="path2237" />
      <path
         d="m 101.80745,111.52105 q -0.43408,0 -0.69091,-0.25321 -0.25322,-0.25683 -0.25322,-0.81752 v -2.3766 h -0.61857 v -0.52813 h 0.61857 v -0.94413 h 0.71262 v 0.94413 h 0.85008 v 0.52813 h -0.85008 v 2.3766 q 0,0.28215 0.11214,0.41599 0.11213,0.13384 0.30024,0.13384 0.1266,0 0.28215,-0.0217 0.15555,-0.0253 0.24236,-0.0434 l 0.0977,0.46664 q -0.15555,0.047 -0.38344,0.0832 -0.22427,0.0362 -0.41961,0.0362 z"
         style="fill:#ffffff"
         id="path2239" />
    </g>
    <text
       xml:space="preserve"
       style="font-style:normal;font-variant:normal;font-weight:normal;font-stretch:normal;font-size:7.40833px;line-height:1.5;font-family:Consolas;-inkscape-font-specification:Consolas;fill:#000000;stroke-width:0.264583"
       x="96.560722"
       y="104.95776"
       id="text578"><tspan
         sodipodi:role="line"
         id="tspan576"
         style="fill:#462940;fill-opacity:1;stroke-width:0.264583"
         x="96.560722"
         y="104.95776" /></text>
    <text
       xml:space="preserve"
       style="font-style:normal;font-variant:normal;font-weight:normal;font-stretch:normal;font-size:7.40833px;line-height:1.5;font-family:Consolas;-inkscape-font-specification:Consolas;fill:#000000;stroke-width:0.264583"
       x="99.241867"
       y="104.82224"
       id="text582"><tspan
         sodipodi:role="line"
         id="tspan580"
         style="fill:#462940;fill-opacity:1;stroke-width:0.264583"
         x="99.241867"
         y="104.82224" /></text>
    <text
       xml:space="preserve"
       style="font-size:5.46782px;line-height:1.5;font-family:Consolas;-inkscape-font-specification:Consolas;fill:#000000;stroke-width:0.256304"
       x="93.260292"
       y="104.84989"
       id="text647"
       transform="scale(1.006737,0.99330808)"><tspan
         sodipodi:role="line"
         id="tspan645"
         style="font-size:5.46782px;fill:#462940;fill-opacity:1;stroke-width:0.256304"
         x="93.260292"
         y="104.84989">&lt;/&gt;</tspan></text>
  </g>
</svg>
