<svg id="图层_1" data-name="图层 1" xmlns="http://www.w3.org/2000/svg" viewBox="0 0 8471.23 3171.08">
  <defs>
    <style>
      .cls-1 {
        fill: #FFF;
        stroke: #231f20;
        stroke-miterlimit: 10;
        stroke-width: 0.65px;
      }

      .cls-2 {
        fill: #FFF;
      }

      .cls-3 {
        fill: #FFF;
      }
    </style>
  </defs>
  <g>
    <g>
      <path class="cls-1" d="M452.24,2595.91V2593c0-248.69,181-395.84,363.47-395.84,141.27,0,232.52,76.51,291.38,161.86V1899.86H1220.4V2974.1H1107.09v-153c-61.81,91.23-151.58,169.22-291.38,169.22C633.24,2990.28,452.24,2846.08,452.24,2595.91Zm659.26-1.48v-2.94c0-175.12-133.92-292.84-275.19-292.84-147.15,0-267.82,108.9-267.82,292.84v2.94c0,179.54,125.09,294.32,267.82,294.32C977.58,2888.75,1111.5,2769.55,1111.5,2594.43Z" transform="translate(-451.92 -400.2)"/>
      <path class="cls-1" d="M1370.47,2595.91V2593c0-248.69,181-395.84,363.47-395.84,141.27,0,232.52,76.51,291.38,161.86V2213.3h113.31v760.8H2025.32v-153c-61.81,91.23-151.57,169.22-291.38,169.22C1551.47,2990.28,1370.47,2846.08,1370.47,2595.91Zm659.27-1.48v-2.94c0-175.12-133.92-292.84-275.19-292.84-147.16,0-267.82,108.9-267.82,292.84v2.94c0,179.54,125.08,294.32,267.82,294.32C1895.82,2888.75,2029.74,2769.55,2029.74,2594.43Z" transform="translate(-451.92 -400.2)"/>
      <path class="cls-1" d="M2332.85,2213.3h113.31v132.44c50-82.41,129.51-148.62,260.47-148.62,183.95,0,291.36,123.6,291.36,304.61V2974.1h-113.3V2529.68c0-141.27-76.52-229.56-210.44-229.56-131,0-228.09,95.65-228.09,238.4V2974.1H2332.85Z" transform="translate(-451.92 -400.2)"/>
      <path class="cls-1" d="M3136.3,2595.91V2593c0-248.69,181-395.84,363.47-395.84,141.27,0,232.51,76.51,291.37,161.86V2213.3h113.32v760.8H3791.14v-153c-61.81,91.23-151.57,169.22-291.37,169.22C3317.29,2990.28,3136.3,2846.08,3136.3,2595.91Zm659.26-1.48v-2.94c0-175.12-133.92-292.84-275.19-292.84-147.15,0-267.82,108.9-267.82,292.84v2.94c0,179.54,125.08,294.32,267.82,294.32C3661.64,2888.75,3795.56,2769.55,3795.56,2594.43Z" transform="translate(-451.92 -400.2)"/>
      <path class="cls-1" d="M4186.12,2772.49V2313.37H4080.17V2213.3h105.95V1983.74h113.3V2213.3h241.35v100.07H4299.42v444.41c0,92.7,51.5,126.55,128,126.55,38.27,0,70.64-7.36,110.36-26.48V2955c-39.72,20.6-82.38,32.39-136.84,32.39C4278.83,2987.35,4186.12,2927,4186.12,2772.49Z" transform="translate(-451.92 -400.2)"/>
      <path class="cls-1" d="M4668.15,2595.91V2593c0-219.26,154.51-395.84,364.93-395.84,225.14,0,354.66,179.53,354.66,401.72,0,14.72,0,23.56-1.48,36.79H4782.94c16.18,164.83,132.42,257.54,267.8,257.54,104.5,0,178.08-42.69,239.89-107.43l70.61,63.27c-76.51,85.35-169.21,142.74-313.43,142.74C4838.85,2991.75,4668.15,2831.36,4668.15,2595.91ZM5273,2551.75c-11.77-138.32-91.25-259-242.82-259-132.42,0-232.5,110.36-247.2,259Z" transform="translate(-451.92 -400.2)"/>
      <path class="cls-1" d="M5513.43,2597.38v-3c0-214.85,167.75-397.31,389.94-397.31,144.22,0,234,60.33,304.62,135.37L6132.93,2412c-60.32-63.29-128-114.79-231-114.79-154.53,0-272.25,131-272.25,294.31v2.94c0,164.82,120.68,295.79,279.61,295.79,97.11,0,172.17-48.56,232.5-113.32l72.12,67.7c-76.54,85.36-167.76,147.15-310.52,147.15C5681.18,2991.75,5513.43,2810.76,5513.43,2597.38Z" transform="translate(-451.92 -400.2)"/>
      <path class="cls-1" d="M6356.6,1899.86h113.3v445.88c50-82.41,129.52-148.62,260.48-148.62,183.95,0,291.38,123.6,291.38,304.61V2974.1H6908.43V2529.68c0-141.27-76.51-229.56-210.42-229.56-131,0-228.11,95.65-228.11,238.4V2974.1H6356.6Z" transform="translate(-451.92 -400.2)"/>
      <path class="cls-2" d="M7566.81,468.33A68.25,68.25,0,1,1,7635,536.7a68.24,68.24,0,0,1-68.16-68.37" transform="translate(-451.92 -400.2)"/>
      <path class="cls-2" d="M7566.81,722.22A68.25,68.25,0,1,1,7635,790.59a68.26,68.26,0,0,1-68.16-68.37" transform="translate(-451.92 -400.2)"/>
      <path class="cls-2" d="M7566.81,976.11a68.25,68.25,0,1,1,68.16,68.37,68.26,68.26,0,0,1-68.16-68.37" transform="translate(-451.92 -400.2)"/>
      <path class="cls-2" d="M7271.62,790.59a68.26,68.26,0,1,1,85.94,44,68.28,68.28,0,0,1-85.94-44" transform="translate(-451.92 -400.2)"/>
      <path class="cls-2" d="M7012,946.84a68.25,68.25,0,1,1,95.3,15.27,68.25,68.25,0,0,1-95.3-15.27" transform="translate(-451.92 -400.2)"/>
      <path class="cls-2" d="M6813.41,1175.66a68.25,68.25,0,1,1,95.36-14.92,68.21,68.21,0,0,1-95.36,14.92" transform="translate(-451.92 -400.2)"/>
      <path class="cls-2" d="M6695.21,1454.65A68.26,68.26,0,1,1,6781.3,1411a68.22,68.22,0,0,1-86.09,43.67" transform="translate(-451.92 -400.2)"/>
      <path class="cls-2" d="M6669,1756.51a68.25,68.25,0,1,1,68.4-68.13,68.25,68.25,0,0,1-68.4,68.13" transform="translate(-451.92 -400.2)"/>
      <path class="cls-2" d="M7703.31,2654.31a68.25,68.25,0,1,1-68.13-68.4,68.24,68.24,0,0,1,68.13,68.4" transform="translate(-451.92 -400.2)"/>
      <path class="cls-2" d="M7297.21,514.06a68.25,68.25,0,1,1,81.64,51.5,68.28,68.28,0,0,1-81.64-51.5" transform="translate(-451.92 -400.2)"/>
      <path class="cls-2" d="M7044.54,618.61a68.24,68.24,0,1,1,91,32,68.27,68.27,0,0,1-91-32" transform="translate(-451.92 -400.2)"/>
      <path class="cls-2" d="M6821.43,776.73a68.25,68.25,0,1,1,95.89,11,68.24,68.24,0,0,1-95.89-11" transform="translate(-451.92 -400.2)"/>
      <path class="cls-2" d="M6639.08,980.51A68.26,68.26,0,1,1,6735,969.92a68.2,68.2,0,0,1-95.95,10.59" transform="translate(-451.92 -400.2)"/>
      <path class="cls-2" d="M6506.62,1219.74a68.25,68.25,0,1,1,91.18-31.66,68.24,68.24,0,0,1-91.18,31.66" transform="translate(-451.92 -400.2)"/>
      <path class="cls-2" d="M6430.69,1482.44a68.25,68.25,0,1,1,81.85-51.15,68.24,68.24,0,0,1-81.85,51.15" transform="translate(-451.92 -400.2)"/>
      <path class="cls-2" d="M6415.08,1755.45a68.25,68.25,0,1,1,68.42-68.08,68.23,68.23,0,0,1-68.42,68.08" transform="translate(-451.92 -400.2)"/>
      <path class="cls-2" d="M7701.2,2908.31a68.25,68.25,0,1,1-68-68.48,68.28,68.28,0,0,1,68,68.48" transform="translate(-451.92 -400.2)"/>
      <path class="cls-2" d="M7299.49,1056.44a68.25,68.25,0,1,1,89.08,37.11,68.25,68.25,0,0,1-89.08-37.11" transform="translate(-451.92 -400.2)"/>
      <path class="cls-2" d="M7083.24,1233a68.26,68.26,0,1,1,96.53.18,68.24,68.24,0,0,1-96.53-.18" transform="translate(-451.92 -400.2)"/>
      <path class="cls-2" d="M6951,1478.8a68.25,68.25,0,1,1,89.23-36.79A68.27,68.27,0,0,1,6951,1478.8" transform="translate(-451.92 -400.2)"/>
      <path class="cls-2" d="M6922.93,1756.51a68.25,68.25,0,1,1,68.36-68.13,68.24,68.24,0,0,1-68.36,68.13" transform="translate(-451.92 -400.2)"/>
      <path class="cls-2" d="M7698.17,2374.28a68.25,68.25,0,1,1-89.12-37.11,68.27,68.27,0,0,1,89.12,37.11" transform="translate(-451.92 -400.2)"/>
      <path class="cls-2" d="M7998.53,2585.92a68.26,68.26,0,1,1-85.94-44,68.26,68.26,0,0,1,85.94,44" transform="translate(-451.92 -400.2)"/>
      <path class="cls-2" d="M8258.12,2429.68a68.25,68.25,0,1,1-95.3-15.27,68.25,68.25,0,0,1,95.3,15.27" transform="translate(-451.92 -400.2)"/>
      <path class="cls-2" d="M8456.75,2200.86a68.26,68.26,0,1,1-95.36,14.92,68.24,68.24,0,0,1,95.36-14.92" transform="translate(-451.92 -400.2)"/>
      <path class="cls-2" d="M8575,1921.87a68.26,68.26,0,1,1-86.09,43.67,68.22,68.22,0,0,1,86.09-43.67" transform="translate(-451.92 -400.2)"/>
      <path class="cls-2" d="M8601.13,1620a68.25,68.25,0,1,1-68.37,68.14,68.22,68.22,0,0,1,68.37-68.14" transform="translate(-451.92 -400.2)"/>
      <path class="cls-2" d="M8532.75,1324.82a68.26,68.26,0,1,1-44,85.94,68.26,68.26,0,0,1,44-85.94" transform="translate(-451.92 -400.2)"/>
      <path class="cls-2" d="M8376.51,1065.21a68.25,68.25,0,1,1-15.27,95.33,68.23,68.23,0,0,1,15.27-95.33" transform="translate(-451.92 -400.2)"/>
      <path class="cls-2" d="M8147.69,866.6a68.26,68.26,0,1,1,15,95.35,68.27,68.27,0,0,1-15-95.35" transform="translate(-451.92 -400.2)"/>
      <path class="cls-2" d="M7868.69,748.41a68.26,68.26,0,1,1,43.67,86.08,68.27,68.27,0,0,1-43.67-86.08" transform="translate(-451.92 -400.2)"/>
      <path class="cls-2" d="M7972.94,2862.47A68.25,68.25,0,1,1,7891.3,2811a68.21,68.21,0,0,1,81.64,51.51" transform="translate(-451.92 -400.2)"/>
      <path class="cls-2" d="M8225.62,2757.91a68.26,68.26,0,1,1-91-32,68.25,68.25,0,0,1,91,32" transform="translate(-451.92 -400.2)"/>
      <path class="cls-2" d="M8448.73,2599.79a68.26,68.26,0,1,1-95.92-11,68.27,68.27,0,0,1,95.92,11" transform="translate(-451.92 -400.2)"/>
      <path class="cls-2" d="M8631.07,2396a68.26,68.26,0,1,1-95.95,10.59,68.23,68.23,0,0,1,95.95-10.59" transform="translate(-451.92 -400.2)"/>
      <path class="cls-2" d="M8763.52,2156.77a68.25,68.25,0,1,1-91.17,31.67,68.23,68.23,0,0,1,91.17-31.67" transform="translate(-451.92 -400.2)"/>
      <path class="cls-2" d="M8839.47,1894.07a68.27,68.27,0,1,1-81.84,51.15,68.29,68.29,0,0,1,81.84-51.15" transform="translate(-451.92 -400.2)"/>
      <path class="cls-2" d="M8855.07,1621.07a68.25,68.25,0,1,1-68.43,68.07,68.22,68.22,0,0,1,68.43-68.07" transform="translate(-451.92 -400.2)"/>
      <path class="cls-2" d="M8809.57,1351.43A68.26,68.26,0,1,1,8758,1433a68.23,68.23,0,0,1,51.56-81.58" transform="translate(-451.92 -400.2)"/>
      <path class="cls-2" d="M8705.25,1098.66a68.26,68.26,0,1,1-32.14,91,68.26,68.26,0,0,1,32.14-91" transform="translate(-451.92 -400.2)"/>
      <path class="cls-2" d="M8547.33,875.42a68.25,68.25,0,1,1-11.1,95.88,68.22,68.22,0,0,1,11.1-95.88" transform="translate(-451.92 -400.2)"/>
      <path class="cls-2" d="M8343.71,692.89a68.25,68.25,0,1,1,10.5,95.94,68.23,68.23,0,0,1-10.5-95.94" transform="translate(-451.92 -400.2)"/>
      <path class="cls-2" d="M8104.59,560.23a68.26,68.26,0,1,1,31.58,91.2,68.22,68.22,0,0,1-31.58-91.2" transform="translate(-451.92 -400.2)"/>
      <path class="cls-2" d="M7842,484.06a68.25,68.25,0,1,1,51.1,81.9,68.26,68.26,0,0,1-51.1-81.9" transform="translate(-451.92 -400.2)"/>
      <path class="cls-2" d="M7970.66,2320.08a68.25,68.25,0,1,1-89.08-37.11,68.21,68.21,0,0,1,89.08,37.11" transform="translate(-451.92 -400.2)"/>
      <path class="cls-2" d="M8186.91,2143.55a68.25,68.25,0,1,1-96.5-.17,68.24,68.24,0,0,1,96.5.17" transform="translate(-451.92 -400.2)"/>
      <path class="cls-2" d="M8319.15,1897.72a68.25,68.25,0,1,1-89.27,36.79,68.31,68.31,0,0,1,89.27-36.79" transform="translate(-451.92 -400.2)"/>
      <path class="cls-2" d="M8347.23,1620a68.25,68.25,0,1,1-68.39,68.14,68.26,68.26,0,0,1,68.39-68.14" transform="translate(-451.92 -400.2)"/>
      <path class="cls-2" d="M8266.9,1352.67a68.25,68.25,0,1,1-37.09,89.12,68.24,68.24,0,0,1,37.09-89.12" transform="translate(-451.92 -400.2)"/>
      <path class="cls-2" d="M8090.4,1136.43a68.26,68.26,0,1,1-.18,96.53,68.2,68.2,0,0,1,.18-96.53" transform="translate(-451.92 -400.2)"/>
      <path class="cls-2" d="M7839.31,1030.31a68.25,68.25,0,1,1,68.13,68.36,68.26,68.26,0,0,1-68.13-68.36" transform="translate(-451.92 -400.2)"/>
      <path class="cls-2" d="M7423.57,2665.39a68.25,68.25,0,1,1-68.13-68.4,68.24,68.24,0,0,1,68.13,68.4" transform="translate(-451.92 -400.2)"/>
      <path class="cls-2" d="M7421.45,2919.39a68.25,68.25,0,1,1-68-68.49,68.25,68.25,0,0,1,68,68.49" transform="translate(-451.92 -400.2)"/>
      <path class="cls-2" d="M7418.43,2385.36a68.25,68.25,0,1,1-89.12-37.11,68.26,68.26,0,0,1,89.12,37.11" transform="translate(-451.92 -400.2)"/>
    </g>
    <g>
      <path class="cls-3" d="M477.28,3256.46H566c80.36,0,135.88,55.15,135.88,127.1v.73c0,71.94-55.52,127.83-135.88,127.83H477.28Zm28.87,26.66v202.33H566c64.63,0,105.92-43.82,105.92-100.44v-.72c0-56.62-41.29-101.17-105.92-101.17Z" transform="translate(-451.92 -400.2)"/>
      <path class="cls-3" d="M765.45,3256.46h28.84v255.66H765.45Z" transform="translate(-451.92 -400.2)"/>
      <path class="cls-3" d="M963.74,3254.63h27l116.51,257.49h-31.06l-30-67.58H907.16l-30.33,67.58H847.24ZM1035,3418.25l-58.07-130-58.44,130Z" transform="translate(-451.92 -400.2)"/>
      <path class="cls-3" d="M1157.69,3256.46h108.83c29.23,0,52.24,8.4,66.84,22.64,10.6,11,16.43,24.47,16.43,40.91v.72c0,33.24-20.44,50.41-40.53,59.17,30.3,9.14,54.76,26.67,54.76,61.73v.73c0,43.83-36.88,69.76-92.74,69.76H1157.69ZM1320.58,3324c0-25.21-20.09-41.64-56.61-41.64h-77.81v88h75.62c34.7,0,58.8-15.71,58.8-45.65Zm-53.7,71.94h-80.72v90.22H1272c38.71,0,62.81-17.17,62.81-45.65v-.73C1334.82,3412.05,1311.44,3396,1266.88,3396Z" transform="translate(-451.92 -400.2)"/>
      <path class="cls-3" d="M1421.37,3256.46h184.8v26.3h-156v87.29h139.51v26.29H1450.21v89.47H1608v26.31H1421.37Z" transform="translate(-451.92 -400.2)"/>
      <path class="cls-3" d="M1733.64,3283.12h-85.85v-26.66h200.87v26.66h-85.82v229h-29.2Z" transform="translate(-451.92 -400.2)"/>
      <path class="cls-3" d="M1902.73,3256.46h184.81v26.3h-156v87.29h139.51v26.29H1931.57v89.47h157.79v26.31H1902.73Z" transform="translate(-451.92 -400.2)"/>
      <path class="cls-3" d="M2130.61,3474.87l17.88-21.19c26.69,24.1,52.25,36.15,87.67,36.15,34.33,0,57-18.25,57-43.45v-.73c0-23.74-12.78-37.26-66.48-48.58-58.8-12.78-85.82-31.77-85.82-73.77v-.73c0-40.18,35.43-69.76,84-69.76,37.25,0,63.9,10.58,89.85,31.41l-16.81,22.28c-23.74-19.37-47.48-27.76-73.77-27.76-33.24,0-54.43,18.26-54.43,41.27v.72c0,24.11,13.15,37.63,69.4,49.68,57,12.42,83.26,33.23,83.26,72.31v.73c0,43.83-36.51,72.32-87.27,72.32C2194.51,3515.77,2161.3,3502.25,2130.61,3474.87Z" transform="translate(-451.92 -400.2)"/>
      <path class="cls-3" d="M2558.27,3283.12h-85.81v-26.66h200.86v26.66h-85.81v229h-29.24Z" transform="translate(-451.92 -400.2)"/>
      <path class="cls-3" d="M2727.36,3256.46h184.81v26.3H2756.23v87.29h139.52v26.29H2756.23v89.47H2914v26.31H2727.36Z" transform="translate(-451.92 -400.2)"/>
      <path class="cls-3" d="M2960.74,3385v-.72c0-72.31,54.06-132.22,129.29-132.22,46.38,0,74.16,16.44,99.72,40.54L3170,3313.8c-21.56-20.45-45.66-35.06-80.36-35.06-56.58,0-99,46-99,104.82v.73c0,59.16,42.74,105.54,99,105.54,35.06,0,58.07-13.5,82.54-36.88l19,18.63c-26.65,27-55.88,44.92-102.27,44.92C3015.17,3516.5,2960.74,3458.43,2960.74,3385Z" transform="translate(-451.92 -400.2)"/>
      <path class="cls-3" d="M3241.6,3256.46h28.84v113.59H3418V3256.46h28.84v255.66H3418v-115H3270.44v115H3241.6Z" transform="translate(-451.92 -400.2)"/>
      <path class="cls-3" d="M3519.15,3256.46h27l161,204.89V3256.46h28.14v255.66h-23l-165.07-209.64v209.64h-28.14Z" transform="translate(-451.92 -400.2)"/>
      <path class="cls-3" d="M3796.36,3385v-.72c0-70.49,52.94-132.22,130.75-132.22s130,61,130,131.49v.73c0,70.48-52.94,132.21-130.74,132.21S3796.36,3455.5,3796.36,3385Zm230.83,0v-.72c0-58.08-42.38-105.55-100.81-105.55s-100.09,46.75-100.09,104.82v.73c0,58.07,42.38,105.54,100.82,105.54S4027.19,3443.09,4027.19,3385Z" transform="translate(-451.92 -400.2)"/>
      <path class="cls-3" d="M4118.11,3256.46H4147v229h143.92v26.67H4118.11Z" transform="translate(-451.92 -400.2)"/>
      <path class="cls-3" d="M4318.25,3385v-.72c0-70.49,52.94-132.22,130.74-132.22s130,61,130,131.49v.73c0,70.48-52.94,132.21-130.75,132.21S4318.25,3455.5,4318.25,3385Zm230.83,0v-.72c0-58.08-42.38-105.55-100.82-105.55s-100.08,46.75-100.08,104.82v.73c0,58.07,42.38,105.54,100.81,105.54S4549.08,3443.09,4549.08,3385Z" transform="translate(-451.92 -400.2)"/>
      <path class="cls-3" d="M4628.67,3385v-.72c0-70.13,51.49-132.22,128.2-132.22,43.1,0,69.76,12.43,95.32,34L4833.55,3308c-19.7-17.16-41.62-29.21-77.78-29.21-56.61,0-97.16,47.84-97.16,104.82v.73c0,61,39.09,106.27,101.17,106.27,29.23,0,56.25-11.32,73.77-25.56v-63.55h-77.78v-25.92h105.55v101.89a154.86,154.86,0,0,1-102.63,39.08C4678.34,3516.5,4628.67,3458.07,4628.67,3385Z" transform="translate(-451.92 -400.2)"/>
      <path class="cls-3" d="M4995.35,3411l-106.28-154.49h35.06l86.18,127.83,86.94-127.83h33.61l-106.28,154.13v101.53h-29.23Z" transform="translate(-451.92 -400.2)"/>
      <path class="cls-3" d="M5269.62,3412.05c0-87.29,70.49-160,160-160s159.22,68.3,159.22,144.63c0,62.1-34.7,89.49-68.3,89.49-26.66,0-44.18-12.43-51.13-30.69-14.23,16.8-32.87,30.69-60.25,30.69-35.79,0-65.39-26.3-65.39-66.48,0-51.86,43.11-90.93,84.36-90.93,28.5,0,44.56,15,53.34,30.31l4.73-25.21,24.5,3.29-14.63,82.91a145.42,145.42,0,0,0-2.55,22.28c0,18.62,11.32,29.58,31.05,29.58,25.93,0,51.12-23.37,51.12-75.24,0-67.19-62.44-132.2-146.07-132.2-84,0-146.84,66.46-146.84,147.55,0,81.44,62.08,146.82,149.75,146.82,36.52,0,62.81-8.4,90.95-24.84l5.83,9.85c-28.11,17.17-58.8,27.4-96.78,27.4C5339,3571.28,5269.62,3499.34,5269.62,3412.05Zm184.44,34c12.42-12.41,20.44-29.94,20.44-48.22,0-26.65-19-46.37-44.54-46.37-14.63,0-28.87,6.58-40.19,17.9a69.94,69.94,0,0,0-19.73,48.57c0,28.85,18.64,45.66,44.56,45.66C5429.23,3463.55,5443.47,3456.61,5454.06,3446Z" transform="translate(-451.92 -400.2)"/>
      <path class="cls-3" d="M5828.75,3254.63h68.31l108.82,257.49h-75.95l-18.27-46h-99l-18.28,46h-74.13ZM5890.86,3411l-28.5-72.32L5833.52,3411Z" transform="translate(-451.92 -400.2)"/>
      <path class="cls-3" d="M6030.74,3256.46h99c90.94,0,143.89,52.59,143.89,126.37v.73c0,73.78-53.67,128.56-145.35,128.56h-97.51Zm70.86,62.45v130.38h28.84c42.74,0,70.85-23.37,70.85-64.64v-.73c0-40.9-28.11-65-70.85-65Z" transform="translate(-451.92 -400.2)"/>
      <path class="cls-3" d="M6302.07,3385v-.72c0-74.51,57-132.95,134.42-132.95,52.21,0,85.82,21.92,108.46,53l-53.3,41.27c-14.63-17.9-31.42-30-55.89-30-35.79,0-61,30.69-61,67.94v.73c0,38.35,25.2,68.3,61,68.3,26.65,0,42.38-12.42,57.71-31l53.3,38c-24.1,33.24-56.58,57.71-112.83,57.71C6360.87,3517.23,6302.07,3461.35,6302.07,3385Z" transform="translate(-451.92 -400.2)"/>
      <path class="cls-3" d="M6577.46,3256.46h205.61v59.9H6647.59v39.07h122.7v55.89h-122.7v40.54h137.3v60.26H6577.46Z" transform="translate(-451.92 -400.2)"/>
      <path class="cls-3" d="M6802.07,3474.13,6841.5,3427c25.56,20.1,53.31,30.69,82.91,30.69,19.36,0,29.59-6.57,29.59-17.53v-.73c0-11-8.4-16.44-43.47-24.84-54.42-12.42-96.41-27.75-96.41-80v-.74c0-47.48,37.61-81.81,99-81.81,43.47,0,77.44,11.69,105.19,34l-35.43,50c-23.37-16.8-48.93-25.2-71.58-25.2-17.18,0-25.56,6.94-25.56,16.43v.74c0,11.69,8.75,16.79,44.54,24.83,58.43,12.78,95,31.77,95,79.61v.74c0,52.22-41.28,83.27-103.36,83.27C6876.57,3516.5,6833.82,3502.25,6802.07,3474.13Z" transform="translate(-451.92 -400.2)"/>
    </g>
  </g>
  <g>
    <g>
      <path class="cls-1" d="M452.24,2595.91V2593c0-248.69,181-395.84,363.47-395.84,141.27,0,232.52,76.51,291.38,161.86V1899.86H1220.4V2974.1H1107.09v-153c-61.81,91.23-151.58,169.22-291.38,169.22C633.24,2990.28,452.24,2846.08,452.24,2595.91Zm659.26-1.48v-2.94c0-175.12-133.92-292.84-275.19-292.84-147.15,0-267.82,108.9-267.82,292.84v2.94c0,179.54,125.09,294.32,267.82,294.32C977.58,2888.75,1111.5,2769.55,1111.5,2594.43Z" transform="translate(-451.92 -400.2)"/>
      <path class="cls-1" d="M1370.47,2595.91V2593c0-248.69,181-395.84,363.47-395.84,141.27,0,232.52,76.51,291.38,161.86V2213.3h113.31v760.8H2025.32v-153c-61.81,91.23-151.57,169.22-291.38,169.22C1551.47,2990.28,1370.47,2846.08,1370.47,2595.91Zm659.27-1.48v-2.94c0-175.12-133.92-292.84-275.19-292.84-147.16,0-267.82,108.9-267.82,292.84v2.94c0,179.54,125.08,294.32,267.82,294.32C1895.82,2888.75,2029.74,2769.55,2029.74,2594.43Z" transform="translate(-451.92 -400.2)"/>
      <path class="cls-1" d="M2332.85,2213.3h113.31v132.44c50-82.41,129.51-148.62,260.47-148.62,183.95,0,291.36,123.6,291.36,304.61V2974.1h-113.3V2529.68c0-141.27-76.52-229.56-210.44-229.56-131,0-228.09,95.65-228.09,238.4V2974.1H2332.85Z" transform="translate(-451.92 -400.2)"/>
      <path class="cls-1" d="M3136.3,2595.91V2593c0-248.69,181-395.84,363.47-395.84,141.27,0,232.51,76.51,291.37,161.86V2213.3h113.32v760.8H3791.14v-153c-61.81,91.23-151.57,169.22-291.37,169.22C3317.29,2990.28,3136.3,2846.08,3136.3,2595.91Zm659.26-1.48v-2.94c0-175.12-133.92-292.84-275.19-292.84-147.15,0-267.82,108.9-267.82,292.84v2.94c0,179.54,125.08,294.32,267.82,294.32C3661.64,2888.75,3795.56,2769.55,3795.56,2594.43Z" transform="translate(-451.92 -400.2)"/>
      <path class="cls-1" d="M4186.12,2772.49V2313.37H4080.17V2213.3h105.95V1983.74h113.3V2213.3h241.35v100.07H4299.42v444.41c0,92.7,51.5,126.55,128,126.55,38.27,0,70.64-7.36,110.36-26.48V2955c-39.72,20.6-82.38,32.39-136.84,32.39C4278.83,2987.35,4186.12,2927,4186.12,2772.49Z" transform="translate(-451.92 -400.2)"/>
      <path class="cls-1" d="M4668.15,2595.91V2593c0-219.26,154.51-395.84,364.93-395.84,225.14,0,354.66,179.53,354.66,401.72,0,14.72,0,23.56-1.48,36.79H4782.94c16.18,164.83,132.42,257.54,267.8,257.54,104.5,0,178.08-42.69,239.89-107.43l70.61,63.27c-76.51,85.35-169.21,142.74-313.43,142.74C4838.85,2991.75,4668.15,2831.36,4668.15,2595.91ZM5273,2551.75c-11.77-138.32-91.25-259-242.82-259-132.42,0-232.5,110.36-247.2,259Z" transform="translate(-451.92 -400.2)"/>
      <path class="cls-1" d="M5513.43,2597.38v-3c0-214.85,167.75-397.31,389.94-397.31,144.22,0,234,60.33,304.62,135.37L6132.93,2412c-60.32-63.29-128-114.79-231-114.79-154.53,0-272.25,131-272.25,294.31v2.94c0,164.82,120.68,295.79,279.61,295.79,97.11,0,172.17-48.56,232.5-113.32l72.12,67.7c-76.54,85.36-167.76,147.15-310.52,147.15C5681.18,2991.75,5513.43,2810.76,5513.43,2597.38Z" transform="translate(-451.92 -400.2)"/>
      <path class="cls-1" d="M6356.6,1899.86h113.3v445.88c50-82.41,129.52-148.62,260.48-148.62,183.95,0,291.38,123.6,291.38,304.61V2974.1H6908.43V2529.68c0-141.27-76.51-229.56-210.42-229.56-131,0-228.11,95.65-228.11,238.4V2974.1H6356.6Z" transform="translate(-451.92 -400.2)"/>
      <path class="cls-2" d="M7566.81,468.33A68.25,68.25,0,1,1,7635,536.7a68.24,68.24,0,0,1-68.16-68.37" transform="translate(-451.92 -400.2)"/>
      <path class="cls-2" d="M7566.81,722.22A68.25,68.25,0,1,1,7635,790.59a68.26,68.26,0,0,1-68.16-68.37" transform="translate(-451.92 -400.2)"/>
      <path class="cls-2" d="M7566.81,976.11a68.25,68.25,0,1,1,68.16,68.37,68.26,68.26,0,0,1-68.16-68.37" transform="translate(-451.92 -400.2)"/>
      <path class="cls-2" d="M7271.62,790.59a68.26,68.26,0,1,1,85.94,44,68.28,68.28,0,0,1-85.94-44" transform="translate(-451.92 -400.2)"/>
      <path class="cls-2" d="M7012,946.84a68.25,68.25,0,1,1,95.3,15.27,68.25,68.25,0,0,1-95.3-15.27" transform="translate(-451.92 -400.2)"/>
      <path class="cls-2" d="M6813.41,1175.66a68.25,68.25,0,1,1,95.36-14.92,68.21,68.21,0,0,1-95.36,14.92" transform="translate(-451.92 -400.2)"/>
      <path class="cls-2" d="M6695.21,1454.65A68.26,68.26,0,1,1,6781.3,1411a68.22,68.22,0,0,1-86.09,43.67" transform="translate(-451.92 -400.2)"/>
      <path class="cls-2" d="M6669,1756.51a68.25,68.25,0,1,1,68.4-68.13,68.25,68.25,0,0,1-68.4,68.13" transform="translate(-451.92 -400.2)"/>
      <path class="cls-2" d="M7703.31,2654.31a68.25,68.25,0,1,1-68.13-68.4,68.24,68.24,0,0,1,68.13,68.4" transform="translate(-451.92 -400.2)"/>
      <path class="cls-2" d="M7297.21,514.06a68.25,68.25,0,1,1,81.64,51.5,68.28,68.28,0,0,1-81.64-51.5" transform="translate(-451.92 -400.2)"/>
      <path class="cls-2" d="M7044.54,618.61a68.24,68.24,0,1,1,91,32,68.27,68.27,0,0,1-91-32" transform="translate(-451.92 -400.2)"/>
      <path class="cls-2" d="M6821.43,776.73a68.25,68.25,0,1,1,95.89,11,68.24,68.24,0,0,1-95.89-11" transform="translate(-451.92 -400.2)"/>
      <path class="cls-2" d="M6639.08,980.51A68.26,68.26,0,1,1,6735,969.92a68.2,68.2,0,0,1-95.95,10.59" transform="translate(-451.92 -400.2)"/>
      <path class="cls-2" d="M6506.62,1219.74a68.25,68.25,0,1,1,91.18-31.66,68.24,68.24,0,0,1-91.18,31.66" transform="translate(-451.92 -400.2)"/>
      <path class="cls-2" d="M6430.69,1482.44a68.25,68.25,0,1,1,81.85-51.15,68.24,68.24,0,0,1-81.85,51.15" transform="translate(-451.92 -400.2)"/>
      <path class="cls-2" d="M6415.08,1755.45a68.25,68.25,0,1,1,68.42-68.08,68.23,68.23,0,0,1-68.42,68.08" transform="translate(-451.92 -400.2)"/>
      <path class="cls-2" d="M7701.2,2908.31a68.25,68.25,0,1,1-68-68.48,68.28,68.28,0,0,1,68,68.48" transform="translate(-451.92 -400.2)"/>
      <path class="cls-2" d="M7299.49,1056.44a68.25,68.25,0,1,1,89.08,37.11,68.25,68.25,0,0,1-89.08-37.11" transform="translate(-451.92 -400.2)"/>
      <path class="cls-2" d="M7083.24,1233a68.26,68.26,0,1,1,96.53.18,68.24,68.24,0,0,1-96.53-.18" transform="translate(-451.92 -400.2)"/>
      <path class="cls-2" d="M6951,1478.8a68.25,68.25,0,1,1,89.23-36.79A68.27,68.27,0,0,1,6951,1478.8" transform="translate(-451.92 -400.2)"/>
      <path class="cls-2" d="M6922.93,1756.51a68.25,68.25,0,1,1,68.36-68.13,68.24,68.24,0,0,1-68.36,68.13" transform="translate(-451.92 -400.2)"/>
      <path class="cls-2" d="M7698.17,2374.28a68.25,68.25,0,1,1-89.12-37.11,68.27,68.27,0,0,1,89.12,37.11" transform="translate(-451.92 -400.2)"/>
      <path class="cls-2" d="M7998.53,2585.92a68.26,68.26,0,1,1-85.94-44,68.26,68.26,0,0,1,85.94,44" transform="translate(-451.92 -400.2)"/>
      <path class="cls-2" d="M8258.12,2429.68a68.25,68.25,0,1,1-95.3-15.27,68.25,68.25,0,0,1,95.3,15.27" transform="translate(-451.92 -400.2)"/>
      <path class="cls-2" d="M8456.75,2200.86a68.26,68.26,0,1,1-95.36,14.92,68.24,68.24,0,0,1,95.36-14.92" transform="translate(-451.92 -400.2)"/>
      <path class="cls-2" d="M8575,1921.87a68.26,68.26,0,1,1-86.09,43.67,68.22,68.22,0,0,1,86.09-43.67" transform="translate(-451.92 -400.2)"/>
      <path class="cls-2" d="M8601.13,1620a68.25,68.25,0,1,1-68.37,68.14,68.22,68.22,0,0,1,68.37-68.14" transform="translate(-451.92 -400.2)"/>
      <path class="cls-2" d="M8532.75,1324.82a68.26,68.26,0,1,1-44,85.94,68.26,68.26,0,0,1,44-85.94" transform="translate(-451.92 -400.2)"/>
      <path class="cls-2" d="M8376.51,1065.21a68.25,68.25,0,1,1-15.27,95.33,68.23,68.23,0,0,1,15.27-95.33" transform="translate(-451.92 -400.2)"/>
      <path class="cls-2" d="M8147.69,866.6a68.26,68.26,0,1,1,15,95.35,68.27,68.27,0,0,1-15-95.35" transform="translate(-451.92 -400.2)"/>
      <path class="cls-2" d="M7868.69,748.41a68.26,68.26,0,1,1,43.67,86.08,68.27,68.27,0,0,1-43.67-86.08" transform="translate(-451.92 -400.2)"/>
      <path class="cls-2" d="M7972.94,2862.47A68.25,68.25,0,1,1,7891.3,2811a68.21,68.21,0,0,1,81.64,51.51" transform="translate(-451.92 -400.2)"/>
      <path class="cls-2" d="M8225.62,2757.91a68.26,68.26,0,1,1-91-32,68.25,68.25,0,0,1,91,32" transform="translate(-451.92 -400.2)"/>
      <path class="cls-2" d="M8448.73,2599.79a68.26,68.26,0,1,1-95.92-11,68.27,68.27,0,0,1,95.92,11" transform="translate(-451.92 -400.2)"/>
      <path class="cls-2" d="M8631.07,2396a68.26,68.26,0,1,1-95.95,10.59,68.23,68.23,0,0,1,95.95-10.59" transform="translate(-451.92 -400.2)"/>
      <path class="cls-2" d="M8763.52,2156.77a68.25,68.25,0,1,1-91.17,31.67,68.23,68.23,0,0,1,91.17-31.67" transform="translate(-451.92 -400.2)"/>
      <path class="cls-2" d="M8839.47,1894.07a68.27,68.27,0,1,1-81.84,51.15,68.29,68.29,0,0,1,81.84-51.15" transform="translate(-451.92 -400.2)"/>
      <path class="cls-2" d="M8855.07,1621.07a68.25,68.25,0,1,1-68.43,68.07,68.22,68.22,0,0,1,68.43-68.07" transform="translate(-451.92 -400.2)"/>
      <path class="cls-2" d="M8809.57,1351.43A68.26,68.26,0,1,1,8758,1433a68.23,68.23,0,0,1,51.56-81.58" transform="translate(-451.92 -400.2)"/>
      <path class="cls-2" d="M8705.25,1098.66a68.26,68.26,0,1,1-32.14,91,68.26,68.26,0,0,1,32.14-91" transform="translate(-451.92 -400.2)"/>
      <path class="cls-2" d="M8547.33,875.42a68.25,68.25,0,1,1-11.1,95.88,68.22,68.22,0,0,1,11.1-95.88" transform="translate(-451.92 -400.2)"/>
      <path class="cls-2" d="M8343.71,692.89a68.25,68.25,0,1,1,10.5,95.94,68.23,68.23,0,0,1-10.5-95.94" transform="translate(-451.92 -400.2)"/>
      <path class="cls-2" d="M8104.59,560.23a68.26,68.26,0,1,1,31.58,91.2,68.22,68.22,0,0,1-31.58-91.2" transform="translate(-451.92 -400.2)"/>
      <path class="cls-2" d="M7842,484.06a68.25,68.25,0,1,1,51.1,81.9,68.26,68.26,0,0,1-51.1-81.9" transform="translate(-451.92 -400.2)"/>
      <path class="cls-2" d="M7970.66,2320.08a68.25,68.25,0,1,1-89.08-37.11,68.21,68.21,0,0,1,89.08,37.11" transform="translate(-451.92 -400.2)"/>
      <path class="cls-2" d="M8186.91,2143.55a68.25,68.25,0,1,1-96.5-.17,68.24,68.24,0,0,1,96.5.17" transform="translate(-451.92 -400.2)"/>
      <path class="cls-2" d="M8319.15,1897.72a68.25,68.25,0,1,1-89.27,36.79,68.31,68.31,0,0,1,89.27-36.79" transform="translate(-451.92 -400.2)"/>
      <path class="cls-2" d="M8347.23,1620a68.25,68.25,0,1,1-68.39,68.14,68.26,68.26,0,0,1,68.39-68.14" transform="translate(-451.92 -400.2)"/>
      <path class="cls-2" d="M8266.9,1352.67a68.25,68.25,0,1,1-37.09,89.12,68.24,68.24,0,0,1,37.09-89.12" transform="translate(-451.92 -400.2)"/>
      <path class="cls-2" d="M8090.4,1136.43a68.26,68.26,0,1,1-.18,96.53,68.2,68.2,0,0,1,.18-96.53" transform="translate(-451.92 -400.2)"/>
      <path class="cls-2" d="M7839.31,1030.31a68.25,68.25,0,1,1,68.13,68.36,68.26,68.26,0,0,1-68.13-68.36" transform="translate(-451.92 -400.2)"/>
      <path class="cls-2" d="M7423.57,2665.39a68.25,68.25,0,1,1-68.13-68.4,68.24,68.24,0,0,1,68.13,68.4" transform="translate(-451.92 -400.2)"/>
      <path class="cls-2" d="M7421.45,2919.39a68.25,68.25,0,1,1-68-68.49,68.25,68.25,0,0,1,68,68.49" transform="translate(-451.92 -400.2)"/>
      <path class="cls-2" d="M7418.43,2385.36a68.25,68.25,0,1,1-89.12-37.11,68.26,68.26,0,0,1,89.12,37.11" transform="translate(-451.92 -400.2)"/>
    </g>
    <g>
      <path class="cls-3" d="M477.28,3256.46H566c80.36,0,135.88,55.15,135.88,127.1v.73c0,71.94-55.52,127.83-135.88,127.83H477.28Zm28.87,26.66v202.33H566c64.63,0,105.92-43.82,105.92-100.44v-.72c0-56.62-41.29-101.17-105.92-101.17Z" transform="translate(-451.92 -400.2)"/>
      <path class="cls-3" d="M765.45,3256.46h28.84v255.66H765.45Z" transform="translate(-451.92 -400.2)"/>
      <path class="cls-3" d="M963.74,3254.63h27l116.51,257.49h-31.06l-30-67.58H907.16l-30.33,67.58H847.24ZM1035,3418.25l-58.07-130-58.44,130Z" transform="translate(-451.92 -400.2)"/>
      <path class="cls-3" d="M1157.69,3256.46h108.83c29.23,0,52.24,8.4,66.84,22.64,10.6,11,16.43,24.47,16.43,40.91v.72c0,33.24-20.44,50.41-40.53,59.17,30.3,9.14,54.76,26.67,54.76,61.73v.73c0,43.83-36.88,69.76-92.74,69.76H1157.69ZM1320.58,3324c0-25.21-20.09-41.64-56.61-41.64h-77.81v88h75.62c34.7,0,58.8-15.71,58.8-45.65Zm-53.7,71.94h-80.72v90.22H1272c38.71,0,62.81-17.17,62.81-45.65v-.73C1334.82,3412.05,1311.44,3396,1266.88,3396Z" transform="translate(-451.92 -400.2)"/>
      <path class="cls-3" d="M1421.37,3256.46h184.8v26.3h-156v87.29h139.51v26.29H1450.21v89.47H1608v26.31H1421.37Z" transform="translate(-451.92 -400.2)"/>
      <path class="cls-3" d="M1733.64,3283.12h-85.85v-26.66h200.87v26.66h-85.82v229h-29.2Z" transform="translate(-451.92 -400.2)"/>
      <path class="cls-3" d="M1902.73,3256.46h184.81v26.3h-156v87.29h139.51v26.29H1931.57v89.47h157.79v26.31H1902.73Z" transform="translate(-451.92 -400.2)"/>
      <path class="cls-3" d="M2130.61,3474.87l17.88-21.19c26.69,24.1,52.25,36.15,87.67,36.15,34.33,0,57-18.25,57-43.45v-.73c0-23.74-12.78-37.26-66.48-48.58-58.8-12.78-85.82-31.77-85.82-73.77v-.73c0-40.18,35.43-69.76,84-69.76,37.25,0,63.9,10.58,89.85,31.41l-16.81,22.28c-23.74-19.37-47.48-27.76-73.77-27.76-33.24,0-54.43,18.26-54.43,41.27v.72c0,24.11,13.15,37.63,69.4,49.68,57,12.42,83.26,33.23,83.26,72.31v.73c0,43.83-36.51,72.32-87.27,72.32C2194.51,3515.77,2161.3,3502.25,2130.61,3474.87Z" transform="translate(-451.92 -400.2)"/>
      <path class="cls-3" d="M2558.27,3283.12h-85.81v-26.66h200.86v26.66h-85.81v229h-29.24Z" transform="translate(-451.92 -400.2)"/>
      <path class="cls-3" d="M2727.36,3256.46h184.81v26.3H2756.23v87.29h139.52v26.29H2756.23v89.47H2914v26.31H2727.36Z" transform="translate(-451.92 -400.2)"/>
      <path class="cls-3" d="M2960.74,3385v-.72c0-72.31,54.06-132.22,129.29-132.22,46.38,0,74.16,16.44,99.72,40.54L3170,3313.8c-21.56-20.45-45.66-35.06-80.36-35.06-56.58,0-99,46-99,104.82v.73c0,59.16,42.74,105.54,99,105.54,35.06,0,58.07-13.5,82.54-36.88l19,18.63c-26.65,27-55.88,44.92-102.27,44.92C3015.17,3516.5,2960.74,3458.43,2960.74,3385Z" transform="translate(-451.92 -400.2)"/>
      <path class="cls-3" d="M3241.6,3256.46h28.84v113.59H3418V3256.46h28.84v255.66H3418v-115H3270.44v115H3241.6Z" transform="translate(-451.92 -400.2)"/>
      <path class="cls-3" d="M3519.15,3256.46h27l161,204.89V3256.46h28.14v255.66h-23l-165.07-209.64v209.64h-28.14Z" transform="translate(-451.92 -400.2)"/>
      <path class="cls-3" d="M3796.36,3385v-.72c0-70.49,52.94-132.22,130.75-132.22s130,61,130,131.49v.73c0,70.48-52.94,132.21-130.74,132.21S3796.36,3455.5,3796.36,3385Zm230.83,0v-.72c0-58.08-42.38-105.55-100.81-105.55s-100.09,46.75-100.09,104.82v.73c0,58.07,42.38,105.54,100.82,105.54S4027.19,3443.09,4027.19,3385Z" transform="translate(-451.92 -400.2)"/>
      <path class="cls-3" d="M4118.11,3256.46H4147v229h143.92v26.67H4118.11Z" transform="translate(-451.92 -400.2)"/>
      <path class="cls-3" d="M4318.25,3385v-.72c0-70.49,52.94-132.22,130.74-132.22s130,61,130,131.49v.73c0,70.48-52.94,132.21-130.75,132.21S4318.25,3455.5,4318.25,3385Zm230.83,0v-.72c0-58.08-42.38-105.55-100.82-105.55s-100.08,46.75-100.08,104.82v.73c0,58.07,42.38,105.54,100.81,105.54S4549.08,3443.09,4549.08,3385Z" transform="translate(-451.92 -400.2)"/>
      <path class="cls-3" d="M4628.67,3385v-.72c0-70.13,51.49-132.22,128.2-132.22,43.1,0,69.76,12.43,95.32,34L4833.55,3308c-19.7-17.16-41.62-29.21-77.78-29.21-56.61,0-97.16,47.84-97.16,104.82v.73c0,61,39.09,106.27,101.17,106.27,29.23,0,56.25-11.32,73.77-25.56v-63.55h-77.78v-25.92h105.55v101.89a154.86,154.86,0,0,1-102.63,39.08C4678.34,3516.5,4628.67,3458.07,4628.67,3385Z" transform="translate(-451.92 -400.2)"/>
      <path class="cls-3" d="M4995.35,3411l-106.28-154.49h35.06l86.18,127.83,86.94-127.83h33.61l-106.28,154.13v101.53h-29.23Z" transform="translate(-451.92 -400.2)"/>
      <path class="cls-3" d="M5269.62,3412.05c0-87.29,70.49-160,160-160s159.22,68.3,159.22,144.63c0,62.1-34.7,89.49-68.3,89.49-26.66,0-44.18-12.43-51.13-30.69-14.23,16.8-32.87,30.69-60.25,30.69-35.79,0-65.39-26.3-65.39-66.48,0-51.86,43.11-90.93,84.36-90.93,28.5,0,44.56,15,53.34,30.31l4.73-25.21,24.5,3.29-14.63,82.91a145.42,145.42,0,0,0-2.55,22.28c0,18.62,11.32,29.58,31.05,29.58,25.93,0,51.12-23.37,51.12-75.24,0-67.19-62.44-132.2-146.07-132.2-84,0-146.84,66.46-146.84,147.55,0,81.44,62.08,146.82,149.75,146.82,36.52,0,62.81-8.4,90.95-24.84l5.83,9.85c-28.11,17.17-58.8,27.4-96.78,27.4C5339,3571.28,5269.62,3499.34,5269.62,3412.05Zm184.44,34c12.42-12.41,20.44-29.94,20.44-48.22,0-26.65-19-46.37-44.54-46.37-14.63,0-28.87,6.58-40.19,17.9a69.94,69.94,0,0,0-19.73,48.57c0,28.85,18.64,45.66,44.56,45.66C5429.23,3463.55,5443.47,3456.61,5454.06,3446Z" transform="translate(-451.92 -400.2)"/>
      <path class="cls-3" d="M5828.75,3254.63h68.31l108.82,257.49h-75.95l-18.27-46h-99l-18.28,46h-74.13ZM5890.86,3411l-28.5-72.32L5833.52,3411Z" transform="translate(-451.92 -400.2)"/>
      <path class="cls-3" d="M6030.74,3256.46h99c90.94,0,143.89,52.59,143.89,126.37v.73c0,73.78-53.67,128.56-145.35,128.56h-97.51Zm70.86,62.45v130.38h28.84c42.74,0,70.85-23.37,70.85-64.64v-.73c0-40.9-28.11-65-70.85-65Z" transform="translate(-451.92 -400.2)"/>
      <path class="cls-3" d="M6302.07,3385v-.72c0-74.51,57-132.95,134.42-132.95,52.21,0,85.82,21.92,108.46,53l-53.3,41.27c-14.63-17.9-31.42-30-55.89-30-35.79,0-61,30.69-61,67.94v.73c0,38.35,25.2,68.3,61,68.3,26.65,0,42.38-12.42,57.71-31l53.3,38c-24.1,33.24-56.58,57.71-112.83,57.71C6360.87,3517.23,6302.07,3461.35,6302.07,3385Z" transform="translate(-451.92 -400.2)"/>
      <path class="cls-3" d="M6577.46,3256.46h205.61v59.9H6647.59v39.07h122.7v55.89h-122.7v40.54h137.3v60.26H6577.46Z" transform="translate(-451.92 -400.2)"/>
      <path class="cls-3" d="M6802.07,3474.13,6841.5,3427c25.56,20.1,53.31,30.69,82.91,30.69,19.36,0,29.59-6.57,29.59-17.53v-.73c0-11-8.4-16.44-43.47-24.84-54.42-12.42-96.41-27.75-96.41-80v-.74c0-47.48,37.61-81.81,99-81.81,43.47,0,77.44,11.69,105.19,34l-35.43,50c-23.37-16.8-48.93-25.2-71.58-25.2-17.18,0-25.56,6.94-25.56,16.43v.74c0,11.69,8.75,16.79,44.54,24.83,58.43,12.78,95,31.77,95,79.61v.74c0,52.22-41.28,83.27-103.36,83.27C6876.57,3516.5,6833.82,3502.25,6802.07,3474.13Z" transform="translate(-451.92 -400.2)"/>
    </g>
  </g>
</svg>
