<?xml version="1.0" encoding="UTF-8" standalone="no"?>
<!-- Created with Inkscape (http://www.inkscape.org/) -->

<svg
   width="210mm"
   height="297mm"
   viewBox="0 0 210 297"
   version="1.1"
   id="svg5"
   inkscape:export-filename="astroid.svg"
   inkscape:export-xdpi="96"
   inkscape:export-ydpi="96"
   inkscape:version="1.2.2 (732a01da63, 2022-12-09)"
   sodipodi:docname="planets-original.svg"
   xmlns:inkscape="http://www.inkscape.org/namespaces/inkscape"
   xmlns:sodipodi="http://sodipodi.sourceforge.net/DTD/sodipodi-0.dtd"
   xmlns="http://www.w3.org/2000/svg"
   xmlns:svg="http://www.w3.org/2000/svg">
  <sodipodi:namedview
     id="namedview7"
     pagecolor="#ffffff"
     bordercolor="#000000"
     borderopacity="0.25"
     inkscape:showpageshadow="2"
     inkscape:pageopacity="0.0"
     inkscape:pagecheckerboard="0"
     inkscape:deskcolor="#d1d1d1"
     inkscape:document-units="mm"
     showgrid="false"
     inkscape:zoom="1.2623761"
     inkscape:cx="482.42359"
     inkscape:cy="123.57649"
     inkscape:window-width="2560"
     inkscape:window-height="1377"
     inkscape:window-x="1912"
     inkscape:window-y="-8"
     inkscape:window-maximized="1"
     inkscape:current-layer="layer1" />
  <defs
     id="defs2">
    <linearGradient
       id="linearGradient3886"
       inkscape:swatch="solid">
      <stop
         style="stop-color:#ffffff;stop-opacity:1;"
         offset="0"
         id="stop3884" />
    </linearGradient>
    <inkscape:perspective
       sodipodi:type="inkscape:persp3d"
       inkscape:vp_x="0 : 148.5 : 1"
       inkscape:vp_y="0 : 1000 : 0"
       inkscape:vp_z="210 : 148.5 : 1"
       inkscape:persp3d-origin="105 : 99 : 1"
       id="perspective2538" />
  </defs>
  <g
     inkscape:label="Layer 1"
     inkscape:groupmode="layer"
     id="layer1">
    <path
       id="path234"
       style="fill:#b3b3b3;stroke-width:0.264583"
       d="M 89.14443 147.31401 A 29.937126 29.937126 0 0 0 86.872734 147.40909 A 2.0007484 2.0007484 0 0 1 84.994812 148.72271 A 2.0007484 2.0007484 0 0 1 83.375273 147.89382 A 29.937126 29.937126 0 0 0 69.909945 154.33528 A 4.0084376 4.0084376 0 0 1 70.036035 155.33057 A 4.0084376 4.0084376 0 0 1 66.027494 159.33911 A 4.0084376 4.0084376 0 0 1 65.242013 159.25901 A 29.937126 29.937126 0 0 0 59.207239 177.25171 A 29.937126 29.937126 0 0 0 59.230493 177.87751 A 3.039077 3.039077 0 0 1 60.184957 180.08875 A 3.039077 3.039077 0 0 1 59.578276 181.90724 A 29.937126 29.937126 0 0 0 60.674333 186.44133 A 10.63677 10.63677 0 0 1 60.938916 186.43151 A 10.63677 10.63677 0 0 1 71.575476 197.06859 A 10.63677 10.63677 0 0 1 70.85769 200.90402 A 29.937126 29.937126 0 0 0 75.462577 203.85422 A 2.4083085 2.4083085 0 0 1 76.954993 203.33539 A 2.4083085 2.4083085 0 0 1 79.352262 205.51769 A 29.937126 29.937126 0 0 0 89.14443 207.1889 A 29.937126 29.937126 0 0 0 89.380074 207.18064 A 5.711369 5.711369 0 0 1 94.578206 203.82787 A 5.711369 5.711369 0 0 1 98.711804 205.5983 A 29.937126 29.937126 0 0 0 108.71378 199.90459 A 3.2234282 3.2234282 0 0 1 108.70758 199.74181 A 3.2234282 3.2234282 0 0 1 111.93064 196.51824 A 3.2234282 3.2234282 0 0 1 112.05466 196.52082 A 29.937126 29.937126 0 0 0 119.03459 178.586 A 4.4461079 4.4461079 0 0 1 115.96915 174.36197 A 4.4461079 4.4461079 0 0 1 118.29407 170.45781 A 29.937126 29.937126 0 0 0 109.59899 155.39413 A 3.605428 3.605428 0 0 1 109.33234 155.40447 A 3.605428 3.605428 0 0 1 105.77132 152.35763 A 29.937126 29.937126 0 0 0 89.14443 147.31452 L 89.14443 147.31401 z " />
    <circle
       style="fill:#999999;stroke-width:0.264583"
       id="path537"
       cx="77.288177"
       cy="170.80464"
       r="4.3720059" />
    <circle
       style="fill:#808080;stroke-width:0.495533"
       id="path537-5"
       cx="92.367882"
       cy="192.55351"
       r="8.1882486" />
    <circle
       style="fill:#999999;stroke-width:0.14126"
       id="path537-5-7"
       cx="100.00037"
       cy="164.02434"
       r="2.3342066" />
    <circle
       style="display:inline;fill:#462940;fill-opacity:1;stroke-width:0.264583"
       id="path809"
       cx="110.19037"
       cy="59.949348"
       r="31.648319"
       inkscape:label="purple-planet"
       inkscape:export-filename="purple-planet.svg"
       inkscape:export-xdpi="96"
       inkscape:export-ydpi="96" />
    <path
       id="path4712"
       style="display:inline;fill:#f5b05d;fill-opacity:1;stroke:none;stroke-width:0.326219;stroke-opacity:1"
       d="m 78.697946,57.109189 a 17.762882,72.204277 63.741219 0 0 -33.269151,34.777837 17.762882,72.204277 63.741219 0 0 47.842487,-5.237449 17.762882,72.204277 63.741219 0 0 24.769448,-10.77794 17.762882,72.204277 63.741219 0 0 23.6254,-13.096981 17.762882,72.204277 63.741219 0 0 33.26915,-34.777837 17.762882,72.204277 63.741219 0 0 -47.80266,5.222411 31.648319,31.648319 0 0 1 0.62854,0.40502 31.648319,31.648319 0 0 1 0.85148,0.589485 31.648319,31.648319 0 0 1 0.83215,0.616886 31.648319,31.648319 0 0 1 0.81144,0.64381 31.648319,31.648319 0 0 1 0.78958,0.669579 31.648319,31.648319 0 0 1 0.76726,0.695575 31.648319,31.648319 0 0 1 0.74425,0.720178 31.648319,31.648319 0 0 1 0.24431,0.252291 12.427553,49.232719 63.741219 0 1 21.5325,0.348055 12.427553,49.232719 63.741219 0 1 -12.84691,17.313835 12.427553,49.232719 63.741219 0 1 -25.80686,15.613172 12.427553,49.232719 63.741219 0 1 -28.094759,10.975556 12.427553,49.232719 63.741219 0 1 -21.555649,-0.338937 12.427553,49.232719 63.741219 0 1 12.848045,-17.311517 31.648319,31.648319 0 0 1 -0.276078,-2.395747 31.648319,31.648319 0 0 1 -0.05112,-3.105432 31.648319,31.648319 0 0 1 0.147142,-1.80185 z"
       inkscape:label="ring" />
  </g>
</svg>
